{
.appVersion = FontCreator15.0.3024;
.formatVersion = 3;
customParameters = (
{
name = fsType;
value = (
);
},
{
name = "Variable Font Origin";
value = m000;
}
);
date = "2025-08-26 00:47:25";
familyName = "Involute Sans";
featurePrefixes = (
{
automatic = 1;
code = "languagesystem DFLT dflt;
languagesystem latn dflt; # Latin default
languagesystem beng dflt; # Bengali default
languagesystem bng2 dflt; # Bengali v.2 default
";
name = Languagesystems;
},
{
code = "
#
# Global glyph class definitions
#

@CG_1 = [ra-bng2 kha_signviramacomb_ramiddlediagonal-bng2.blwf ga_signviramacomb_ramiddlediagonal-bng2.blwf gha_signviramacomb_ramiddlediagonal-bng2.blwf nna_signviramacomb_ramiddlediagonal-bng2.blwf ta_signviramacomb_ramiddlediagonal-bng2.blwf tha_signviramacomb_ramiddlediagonal-bng2.blwf da_signviramacomb_ramiddlediagonal-bng2.blwf dha_signviramacomb_ramiddlediagonal-bng2.blwf na_signviramacomb_ramiddlediagonal-bng2.blwf pa_signviramacomb_ramiddlediagonal-bng2.blwf pa_signviramacomb_ramiddlediagonal-bng2.blwf.1 ba_signviramacomb_ramiddlediagonal-bng2.blwf bha_signviramacomb_ramiddlediagonal-bng2.blwf ma_signviramacomb_ramiddlediagonal-bng2.blwf ya_signviramacomb_ramiddlediagonal-bng2.blwf la_signviramacomb_ramiddlediagonal-bng2.blwf sha_signviramacomb_ramiddlediagonal-bng2.blwf sa_signviramacomb_ramiddlediagonal-bng2.blwf ramiddlediagonal-bng2 ralowerdiagonal-bng2];
@CG_2 = [vowelsignucomb-bng2 vowelsignuucomb-bng2 vowelsignvocalicrcomb-bng2 vowelsignucomb-bng2.psts.1 vowelsignuucomb-bng2.psts.1 vowelsignvocalicrcomb-bng2.psts];

glyphs = (
{
glyphname = .notdef;
layers = (
{
layerId = m000;
shapes = (
{
closed = 1;
nodes = (
(200,0,l),
(200,834,l),
(611,834,l),
(611,0,l)
);
},
{
closed = 1;
nodes = (
(540,71,l),
(540,764,l),
(271,764,l),
(271,71,l)
);
}
);
width = 811;
}
);
},
{
glyphname = exclam;
layers = (
{
layerId = m000;
shapes = (
{
closed = 1;
nodes = (
(63,51,qs),
(63,71,o),
(92,100,o),
(112,100,qs),
(133,100,o),
(162,71,o),
(162,51,qs),
(162,31,o),
(133,2,o),
(112,2,qs),
(92,2,o),
(63,31,o)
);
},
{
closed = 1;
nodes = (
(147,775,l),
(147,175,l),
(75,175,l),
(75,775,l)
);
}
);
width = 225;
}
);
unicode = 33;
},
{
glyphname = quotedbl;
layers = (
{
layerId = m000;
shapes = (
{
closed = 1;
nodes = (
(161,826,l),
(224,826,l),
(224,645,l),
(161,645,l)
);
},
{
closed = 1;
nodes = (
(50,826,l),
(113,826,l),
(113,645,l),
(50,645,l)
);
}
);
width = 274;
}
);
unicode = 34;
},
{
glyphname = numbersign;
layers = (
{
layerId = m000;
shapes = (
{
closed = 1;
nodes = (
(316,384,l),
(341,526,l),
(227,526,l),
(203,384,l)
);
},
{
closed = 1;
nodes = (
(450,752,l),
(423,597,l),
(497,597,l),
(497,526,l),
(411,526,l),
(387,384,l),
(497,384,l),
(497,313,l),
(375,313,l),
(349,165,l),
(279,165,l),
(304,313,l),
(191,313,l),
(165,165,l),
(95,165,l),
(121,313,l),
(44,313,l),
(44,384,l),
(133,384,l),
(157,526,l),
(44,526,l),
(44,597,l),
(169,597,l),
(195,752,l),
(266,752,l),
(239,597,l),
(352,597,l),
(378,752,l)
);
}
);
width = 527;
}
);
unicode = 35;
},
{
glyphname = percent;
layers = (
{
layerId = m000;
shapes = (
{
closed = 1;
nodes = (
(471,273,qs),
(441,273,o),
(399,232,o),
(399,202,qs),
(399,142,l),
(399,112,o),
(441,70,o),
(471,70,qs),
(501,70,o),
(542,112,o),
(542,142,qs),
(542,202,l),
(542,232,o),
(501,273,o)
);
},
{
closed = 1;
nodes = (
(176,704,qs),
(146,704,o),
(104,663,o),
(104,633,qs),
(104,573,l),
(104,543,o),
(146,502,o),
(176,502,qs),
(206,502,o),
(248,543,o),
(248,573,qs),
(248,633,l),
(248,663,o),
(206,704,o)
);
},
{
closed = 1;
nodes = (
(557,759,l),
(169,11,l),
(90,11,l),
(478,759,l)
);
},
{
closed = 1;
nodes = (
(176,433,qs),
(147,433,o),
(96,455,o),
(58,493,o),
(36,544,o),
(36,573,qs),
(36,633,l),
(36,662,o),
(58,713,o),
(96,751,o),
(147,773,o),
(176,773,qs),
(205,773,o),
(256,751,o),
(294,713,o),
(316,662,o),
(316,633,qs),
(316,573,l),
(316,544,o),
(294,493,o),
(256,455,o),
(205,433,o)
);
},
{
closed = 1;
nodes = (
(471,2,qs),
(442,2,o),
(391,24,o),
(352,62,o),
(330,113,o),
(330,142,qs),
(330,202,l),
(330,231,o),
(352,282,o),
(391,320,o),
(442,342,o),
(471,342,qs),
(500,342,o),
(551,320,o),
(589,282,o),
(611,231,o),
(611,202,qs),
(611,142,l),
(611,113,o),
(589,62,o),
(551,24,o),
(500,2,o)
);
}
);
width = 630;
}
);
unicode = 37;
},
{
glyphname = quotesingle;
layers = (
{
layerId = m000;
shapes = (
{
closed = 1;
nodes = (
(50,826,l),
(113,826,l),
(113,645,l),
(50,645,l)
);
}
);
width = 163;
}
);
unicode = 39;
},
{
glyphname = parenleft;
layers = (
{
layerId = m000;
shapes = (
{
closed = 1;
nodes = (
(286,-101,l),
(246,-101,o),
(175,-70,o),
(122,-17,o),
(91,53,o),
(91,93,qs),
(91,677,l),
(91,718,o),
(122,789,o),
(175,842,o),
(246,873,o),
(286,873,q),
(286,802,l),
(261,802,o),
(215,783,o),
(182,749,o),
(162,703,o),
(162,677,qs),
(162,93,l),
(162,68,o),
(182,22,o),
(215,-11,o),
(261,-31,o),
(286,-31,q)
);
}
);
width = 351;
}
);
unicode = 40;
},
{
glyphname = parenright;
layers = (
{
layerId = m000;
shapes = (
{
closed = 1;
nodes = (
(2,-31,l),
(28,-31,o),
(73,-11,o),
(108,22,o),
(127,68,o),
(127,93,qs),
(127,677,l),
(127,703,o),
(108,749,o),
(73,783,o),
(28,802,o),
(2,802,q),
(2,873,l),
(42,873,o),
(114,842,o),
(167,789,o),
(197,718,o),
(197,677,qs),
(197,93,l),
(197,53,o),
(167,-17,o),
(114,-70,o),
(42,-101,o),
(2,-101,q)
);
}
);
width = 280;
}
);
unicode = 41;
},
{
glyphname = asterisk;
layers = (
{
layerId = m000;
shapes = (
{
closed = 1;
nodes = (
(237,598,l),
(295,563,l),
(203,443,l),
(203,441,l),
(349,460,l),
(349,394,l),
(203,413,l),
(203,410,l),
(296,294,l),
(235,260,l),
(176,394,l),
(174,394,l),
(112,259,l),
(58,293,l),
(149,411,l),
(149,414,l),
(6,394,l),
(6,460,l),
(149,442,l),
(149,444,l),
(58,562,l),
(116,597,l),
(176,461,l),
(178,461,l)
);
}
);
width = 350;
}
);
unicode = 42;
},
{
glyphname = plus;
layers = (
{
layerId = m000;
shapes = (
{
closed = 1;
nodes = (
(296,385,l),
(184,385,l),
(184,237,l),
(114,237,l),
(114,385,l),
(2,385,l),
(2,455,l),
(114,455,l),
(114,603,l),
(184,603,l),
(184,455,l),
(296,455,l)
);
}
);
width = 298;
}
);
unicode = 43;
},
{
glyphname = comma;
layers = (
{
layerId = m000;
shapes = (
{
closed = 1;
nodes = (
(42,110,l),
(106,78,l),
(-17,-142,l),
(-44,-129,l)
);
}
);
width = 77;
}
);
unicode = 44;
},
{
glyphname = hyphenminus;
layers = (
{
layerId = m000;
shapes = (
{
closed = 1;
nodes = (
(362,385,l),
(362,314,l),
(20,314,l),
(20,385,l)
);
}
);
width = 382;
}
);
unicode = 45;
},
{
glyphname = period;
layers = (
{
layerId = m000;
shapes = (
{
closed = 1;
nodes = (
(39,4,qs),
(19,4,o),
(-11,33,o),
(-11,53,qs),
(-11,73,o),
(19,102,o),
(39,102,qs),
(59,102,o),
(88,73,o),
(88,53,qs),
(88,33,o),
(59,4,o)
);
}
);
width = 77;
}
);
unicode = 46;
},
{
glyphname = slash;
layers = (
{
layerId = m000;
shapes = (
{
closed = 1;
nodes = (
(261,843,l),
(100,-46,l),
(30,-46,l),
(190,843,l)
);
}
);
width = 264;
}
);
unicode = 47;
},
{
glyphname = colon;
layers = (
{
layerId = m000;
shapes = (
{
closed = 1;
nodes = (
(93,0,qs),
(68,0,o),
(32,37,o),
(32,63,qs),
(32,88,o),
(68,124,o),
(93,124,qs),
(119,124,o),
(155,88,o),
(155,63,qs),
(155,37,o),
(119,0,o)
);
},
{
closed = 1;
nodes = (
(93,365,qs),
(67,365,o),
(31,402,o),
(31,428,qs),
(31,453,o),
(67,489,o),
(93,489,qs),
(118,489,o),
(154,453,o),
(154,428,qs),
(154,402,o),
(118,365,o)
);
}
);
width = 186;
}
);
unicode = 58;
},
{
glyphname = semicolon;
layers = (
{
layerId = m000;
shapes = (
{
closed = 1;
nodes = (
(98,176,l),
(162,144,l),
(40,-76,l),
(12,-62,l)
);
},
{
closed = 1;
nodes = (
(117,366,qs),
(91,366,o),
(55,402,o),
(55,428,qs),
(55,453,o),
(91,489,o),
(117,489,qs),
(142,489,o),
(179,453,o),
(179,428,qs),
(179,402,o),
(142,366,o)
);
}
);
width = 186;
}
);
unicode = 59;
},
{
glyphname = less;
layers = (
{
layerId = m000;
shapes = (
{
closed = 1;
nodes = (
(239,755,l),
(96,374,l),
(239,6,l),
(172,-16,l),
(22,374,l),
(172,778,l)
);
}
);
width = 250;
}
);
unicode = 60;
},
{
glyphname = equal;
layers = (
{
layerId = m000;
shapes = (
{
closed = 1;
nodes = (
(327,348,l),
(327,277,l),
(33,277,l),
(33,348,l)
);
},
{
closed = 1;
nodes = (
(327,526,l),
(327,456,l),
(33,456,l),
(33,526,l)
);
}
);
width = 360;
}
);
unicode = 61;
},
{
glyphname = greater;
layers = (
{
layerId = m000;
shapes = (
{
closed = 1;
nodes = (
(101,778,l),
(251,374,l),
(101,-16,l),
(34,6,l),
(177,374,l),
(34,755,l)
);
}
);
width = 262;
}
);
unicode = 62;
},
{
glyphname = question;
layers = (
{
layerId = m000;
shapes = (
{
closed = 1;
nodes = (
(148,51,qs),
(148,71,o),
(177,100,o),
(197,100,qs),
(217,100,o),
(246,71,o),
(246,51,qs),
(246,31,o),
(217,2,o),
(197,2,qs),
(177,2,o),
(148,31,o)
);
},
{
closed = 1;
nodes = (
(232,175,l),
(161,175,l),
(161,476,l),
(197,476,l),
(221,476,o),
(261,494,o),
(292,525,o),
(310,565,o),
(310,589,qs),
(310,612,o),
(292,653,o),
(261,684,o),
(221,702,o),
(197,702,qs),
(173,702,o),
(132,684,o),
(101,653,o),
(83,612,o),
(83,589,q),
(13,589,l),
(13,627,o),
(42,694,o),
(92,744,o),
(159,773,o),
(197,773,qs),
(236,773,o),
(303,744,o),
(352,694,o),
(381,627,o),
(381,589,qs),
(381,555,o),
(358,495,o),
(318,447,o),
(264,415,o),
(232,408,q)
);
}
);
width = 391;
}
);
unicode = 63;
},
{
glyphname = at;
layers = (
{
layerId = m000;
shapes = (
{
closed = 1;
nodes = (
(399,259,qs),
(418,259,o),
(452,274,o),
(477,298,o),
(491,332,o),
(491,351,qs),
(491,423,l),
(491,443,o),
(477,476,o),
(452,502,o),
(418,516,o),
(399,516,qs),
(379,516,o),
(346,502,o),
(321,476,o),
(306,443,o),
(306,423,qs),
(306,351,l),
(306,332,o),
(321,298,o),
(346,274,o),
(379,259,o)
);
},
{
closed = 1;
nodes = (
(401,773,qs),
(474,773,o),
(600,718,o),
(695,623,o),
(751,496,o),
(751,424,qs),
(751,317,l),
(751,291,o),
(731,243,o),
(695,208,o),
(648,188,o),
(621,188,qs),
(589,188,o),
(535,217,o),
(518,239,q),
(495,216,o),
(435,188,o),
(399,188,qs),
(365,188,o),
(306,213,o),
(261,258,o),
(235,318,o),
(235,351,qs),
(235,423,l),
(235,457,o),
(261,517,o),
(306,561,o),
(365,586,o),
(399,586,qs),
(432,586,o),
(492,561,o),
(536,517,o),
(562,457,o),
(562,423,qs),
(562,317,l),
(562,293,o),
(597,259,o),
(621,259,qs),
(645,259,o),
(680,293,o),
(680,317,qs),
(680,424,l),
(680,481,o),
(636,583,o),
(560,658,o),
(459,702,o),
(401,702,qs),
(344,702,o),
(243,658,o),
(167,583,o),
(123,481,o),
(123,424,qs),
(123,350,l),
(123,293,o),
(167,192,o),
(243,116,o),
(344,72,o),
(401,72,qs),
(507,72,l),
(555,72,o),
(600,90,q),
(627,25,l),
(569,2,o),
(507,2,qs),
(401,2,l),
(329,2,o),
(203,56,o),
(108,151,o),
(53,278,o),
(53,350,qs),
(53,424,l),
(53,496,o),
(108,623,o),
(203,718,o),
(329,773,o)
);
}
);
width = 790;
}
);
unicode = 64;
},
{
glyphname = bracketleft;
layers = (
{
layerId = m000;
shapes = (
{
closed = 1;
nodes = (
(283,-88,l),
(114,-88,l),
(114,866,l),
(283,866,l),
(283,796,l),
(185,796,l),
(185,-17,l),
(283,-17,l)
);
}
);
width = 342;
}
);
unicode = 91;
},
{
glyphname = backslash;
layers = (
{
layerId = m000;
shapes = (
{
closed = 1;
nodes = (
(120,843,l),
(281,-46,l),
(210,-46,l),
(50,843,l)
);
}
);
width = 328;
}
);
unicode = 92;
},
{
glyphname = bracketright;
layers = (
{
layerId = m000;
shapes = (
{
closed = 1;
nodes = (
(61,-17,l),
(159,-17,l),
(159,796,l),
(61,796,l),
(61,866,l),
(229,866,l),
(229,-88,l),
(61,-88,l)
);
}
);
width = 343;
}
);
unicode = 93;
},
{
glyphname = asciicircum;
layers = (
{
layerId = m000;
shapes = (
{
closed = 1;
nodes = (
(291,854,l),
(441,561,l),
(362,561,l),
(259,760,l),
(157,561,l),
(77,561,l),
(228,854,l)
);
}
);
width = 533;
}
);
unicode = 94;
},
{
glyphname = underscore;
layers = (
{
layerId = m000;
shapes = (
{
closed = 1;
nodes = (
(693,71,l),
(693,1,l),
(67,1,l),
(67,71,l)
);
}
);
width = 760;
}
);
unicode = 95;
},
{
glyphname = grave;
layers = (
{
layerId = m000;
shapes = (
{
closed = 1;
nodes = (
(38,860,l),
(90,882,l),
(178,679,l),
(115,648,l)
);
}
);
width = 223;
}
);
unicode = 96;
},
{
glyphname = braceleft;
layers = (
{
layerId = m000;
shapes = (
{
closed = 1;
nodes = (
(324,-94,l),
(283,-94,o),
(213,-63,o),
(160,-10,o),
(129,61,o),
(129,101,qs),
(129,277,l),
(129,307,o),
(88,349,o),
(58,349,q),
(58,420,l),
(88,420,o),
(128,461,o),
(128,491,qs),
(128,667,l),
(128,708,o),
(159,779,o),
(212,832,o),
(283,863,o),
(324,863,q),
(324,792,l),
(298,792,o),
(252,773,o),
(219,738,o),
(200,693,o),
(200,667,qs),
(200,491,l),
(200,459,o),
(174,405,o),
(151,385,q),
(174,364,o),
(200,309,o),
(200,277,qs),
(200,101,l),
(200,76,o),
(219,30,o),
(252,-3,o),
(298,-23,o),
(324,-23,q)
);
}
);
width = 399;
}
);
unicode = 123;
},
{
glyphname = bar;
layers = (
{
layerId = m000;
shapes = (
{
closed = 1;
nodes = (
(157,892,l),
(157,-95,l),
(87,-95,l),
(87,892,l)
);
}
);
width = 240;
}
);
unicode = 124;
},
{
glyphname = braceright;
layers = (
{
layerId = m000;
shapes = (
{
closed = 1;
nodes = (
(78,-23,l),
(104,-23,o),
(149,-3,o),
(183,30,o),
(202,76,o),
(202,101,qs),
(202,277,l),
(202,309,o),
(228,364,o),
(251,385,q),
(228,405,o),
(203,459,o),
(203,491,qs),
(203,667,l),
(203,693,o),
(184,738,o),
(149,773,o),
(104,792,o),
(78,792,q),
(78,863,l),
(118,863,o),
(190,832,o),
(243,779,o),
(273,708,o),
(273,667,qs),
(273,491,l),
(273,461,o),
(315,420,o),
(345,420,q),
(345,349,l),
(315,349,o),
(273,307,o),
(273,277,qs),
(273,101,l),
(273,61,o),
(243,-10,o),
(190,-63,o),
(118,-94,o),
(78,-94,q)
);
}
);
width = 414;
}
);
unicode = 125;
},
{
glyphname = asciitilde;
layers = (
{
layerId = m000;
shapes = (
{
closed = 1;
nodes = (
(350,293,qs),
(321,293,o),
(294,308,qs),
(209,355,l),
(197,361,o),
(183,361,qs),
(162,361,o),
(130,330,o),
(130,309,q),
(66,309,l),
(66,334,o),
(84,376,o),
(117,408,o),
(160,426,o),
(184,426,qs),
(213,426,o),
(240,411,qs),
(325,364,l),
(337,357,o),
(350,357,qs),
(372,357,o),
(404,388,o),
(404,410,q),
(468,410,l),
(468,386,o),
(450,342,o),
(418,311,o),
(375,293,o)
);
}
);
width = 542;
}
);
unicode = 126;
},
{
glyphname = periodcentered;
layers = (
{
layerId = m000;
shapes = (
{
closed = 1;
nodes = (
(90,299,qs),
(70,299,o),
(41,328,o),
(41,349,qs),
(41,369,o),
(70,398,o),
(90,398,qs),
(111,398,o),
(140,369,o),
(140,349,qs),
(140,328,o),
(111,299,o)
);
}
);
width = 183;
}
);
unicode = 183;
},
{
glyphname = multiply;
layers = (
{
layerId = m000;
shapes = (
{
closed = 1;
nodes = (
(446,540,l),
(319,357,l),
(454,161,l),
(369,161,l),
(277,296,l),
(184,161,l),
(98,161,l),
(234,357,l),
(108,540,l),
(194,540,l),
(277,420,l),
(359,540,l)
);
}
);
width = 556;
}
);
unicode = 215;
},
{
glyphname = divide;
layers = (
{
layerId = m000;
shapes = (
{
closed = 1;
nodes = (
(360,455,l),
(360,385,l),
(67,385,l),
(67,455,l)
);
},
{
closed = 1;
nodes = (
(249,509,l),
(178,509,l),
(178,603,l),
(249,603,l)
);
},
{
closed = 1;
nodes = (
(178,331,l),
(249,331,l),
(249,237,l),
(178,237,l)
);
}
);
width = 432;
}
);
unicode = 247;
},
{
glyphname = softhyphen;
layers = (
{
layerId = m000;
shapes = (
{
closed = 1;
nodes = (
(360,455,l),
(360,385,l),
(67,385,l),
(67,455,l)
);
}
);
width = 433;
}
);
unicode = (173,8208);
},
{
glyphname = endash;
layers = (
{
layerId = m000;
shapes = (
{
closed = 1;
nodes = (
(397,455,l),
(397,385,l),
(67,385,l),
(67,455,l)
);
}
);
width = 472;
}
);
unicode = 8211;
},
{
glyphname = emdash;
layers = (
{
layerId = m000;
shapes = (
{
closed = 1;
nodes = (
(545,455,l),
(545,385,l),
(67,385,l),
(67,455,l)
);
}
);
width = 616;
}
);
unicode = 8212;
},
{
glyphname = quoteleft;
layers = (
{
layerId = m000;
shapes = (
{
closed = 1;
nodes = (
(11,835,l),
(38,849,l),
(161,628,l),
(97,596,l)
);
}
);
width = 208;
}
);
unicode = 8216;
},
{
glyphname = quoteright;
layers = (
{
layerId = m000;
shapes = (
{
closed = 1;
nodes = (
(97,849,l),
(161,818,l),
(38,596,l),
(11,610,l)
);
}
);
width = 220;
}
);
unicode = 8217;
},
{
glyphname = quotedblleft;
layers = (
{
layerId = m000;
shapes = (
{
closed = 1;
nodes = (
(136,835,l),
(163,849,l),
(286,628,l),
(222,596,l)
);
},
{
closed = 1;
nodes = (
(11,835,l),
(38,849,l),
(161,628,l),
(97,596,l)
);
}
);
width = 340;
}
);
unicode = 8220;
},
{
glyphname = quotedblright;
layers = (
{
layerId = m000;
shapes = (
{
closed = 1;
nodes = (
(222,849,l),
(286,818,l),
(163,596,l),
(136,610,l)
);
},
{
closed = 1;
nodes = (
(97,849,l),
(161,818,l),
(38,596,l),
(11,610,l)
);
}
);
width = 345;
}
);
unicode = 8221;
},
{
glyphname = "a-bng2";
layers = (
{
anchors = (
{
name = Anchor_5;
pos = (785,690);
},
{
name = Anchor_3;
pos = (785,690);
}
);
layerId = m000;
shapes = (
{
closed = 1;
nodes = (
(786,184,l),
(786,691,l),
(-9,691,l),
(-9,763,l),
(948,763,l),
(948,691,l),
(857,691,l),
(857,1,l),
(786,1,l),
(786,84,l),
(638,229,l),
(587,138,o),
(465,127,qs),
(455,126,o),
(446,126,qs),
(361,126,o),
(202,253,o),
(86,477,o),
(62,618,q),
(132,630,l),
(154,504,o),
(255,302,o),
(390,192,o),
(459,198,qs),
(548,206,o),
(579,270,qs),
(602,320,o),
(581,455,o),
(553,497,qs),
(524,540,o),
(453,575,o),
(424,570,qs),
(385,564,o),
(376,531,qs),
(368,500,o),
(383,473,q),
(400,445,o),
(437,435,q),
(420,366,l),
(353,383,o),
(322,437,qs),
(292,491,o),
(307,550,q),
(331,625,o),
(412,641,q),
(461,649,o),
(570,600,o),
(613,536,qs),
(640,495,o),
(672,366,o),
(663,305,q)
);
}
);
width = 939;
}
);
unicode = 2437;
},
{
glyphname = "aa-bng2";
layers = (
{
anchors = (
{
name = Anchor_5;
pos = (785,690);
},
{
name = Anchor_3;
pos = (785,690);
}
);
layerId = m000;
shapes = (
{
closed = 1;
nodes = (
(786,84,l),
(638,229,l),
(587,138,o),
(465,127,qs),
(455,126,o),
(446,126,qs),
(361,126,o),
(202,253,o),
(86,477,o),
(62,618,q),
(132,630,l),
(154,504,o),
(255,302,o),
(390,192,o),
(459,198,qs),
(548,206,o),
(579,270,qs),
(602,320,o),
(581,455,o),
(553,497,qs),
(524,540,o),
(453,575,o),
(424,570,qs),
(385,564,o),
(376,531,qs),
(368,500,o),
(383,473,q),
(400,445,o),
(437,435,q),
(420,366,l),
(353,383,o),
(322,437,qs),
(292,491,o),
(307,550,q),
(331,625,o),
(412,641,q),
(461,649,o),
(570,600,o),
(613,536,qs),
(640,495,o),
(672,366,o),
(663,305,q),
(786,184,l),
(786,691,l),
(-9,691,l),
(-9,763,l),
(1180,763,l),
(1180,691,l),
(1090,691,l),
(1090,1,l),
(1018,1,l),
(1018,691,l),
(857,691,l),
(857,1,l),
(786,1,l)
);
}
);
width = 1171;
}
);
unicode = 2438;
},
{
glyphname = "i-bng2";
layers = (
{
anchors = (
{
name = Anchor_5;
pos = (360,800);
},
{
name = Anchor_3;
pos = (451,723);
}
);
layerId = m000;
shapes = (
{
closed = 1;
nodes = (
(479,-68,l),
(386,10,o),
(134,181,o),
(61,193,q),
(70,264,l),
(99,262,o),
(127,262,qs),
(212,262,o),
(345,302,o),
(384,339,qs),
(421,375,o),
(421,416,qs),
(421,419,l),
(420,474,o),
(345,545,o),
(280,555,q),
(269,556,o),
(258,556,qs),
(222,556,o),
(164,523,o),
(154,500,qs),
(151,493,o),
(151,483,qs),
(151,471,o),
(156,459,q),
(171,433,o),
(213,425,q),
(200,355,l),
(123,370,o),
(94,426,q),
(79,452,o),
(79,483,qs),
(79,507,o),
(89,528,q),
(108,573,o),
(204,628,o),
(261,628,qs),
(275,628,o),
(289,626,qs),
(380,613,o),
(491,502,o),
(493,422,qs),
(493,416,l),
(493,345,o),
(434,287,qs),
(361,218,o),
(229,198,q),
(317,148,o),
(444,52,o),
(525,-13,q)
);
},
{
closed = 1;
nodes = (
(525,807,qs),
(525,787,o),
(522,763,q),
(583,763,l),
(583,691,l),
(-9,691,l),
(-9,763,l),
(450,763,l),
(453,788,o),
(453,809,qs),
(453,863,o),
(432,882,q),
(413,898,o),
(372,898,qs),
(311,898,o),
(204,864,qs),
(168,853,o),
(135,853,qs),
(78,853,o),
(44,886,qs),
(14,917,o),
(14,962,qs),
(14,987,o),
(24,1015,q),
(91,993,l),
(86,977,o),
(86,963,qs),
(86,946,o),
(95,936,q),
(107,924,o),
(135,924,qs),
(156,924,o),
(183,932,qs),
(300,969,o),
(372,969,qs),
(440,969,o),
(479,936,qs),
(525,895,o)
);
}
);
width = 574;
}
);
unicode = 2439;
},
{
glyphname = "ii-bng2";
layers = (
{
anchors = (
{
name = Anchor_5;
pos = (447,802);
},
{
name = Anchor_3;
pos = (571,757);
}
);
layerId = m000;
shapes = (
{
closed = 1;
nodes = (
(397,414,q),
(603,576,l),
(656,528,l),
(645,509,o),
(608,441,o),
(557,325,o),
(518,190,o),
(518,131,qs),
(518,23,o),
(589,-27,q),
(547,-85,l),
(447,-14,o),
(447,130,qs),
(447,254,o),
(520,419,q),
(315,259,l),
(236,191,o),
(105,191,qs),
(76,191,o),
(61,193,q),
(68,264,l),
(88,262,o),
(107,262,qs),
(209,262,o),
(269,313,q),
(273,317,l),
(326,370,o),
(326,433,qs),
(326,473,o),
(294,547,o),
(247,555,q),
(240,556,o),
(232,556,qs),
(202,556,o),
(153,524,o),
(145,502,q),
(142,493,o),
(142,483,qs),
(142,467,o),
(149,454,qs),
(161,432,o),
(193,425,q),
(178,356,l),
(116,368,o),
(86,420,q),
(71,449,o),
(71,483,qs),
(71,506,o),
(78,526,qs),
(95,572,o),
(181,628,o),
(232,628,qs),
(245,628,o),
(259,626,q),
(329,614,o),
(398,505,o),
(398,436,qs),
(398,433,l),
(398,420,o)
);
},
{
closed = 1;
nodes = (
(636,808,qs),
(636,787,o),
(633,763,q),
(718,763,l),
(718,691,l),
(-9,691,l),
(-9,763,l),
(561,763,l),
(565,788,o),
(565,808,qs),
(565,859,o),
(544,878,qs),
(522,898,o),
(470,898,qs),
(402,898,o),
(282,864,qs),
(243,853,o),
(209,853,qs),
(142,853,o),
(106,892,qs),
(79,920,o),
(79,964,qs),
(79,988,o),
(89,1016,q),
(156,992,l),
(150,975,o),
(150,963,qs),
(150,948,o),
(158,940,qs),
(173,925,o),
(209,925,qs),
(233,925,o),
(263,933,qs),
(393,970,o),
(471,970,qs),
(550,970,o),
(592,931,qs),
(636,890,o)
);
}
);
width = 709;
}
);
unicode = 2440;
},
{
glyphname = "ii-bng2.alt";
layers = (
{
anchors = (
{
name = Anchor_5;
pos = (450,793);
},
{
name = Anchor_3;
pos = (557,733);
}
);
layerId = m000;
shapes = (
{
closed = 1;
nodes = (
(391,419,q),
(600,576,l),
(651,528,l),
(640,510,o),
(603,442,o),
(552,326,o),
(514,191,o),
(514,131,qs),
(514,23,o),
(584,-27,q),
(542,-85,l),
(443,-14,o),
(443,129,qs),
(443,256,o),
(517,424,q),
(295,258,l),
(291,254,o),
(281,247,q),
(105,114,l),
(61,171,l),
(252,314,l),
(289,344,o),
(322,415,o),
(322,450,qs),
(322,466,o),
(318,481,qs),
(302,545,o),
(243,555,q),
(234,556,o),
(226,556,qs),
(195,556,o),
(148,524,o),
(140,502,qs),
(137,494,o),
(137,484,qs),
(137,468,o),
(144,454,q),
(157,432,o),
(188,425,q),
(172,356,l),
(109,368,o),
(82,420,qs),
(66,450,o),
(66,484,qs),
(66,507,o),
(73,526,qs),
(90,572,o),
(177,628,o),
(228,628,qs),
(241,628,o),
(253,626,qs),
(303,618,o),
(375,549,o),
(388,497,q),
(393,474,o),
(393,449,qs),
(393,434,o)
);
},
{
closed = 1;
nodes = (
(632,809,qs),
(632,788,o),
(629,763,q),
(713,763,l),
(713,691,l),
(-9,691,l),
(-9,763,l),
(557,763,l),
(560,788,o),
(560,808,qs),
(560,859,o),
(539,878,qs),
(517,898,o),
(465,898,qs),
(397,898,o),
(278,864,qs),
(239,853,o),
(204,853,qs),
(138,853,o),
(102,892,q),
(74,919,o),
(74,963,qs),
(74,988,o),
(84,1016,q),
(151,992,l),
(146,975,o),
(146,963,qs),
(146,948,o),
(154,940,qs),
(168,925,o),
(204,925,qs),
(229,925,o),
(259,933,qs),
(389,970,o),
(467,970,qs),
(546,970,o),
(588,931,qs),
(632,891,o)
);
}
);
width = 704;
}
);
},
{
glyphname = "u-bng2";
layers = (
{
anchors = (
{
name = Anchor_5;
pos = (514,780);
},
{
name = Anchor_3;
pos = (580,728);
}
);
layerId = m000;
shapes = (
{
closed = 1;
nodes = (
(745,691,l),
(390,691,l),
(390,407,l),
(436,409,o),
(504,477,o),
(544,556,o),
(544,560,q),
(603,574,l),
(634,542,o),
(674,423,o),
(674,356,qs),
(674,287,o),
(652,228,qs),
(595,76,o),
(432,60,q),
(425,59,o),
(410,59,qs),
(315,59,o),
(237,129,qs),
(77,275,o),
(61,607,q),
(132,610,l),
(138,465,o),
(218,241,o),
(284,182,qs),
(341,131,o),
(410,131,qs),
(426,131,l),
(546,142,o),
(585,252,qs),
(602,298,o),
(602,355,qs),
(602,420,o),
(582,473,q),
(548,414,o),
(448,335,o),
(384,335,qs),
(366,335,o),
(347,339,q),
(318,374,l),
(318,691,l),
(-9,691,l),
(-9,763,l),
(562,763,l),
(565,788,o),
(565,808,qs),
(565,854,o),
(545,874,qs),
(521,897,o),
(459,897,qs),
(384,897,o),
(251,863,qs),
(209,852,o),
(171,852,qs),
(96,852,o),
(58,895,qs),
(33,922,o),
(33,962,qs),
(33,987,o),
(44,1016,q),
(110,990,l),
(104,974,o),
(104,962,qs),
(104,950,o),
(111,942,qs),
(127,924,o),
(172,924,qs),
(200,924,o),
(233,932,qs),
(374,969,o),
(458,969,qs),
(549,969,o),
(594,926,qs),
(638,885,o),
(638,808,qs),
(638,787,o),
(634,763,q),
(745,763,l)
);
}
);
width = 736;
}
);
unicode = 2441;
},
{
glyphname = "uu-bng2";
layers = (
{
anchors = (
{
name = Anchor_5;
pos = (618,771);
},
{
name = Anchor_3;
pos = (609,742);
}
);
layerId = m000;
shapes = (
{
closed = 1;
nodes = (
(804,691,l),
(449,691,l),
(449,407,l),
(494,409,o),
(563,477,o),
(603,556,o),
(603,560,q),
(662,574,l),
(694,542,o),
(733,423,o),
(733,356,qs),
(733,287,o),
(712,228,qs),
(654,76,o),
(491,60,q),
(484,59,o),
(468,59,qs),
(386,59,o),
(322,107,q),
(227,157,o),
(84,377,o),
(53,546,q),
(99,555,l),
(130,389,o),
(207,276,q),
(167,388,o),
(167,538,qs),
(167,574,o),
(170,611,q),
(241,606,l),
(239,571,o),
(239,538,qs),
(239,414,o),
(293,231,o),
(345,181,qs),
(398,131,o),
(469,131,qs),
(486,131,l),
(604,142,o),
(645,252,qs),
(661,298,o),
(661,355,qs),
(661,421,o),
(641,473,q),
(608,415,o),
(507,335,o),
(443,335,qs),
(425,335,o),
(406,339,q),
(377,374,l),
(377,691,l),
(-9,691,l),
(-9,763,l),
(621,763,l),
(625,788,o),
(625,808,qs),
(625,854,o),
(604,874,qs),
(581,897,o),
(518,897,qs),
(443,897,o),
(310,863,qs),
(268,852,o),
(231,852,qs),
(155,852,o),
(117,895,qs),
(92,923,o),
(92,963,qs),
(92,988,o),
(103,1016,q),
(170,990,l),
(163,975,o),
(163,963,qs),
(163,950,o),
(171,942,q),
(187,924,o),
(231,924,qs),
(259,924,o),
(293,932,q),
(433,969,o),
(518,969,qs),
(609,969,o),
(654,926,qs),
(696,885,o),
(696,807,qs),
(696,787,o),
(693,763,q),
(804,763,l)
);
}
);
width = 795;
}
);
unicode = 2442;
},
{
glyphname = "vocalicr-bng2";
layers = (
{
anchors = (
{
name = Anchor_5;
pos = (433,690);
},
{
name = Anchor_3;
pos = (433,690);
},
{
name = Anchor_6;
pos = (433,287);
},
{
name = Anchor_17;
pos = (435,318);
},
{
name = Anchor_18;
pos = (434,310);
},
{
name = Anchor_9;
pos = (432,0);
},
{
name = Anchor_10;
pos = (434,326);
},
{
name = Anchor_11;
pos = (429,313);
}
);
layerId = m000;
shapes = (
{
closed = 1;
nodes = (
(434,544,l),
(169,449,l),
(434,183,l)
);
},
{
closed = 1;
nodes = (
(821,691,l),
(732,691,l),
(732,184,l),
(733,182,l),
(732,181,l),
(732,72,l),
(660,72,l),
(660,154,l),
(506,309,l),
(506,1,l),
(434,1,l),
(434,82,l),
(78,438,l),
(92,497,l),
(351,590,l),
(233,690,l),
(77,633,l),
(53,700,l),
(228,764,l),
(263,758,l),
(429,618,l),
(434,620,l),
(434,763,l),
(506,763,l),
(506,410,l),
(660,255,l),
(660,763,l),
(821,763,l)
);
}
);
width = 812;
}
);
unicode = 2443;
},
{
glyphname = "vocalicr-bng2.alt";
layers = (
{
anchors = (
{
name = Anchor_5;
pos = (471,681);
},
{
name = Anchor_3;
pos = (471,690);
},
{
name = Anchor_6;
pos = (476,287);
},
{
name = Anchor_17;
pos = (478,315);
},
{
name = Anchor_18;
pos = (477,314);
},
{
name = Anchor_9;
pos = (477,0);
},
{
name = Anchor_10;
pos = (477,312);
},
{
name = Anchor_11;
pos = (472,286);
}
);
layerId = m000;
shapes = (
{
closed = 1;
nodes = (
(477,544,l),
(211,449,l),
(477,183,l)
);
},
{
closed = 1;
nodes = (
(864,691,l),
(774,691,l),
(774,184,l),
(775,182,l),
(774,181,l),
(774,72,l),
(702,72,l),
(702,154,l),
(548,309,l),
(548,1,l),
(476,1,l),
(476,82,l),
(121,438,l),
(134,497,l),
(397,591,l),
(311,673,l),
(298,651,o),
(275,633,q),
(237,606,o),
(191,606,qs),
(160,606,o),
(133,619,qs),
(103,634,o),
(55,701,o),
(53,762,q),
(124,765,l),
(127,701,o),
(164,683,qs),
(176,677,o),
(191,677,qs),
(214,677,o),
(233,691,qs),
(254,706,o),
(254,731,qs),
(254,738,l),
(313,769,l),
(473,618,l),
(476,620,l),
(476,763,l),
(548,763,l),
(548,410,l),
(702,255,l),
(702,763,l),
(864,763,l)
);
}
);
width = 855;
}
);
},
{
glyphname = "vocalicl-bng2";
layers = (
{
layerId = m000;
shapes = (
{
closed = 1;
nodes = (
(479,167,qs),
(487,139,o),
(487,110,qs),
(487,60,o),
(463,17,qs),
(459,10,o),
(455,3,q),
(424,21,l),
(394,41,l),
(415,72,o),
(415,111,qs),
(415,149,o),
(395,185,qs),
(373,223,o),
(299,265,o),
(255,265,qs),
(245,265,l),
(196,262,o),
(138,208,o),
(134,173,q),
(134,164,l),
(134,131,o),
(181,82,o),
(224,70,q),
(204,1,l),
(131,22,o),
(62,114,o),
(62,165,qs),
(62,173,o),
(63,181,qs),
(69,240,o),
(166,332,o),
(242,336,qs),
(256,337,l),
(319,337,o),
(426,275,o),
(456,221,qs),
(471,195,o)
);
},
{
closed = 1;
nodes = (
(454,1,q),
(424,21,l),
(393,39,l),
(393,40,o),
(394,41,q),
(410,67,o),
(450,126,qs),
(469,153,o),
(479,167,q),
(503,203,o),
(528,262,o),
(528,291,qs),
(528,300,o),
(527,308,qs),
(520,359,o),
(454,429,o),
(367,471,o),
(295,498,qs),
(212,529,o),
(132,577,o),
(119,619,qs),
(115,633,o),
(115,648,qs),
(115,694,o),
(156,750,q),
(213,708,l),
(186,671,o),
(186,648,qs),
(186,643,o),
(187,640,qs),
(193,621,o),
(256,589,o),
(320,565,qs),
(399,536,o),
(504,482,o),
(588,388,o),
(597,318,qs),
(599,305,o),
(599,291,qs),
(599,240,o),
(555,151,o),
(509,85,qs),
(484,50,o),
(463,17,q),
(459,9,o)
);
}
);
width = 661;
}
);
unicode = 2444;
},
{
glyphname = "e-bng2";
layers = (
{
anchors = (
{
name = Anchor_5;
pos = (571,690);
},
{
name = Anchor_3;
pos = (571,690);
}
);
layerId = m000;
shapes = (
{
closed = 1;
nodes = (
(577,71,l),
(540,109,o),
(432,130,o),
(346,132,qs),
(277,134,o),
(244,139,qs),
(142,154,o),
(92,244,qs),
(62,298,o),
(62,368,qs),
(62,442,o),
(95,516,q),
(161,487,l),
(133,427,o),
(133,368,qs),
(133,317,o),
(154,278,qs),
(187,219,o),
(255,210,q),
(276,206,o),
(348,204,qs),
(429,201,o),
(531,186,o),
(577,160,q),
(577,643,l),
(577,686,o),
(556,695,q),
(546,700,o),
(532,700,qs),
(502,700,o),
(419,664,o),
(389,640,qs),
(362,618,o),
(337,568,o),
(337,544,qs),
(337,528,o),
(343,515,qs),
(361,478,o),
(415,478,qs),
(432,478,o),
(451,482,q),
(467,413,l),
(439,407,o),
(414,407,qs),
(364,407,o),
(295,450,o),
(279,483,qs),
(265,512,o),
(265,544,qs),
(265,584,o),
(306,663,o),
(344,694,qs),
(380,724,o),
(485,771,o),
(531,771,qs),
(562,771,o),
(586,760,qs),
(648,730,o),
(648,643,qs),
(648,1,l),
(577,1,l)
);
}
);
width = 727;
}
);
unicode = 2447;
},
{
glyphname = "ai-bng2";
layers = (
{
anchors = (
{
name = Anchor_5;
pos = (752,823);
},
{
name = Anchor_3;
pos = (561,747);
}
);
layerId = m000;
shapes = (
{
closed = 1;
nodes = (
(648,513,l),
(742,551,o),
(742,672,qs),
(742,724,o),
(686,801,o),
(606,854,o),
(537,890,qs),
(460,931,o),
(385,989,o),
(378,1032,q),
(376,1041,o),
(376,1049,qs),
(376,1100,o),
(431,1157,q),
(483,1108,l),
(448,1072,o),
(448,1048,qs),
(448,1044,l),
(451,1024,o),
(513,983,o),
(570,953,qs),
(645,914,o),
(742,848,o),
(814,744,o),
(814,672,qs),
(814,582,o),
(727,460,o),
(648,438,q),
(648,1,l),
(577,1,l),
(577,71,l),
(540,109,o),
(432,130,o),
(346,132,qs),
(277,134,o),
(244,139,qs),
(142,154,o),
(92,244,qs),
(62,298,o),
(62,368,qs),
(62,442,o),
(95,516,q),
(161,487,l),
(133,427,o),
(133,368,qs),
(133,317,o),
(154,278,qs),
(187,219,o),
(255,210,q),
(276,206,o),
(348,204,qs),
(429,201,o),
(531,186,o),
(577,160,q),
(577,643,l),
(577,686,o),
(556,695,q),
(546,700,o),
(532,700,qs),
(502,700,o),
(419,664,o),
(389,640,qs),
(362,618,o),
(337,568,o),
(337,544,qs),
(337,528,o),
(343,515,qs),
(361,478,o),
(415,478,qs),
(432,478,o),
(451,482,q),
(467,413,l),
(439,407,o),
(414,407,qs),
(364,407,o),
(295,450,o),
(279,483,qs),
(265,512,o),
(265,545,qs),
(265,585,o),
(306,663,o),
(344,694,qs),
(380,724,o),
(485,771,o),
(531,771,qs),
(562,771,o),
(586,760,qs),
(648,730,o),
(648,643,qs)
);
}
);
width = 867;
}
);
unicode = 2448;
},
{
glyphname = "o-bng2";
layers = (
{
anchors = (
{
name = Anchor_5;
pos = (480,661);
},
{
name = Anchor_3;
pos = (442,652);
}
);
layerId = m000;
shapes = (
{
closed = 1;
nodes = (
(513,388,q),
(495,386,o),
(484,386,qs),
(474,386,o),
(463,387,q),
(469,459,l),
(476,458,o),
(483,458,qs),
(549,458,o),
(576,498,qs),
(589,518,o),
(589,544,qs),
(589,569,o),
(577,592,qs),
(540,661,o),
(443,665,q),
(438,665,l),
(406,665,o),
(352,631,o),
(341,603,qs),
(334,586,o),
(334,567,qs),
(334,510,o),
(391,459,q),
(343,406,l),
(304,441,o),
(263,524,o),
(263,567,qs),
(263,599,o),
(275,629,qs),
(295,678,o),
(385,737,o),
(441,737,qs),
(446,737,l),
(583,730,o),
(640,626,qs),
(661,586,o),
(661,544,qs),
(661,497,o),
(636,459,qs),
(620,436,o),
(599,420,q),
(672,360,o),
(672,274,qs),
(672,257,o),
(669,240,qs),
(657,171,o),
(542,68,o),
(453,68,qs),
(296,68,o),
(103,327,o),
(62,591,q),
(132,602,l),
(202,140,o),
(453,140,qs),
(513,140,o),
(591,207,o),
(599,253,qs),
(601,264,o),
(601,274,qs),
(601,311,o),
(555,371,o)
);
}
);
width = 725;
}
);
unicode = 2451;
},
{
glyphname = "au-bng2";
layers = (
{
anchors = (
{
name = Anchor_5;
pos = (733,819);
},
{
name = Anchor_3;
pos = (637,690);
}
);
layerId = m000;
shapes = (
{
closed = 1;
nodes = (
(599,420,q),
(672,360,o),
(672,274,qs),
(672,257,o),
(669,240,qs),
(657,171,o),
(542,68,o),
(453,68,qs),
(296,68,o),
(103,327,o),
(62,591,q),
(132,602,l),
(202,140,o),
(453,140,qs),
(513,140,o),
(591,207,o),
(599,253,qs),
(601,264,o),
(601,274,qs),
(601,311,o),
(555,371,o),
(513,388,q),
(495,386,o),
(484,386,qs),
(474,386,o),
(463,387,q),
(469,459,l),
(476,458,o),
(483,458,qs),
(549,458,o),
(576,498,qs),
(589,518,o),
(589,544,qs),
(589,569,o),
(577,592,qs),
(540,661,o),
(443,665,q),
(439,665,l),
(406,665,o),
(352,631,o),
(341,603,qs),
(334,586,o),
(334,567,qs),
(334,510,o),
(391,459,q),
(343,406,l),
(304,441,o),
(263,524,o),
(263,567,qs),
(263,599,o),
(275,629,qs),
(295,678,o),
(386,737,o),
(441,737,qs),
(446,737,l),
(583,730,o),
(640,626,qs),
(660,587,o),
(660,546,qs),
(660,528,l),
(726,572,o),
(726,672,qs),
(726,724,o),
(670,801,o),
(590,854,o),
(521,890,qs),
(444,931,o),
(369,989,o),
(362,1032,q),
(361,1041,o),
(361,1049,qs),
(361,1100,o),
(415,1157,q),
(467,1108,l),
(432,1072,o),
(432,1048,qs),
(432,1044,l),
(435,1024,o),
(497,983,o),
(554,953,qs),
(629,914,o),
(727,848,o),
(798,744,o),
(798,672,qs),
(798,577,o),
(702,452,o),
(615,434,q),
(611,430,o)
);
}
);
width = 851;
}
);
unicode = 2452;
},
{
glyphname = "ka-bng2";
layers = (
{
anchors = (
{
name = Anchor_5;
pos = (500,690);
},
{
name = Anchor_3;
pos = (423,690);
},
{
name = Anchor_6;
pos = (416,287);
},
{
name = Anchor_17;
pos = (416,314);
},
{
name = Anchor_18;
pos = (417,315);
},
{
name = Anchor_9;
pos = (418,2);
},
{
name = Anchor_10;
pos = (417,324);
},
{
name = Anchor_11;
pos = (412,302);
},
{
name = Anchor_15;
pos = (192,48);
}
);
layerId = m000;
shapes = (
{
closed = 1;
nodes = (
(417,620,l),
(417,691,l),
(-9,691,l),
(-9,763,l),
(806,763,l),
(806,691,l),
(489,691,l),
(489,631,l),
(596,627,o),
(729,498,o),
(735,416,q),
(736,409,o),
(736,402,qs),
(736,336,o),
(653,247,o),
(586,241,q),
(581,313,l),
(624,316,o),
(665,367,o),
(665,402,q),
(664,411,l),
(660,468,o),
(566,555,o),
(489,559,q),
(489,1,l),
(417,1,l),
(417,82,l),
(61,438,l),
(75,497,l)
);
},
{
closed = 1;
nodes = (
(417,183,l),
(417,544,l),
(152,449,l)
);
}
);
width = 797;
}
);
unicode = 2453;
},
{
glyphname = "kha-bng2";
layers = (
{
anchors = (
{
name = Anchor_5;
pos = (518,690);
},
{
name = Anchor_3;
pos = (518,690);
},
{
name = Anchor_6;
pos = (515,287);
},
{
name = Anchor_17;
pos = (517,314);
},
{
name = Anchor_18;
pos = (517,315);
},
{
name = Anchor_9;
pos = (516,2);
},
{
name = Anchor_10;
pos = (516,324);
},
{
name = Anchor_11;
pos = (512,302);
},
{
name = Anchor_15;
pos = (249,42);
}
);
layerId = m000;
shapes = (
{
closed = 1;
nodes = (
(516,162,l),
(516,763,l),
(676,763,l),
(676,691,l),
(588,691,l),
(588,1,l),
(516,1,l),
(516,77,l),
(115,334,l),
(146,398,l),
(159,393,o),
(175,393,qs),
(212,393,o),
(296,441,o),
(324,480,qs),
(361,530,o),
(361,588,qs),
(361,629,o),
(342,670,q),
(331,650,l),
(290,576,o),
(206,556,q),
(187,552,o),
(167,552,qs),
(104,552,o),
(53,591,q),
(97,648,l),
(128,623,o),
(167,623,qs),
(179,623,o),
(191,626,qs),
(243,638,o),
(269,684,q),
(307,758,l),
(367,762,l),
(432,679,o),
(432,587,qs),
(432,507,o),
(382,438,qs),
(326,364,o),
(246,335,q)
);
}
);
width = 667;
}
);
unicode = 2454;
},
{
glyphname = "kha-bng2.alt";
layers = (
{
anchors = (
{
name = Anchor_5;
pos = (530,690);
},
{
name = Anchor_3;
pos = (530,690);
},
{
name = Anchor_6;
pos = (527,287);
},
{
name = Anchor_17;
pos = (529,314);
},
{
name = Anchor_18;
pos = (529,315);
},
{
name = Anchor_9;
pos = (528,2);
},
{
name = Anchor_10;
pos = (528,324);
},
{
name = Anchor_11;
pos = (524,302);
},
{
name = Anchor_15;
pos = (261,42);
}
);
layerId = m000;
shapes = (
{
closed = 1;
nodes = (
(528,1,l),
(528,76,l),
(127,333,l),
(158,396,l),
(196,383,o),
(302,432,o),
(336,479,qs),
(363,517,o),
(380,618,o),
(348,678,q),
(247,546,l),
(197,540,l),
(63,638,l),
(105,696,l),
(211,618,l),
(323,761,l),
(379,761,l),
(440,683,o),
(447,511,o),
(394,437,qs),
(338,363,o),
(258,334,q),
(528,161,l),
(528,763,l),
(688,763,l),
(688,691,l),
(600,691,l),
(600,1,l)
);
}
);
width = 679;
}
);
},
{
glyphname = "ga-bng2";
layers = (
{
anchors = (
{
name = Anchor_5;
pos = (485,690);
},
{
name = Anchor_3;
pos = (485,690);
},
{
name = Anchor_6;
pos = (486,287);
},
{
name = Anchor_17;
pos = (488,314);
},
{
name = Anchor_18;
pos = (487,315);
},
{
name = Anchor_9;
pos = (488,2);
},
{
name = Anchor_10;
pos = (487,376);
},
{
name = Anchor_11;
pos = (483,332);
},
{
name = Anchor_15;
pos = (264,-14);
}
);
layerId = m000;
shapes = (
{
closed = 1;
nodes = (
(487,609,l),
(487,763,l),
(647,763,l),
(647,691,l),
(558,691,l),
(558,1,l),
(487,1,l),
(487,506,l),
(387,609,l),
(279,722,o),
(200,680,q),
(168,661,o),
(132,579,o),
(134,534,q),
(222,568,o),
(322,552,o),
(344,520,qs),
(378,472,o),
(310,308,o),
(216,212,q),
(165,262,l),
(216,314,o),
(276,405,o),
(294,467,o),
(286,479,q),
(276,492,o),
(191,483,o),
(121,451,q),
(72,473,l),
(49,550,o),
(103,706,o),
(165,741,qs),
(210,768,o),
(352,750,o),
(439,659,qs)
);
}
);
width = 638;
}
);
unicode = 2455;
},
{
glyphname = "ga-bng2.alt";
layers = (
{
anchors = (
{
name = Anchor_5;
pos = (465,692);
},
{
name = Anchor_3;
pos = (466,693);
},
{
name = Anchor_6;
pos = (465,287);
},
{
name = Anchor_17;
pos = (467,314);
},
{
name = Anchor_18;
pos = (466,312);
},
{
name = Anchor_9;
pos = (467,2);
},
{
name = Anchor_10;
pos = (466,382);
},
{
name = Anchor_11;
pos = (461,302);
},
{
name = Anchor_15;
pos = (246,-24);
}
);
layerId = m000;
shapes = (
{
closed = 1;
nodes = (
(466,607,l),
(466,763,l),
(625,763,l),
(625,691,l),
(537,691,l),
(537,1,l),
(466,1,l),
(466,503,l),
(347,627,l),
(286,690,o),
(235,690,qs),
(211,690,o),
(191,676,qs),
(165,658,o),
(134,593,o),
(134,563,qs),
(134,545,o),
(140,533,q),
(146,516,o),
(168,516,qs),
(179,516,o),
(194,520,q),
(230,531,o),
(259,531,qs),
(298,531,o),
(341,498,o),
(349,478,qs),
(356,461,o),
(356,439,qs),
(356,380,o),
(259,243,o),
(186,203,q),
(152,266,l),
(212,299,o),
(285,403,o),
(285,438,qs),
(285,445,o),
(283,451,q),
(279,460,o),
(258,460,qs),
(239,460,o),
(213,452,qs),
(189,445,o),
(166,445,qs),
(104,445,o),
(74,502,q),
(62,528,o),
(62,562,qs),
(62,611,o),
(110,708,o),
(150,735,qs),
(189,762,o),
(236,762,qs),
(317,762,o),
(398,676,qs)
);
}
);
width = 616;
}
);
},
{
glyphname = "gha-bng2";
layers = (
{
anchors = (
{
name = Anchor_5;
pos = (454,690);
},
{
name = Anchor_3;
pos = (461,690);
},
{
name = Anchor_6;
pos = (455,285);
},
{
name = Anchor_17;
pos = (456,314);
},
{
name = Anchor_18;
pos = (456,312);
},
{
name = Anchor_9;
pos = (454,2);
},
{
name = Anchor_10;
pos = (456,324);
},
{
name = Anchor_11;
pos = (451,302);
}
);
layerId = m000;
shapes = (
{
closed = 1;
nodes = (
(456,1,l),
(456,77,l),
(91,323,l),
(91,382,l),
(224,472,l),
(145,490,o),
(100,543,qs),
(43,611,o),
(79,691,q),
(-9,691,l),
(-9,763,l),
(615,763,l),
(615,691,l),
(527,691,l),
(527,1,l)
);
},
{
closed = 1;
nodes = (
(456,691,l),
(162,691,l),
(115,634,o),
(154,589,q),
(189,552,o),
(304,529,o),
(342,552,q),
(382,493,l),
(175,353,l),
(456,163,l)
);
}
);
width = 606;
}
);
unicode = 2456;
},
{
glyphname = "nga-bng2";
layers = (
{
anchors = (
{
name = Anchor_5;
pos = (475,690);
},
{
name = Anchor_3;
pos = (528,690);
},
{
name = Anchor_6;
pos = (472,216);
},
{
name = Anchor_17;
pos = (404,247);
},
{
name = Anchor_18;
pos = (412,260);
},
{
name = Anchor_9;
pos = (416,7);
},
{
name = Anchor_10;
pos = (525,254);
},
{
name = Anchor_11;
pos = (534,212);
},
{
name = Anchor_12;
pos = (250,-21);
},
{
name = Anchor_13;
pos = (255,-30);
},
{
name = Anchor_14;
pos = (260,0);
}
);
layerId = m000;
shapes = (
{
closed = 1;
nodes = (
(361,580,q),
(404,567,o),
(444,567,qs),
(496,567,o),
(532,588,qs),
(567,608,o),
(567,637,qs),
(567,649,o),
(561,662,qs),
(554,678,o),
(518,697,o),
(494,697,qs),
(487,697,o),
(479,696,qs),
(442,691,o),
(377,633,o)
);
},
{
closed = 1;
nodes = (
(445,10,qs),
(353,10,o),
(184,120,o),
(73,346,o),
(68,510,q),
(139,511,l),
(144,371,o),
(234,177,o),
(371,81,o),
(445,81,qs),
(501,81,o),
(567,133,o),
(582,171,q),
(600,212,o),
(600,261,qs),
(600,308,o),
(584,347,q),
(518,270,o),
(450,257,qs),
(438,255,o),
(426,255,qs),
(379,255,o),
(339,286,qs),
(275,337,o),
(275,465,qs),
(275,498,o),
(279,533,q),
(152,592,o),
(62,718,q),
(120,760,l),
(194,657,o),
(294,606,q),
(318,678,o),
(414,759,o),
(469,767,qs),
(482,769,o),
(496,769,qs),
(540,769,o),
(611,727,o),
(627,691,q),
(638,664,o),
(638,638,qs),
(638,604,o),
(602,545,o),
(567,525,qs),
(517,497,o),
(443,497,qs),
(396,497,o),
(348,510,q),
(346,487,o),
(346,466,qs),
(346,372,o),
(383,342,qs),
(404,326,o),
(425,326,qs),
(431,326,o),
(438,327,q),
(471,333,o),
(538,400,o),
(555,429,q),
(611,435,l),
(640,406,o),
(671,313,o),
(671,261,qs),
(671,197,o),
(648,144,qs),
(621,79,o),
(516,10,o)
);
}
);
width = 733;
}
);
unicode = 2457;
},
{
glyphname = "ca-bng2";
layers = (
{
anchors = (
{
name = Anchor_5;
pos = (366,690);
},
{
name = Anchor_3;
pos = (314,690);
},
{
name = Anchor_6;
pos = (255,247);
},
{
name = Anchor_17;
pos = (518,314);
},
{
name = Anchor_18;
pos = (517,315);
},
{
name = Anchor_9;
pos = (516,2);
},
{
name = Anchor_10;
pos = (344,313);
},
{
name = Anchor_11;
pos = (323,252);
},
{
name = Anchor_12;
pos = (76,-21);
},
{
name = Anchor_13;
pos = (76,-21);
},
{
name = Anchor_14;
pos = (71,0);
}
);
layerId = m000;
shapes = (
{
closed = 1;
nodes = (
(151,518,q),
(151,175,l),
(151,138,o),
(168,120,qs),
(183,105,o),
(211,105,qs),
(253,105,o),
(358,176,o),
(438,310,o),
(445,400,q),
(372,413,o),
(208,470,o)
);
},
{
closed = 1;
nodes = (
(80,175,qs),
(80,361,o),
(79,691,q),
(-9,691,l),
(-9,763,l),
(587,763,l),
(587,691,l),
(151,691,l),
(151,653,l),
(155,598,o),
(274,518,o),
(426,473,o),
(486,466,q),
(517,430,l),
(517,314,o),
(421,133,o),
(277,34,o),
(211,34,qs),
(153,34,o),
(117,71,qs),
(80,109,o)
);
}
);
width = 578;
}
);
unicode = 2458;
},
{
glyphname = "cha-bng2";
layers = (
{
anchors = (
{
name = Anchor_5;
pos = (337,690);
},
{
name = Anchor_3;
pos = (304,690);
},
{
name = Anchor_6;
pos = (254,305);
},
{
name = Anchor_17;
pos = (222,311);
},
{
name = Anchor_18;
pos = (210,365);
},
{
name = Anchor_9;
pos = (223,2);
},
{
name = Anchor_10;
pos = (326,245);
},
{
name = Anchor_11;
pos = (315,212);
},
{
name = Anchor_12;
pos = (68,4);
},
{
name = Anchor_13;
pos = (53,42);
},
{
name = Anchor_14;
pos = (111,39);
},
{
name = Anchor_15;
pos = (204,-45);
}
);
layerId = m000;
shapes = (
{
closed = 1;
nodes = (
(134,591,q),
(134,471,l),
(134,431,o),
(146,414,q),
(154,404,o),
(168,404,qs),
(197,404,o),
(277,484,o),
(287,541,q),
(246,548,o),
(166,572,o)
);
},
{
closed = 1;
nodes = (
(62,471,qs),
(62,554,o),
(61,691,q),
(-9,691,l),
(-9,763,l),
(582,763,l),
(582,691,l),
(133,691,l),
(136,664,o),
(249,618,o),
(316,609,q),
(326,609,l),
(387,609,o),
(435,575,q),
(513,514,o),
(513,419,qs),
(513,344,o),
(449,283,qs),
(375,216,o),
(250,197,q),
(337,147,o),
(464,51,o),
(545,-14,q),
(499,-69,l),
(407,9,o),
(154,180,o),
(82,192,q),
(90,263,l),
(119,261,o),
(147,261,qs),
(230,261,o),
(361,300,o),
(400,336,qs),
(442,374,o),
(442,419,qs),
(442,480,o),
(394,517,q),
(377,529,o),
(358,534,q),
(345,451,o),
(226,333,o),
(166,333,qs),
(118,333,o),
(89,371,qs),
(62,407,o)
);
}
);
width = 573;
}
);
unicode = 2459;
},
{
glyphname = "ja-bng2";
layers = (
{
anchors = (
{
name = Anchor_5;
pos = (495,690);
},
{
name = Anchor_3;
pos = (485,690);
},
{
name = Anchor_6;
pos = (640,312);
},
{
name = Anchor_17;
pos = (389,339);
},
{
name = Anchor_18;
pos = (381,347);
},
{
name = Anchor_9;
pos = (480,2);
},
{
name = Anchor_10;
pos = (701,217);
},
{
name = Anchor_11;
pos = (662,209);
},
{
name = Anchor_12;
pos = (506,99);
},
{
name = Anchor_13;
pos = (576,56);
},
{
name = Anchor_14;
pos = (506,-31);
},
{
name = Anchor_15;
pos = (374,-99);
}
);
layerId = m000;
shapes = (
{
closed = 1;
nodes = (
(248,460,l),
(402,691,l),
(-9,691,l),
(-9,763,l),
(874,763,l),
(874,691,l),
(509,691,l),
(525,641,o),
(645,558,o),
(775,554,q),
(803,498,l),
(783,468,o),
(719,307,o),
(719,210,qs),
(719,110,o),
(765,28,q),
(702,-6,l),
(647,93,o),
(647,212,qs),
(647,348,o),
(715,487,q),
(605,500,o),
(481,585,o),
(454,641,q),
(345,476,l),
(366,476,l),
(420,476,o),
(513,422,o),
(539,374,qs),
(564,330,o),
(564,282,qs),
(564,231,o),
(537,188,qs),
(489,109,o),
(395,107,qs),
(392,107,l),
(310,107,o),
(165,207,o),
(68,432,o),
(61,607,q),
(133,609,l),
(138,459,o),
(214,266,o),
(328,179,o),
(391,179,qs),
(394,179,l),
(449,179,o),
(477,225,qs),
(493,252,o),
(493,282,qs),
(493,311,o),
(477,339,qs),
(460,369,o),
(400,405,o),
(366,405,qs),
(278,405,l)
);
}
);
width = 865;
}
);
unicode = 2460;
},
{
glyphname = "ja-bng2.alt";
layers = (
{
anchors = (
{
name = Anchor_5;
pos = (500,684);
},
{
name = Anchor_3;
pos = (484,692);
},
{
name = Anchor_6;
pos = (654,291);
},
{
name = Anchor_17;
pos = (664,271);
},
{
name = Anchor_18;
pos = (660,290);
},
{
name = Anchor_9;
pos = (445,2);
},
{
name = Anchor_10;
pos = (701,238);
},
{
name = Anchor_11;
pos = (666,209);
},
{
name = Anchor_12;
pos = (520,95);
},
{
name = Anchor_13;
pos = (578,59);
},
{
name = Anchor_14;
pos = (506,-33);
},
{
name = Anchor_15;
pos = (400,-57);
}
);
layerId = m000;
shapes = (
{
closed = 1;
nodes = (
(240,504,l),
(246,610,o),
(341,691,q),
(-9,691,l),
(-9,763,l),
(874,763,l),
(874,691,l),
(510,691,l),
(526,641,o),
(647,560,o),
(775,555,q),
(803,500,l),
(783,470,o),
(719,308,o),
(719,212,qs),
(719,112,o),
(765,30,q),
(702,-5,l),
(647,94,o),
(647,212,qs),
(647,348,o),
(715,488,q),
(587,503,o),
(461,611,o),
(442,674,q),
(377,638,o),
(314,545,o),
(311,502,q),
(311,499,l),
(311,473,o),
(331,433,o),
(348,423,q),
(364,415,o),
(380,415,qs),
(408,415,o),
(452,451,o),
(459,462,q),
(515,466,l),
(541,436,o),
(569,354,o),
(569,310,qs),
(569,257,o),
(550,212,q),
(504,112,o),
(395,108,q),
(390,108,l),
(309,108,o),
(165,210,o),
(68,434,o),
(61,608,q),
(133,611,l),
(138,460,o),
(215,266,o),
(329,180,o),
(393,180,qs),
(394,180,l),
(457,181,o),
(485,241,q),
(498,272,o),
(498,309,qs),
(498,350,o),
(483,384,q),
(434,343,o),
(380,343,qs),
(347,343,o),
(315,360,qs),
(280,379,o),
(240,452,o),
(240,496,qs)
);
}
);
width = 866;
}
);
},
{
glyphname = "jha-bng2";
layers = (
{
anchors = (
{
name = Anchor_5;
pos = (419,695);
},
{
name = Anchor_3;
pos = (429,690);
},
{
name = Anchor_6;
pos = (416,287);
},
{
name = Anchor_17;
pos = (417,314);
},
{
name = Anchor_18;
pos = (417,315);
},
{
name = Anchor_9;
pos = (416,2);
},
{
name = Anchor_10;
pos = (417,324);
},
{
name = Anchor_11;
pos = (413,302);
}
);
layerId = m000;
shapes = (
{
closed = 1;
nodes = (
(643,256,l),
(643,691,l),
(642,691,l),
(642,763,l),
(803,763,l),
(803,691,l),
(714,691,l),
(714,185,l),
(716,183,l),
(714,182,l),
(714,72,l),
(643,72,l),
(643,155,l),
(488,310,l),
(488,1,l),
(417,1,l),
(417,83,l),
(61,439,l),
(74,498,l),
(417,620,l),
(417,691,l),
(-9,691,l),
(-9,763,l),
(488,763,l),
(488,411,l)
);
},
{
closed = 1;
nodes = (
(151,449,l),
(417,184,l),
(417,545,l)
);
}
);
width = 794;
}
);
unicode = 2461;
},
{
glyphname = "nya-bng2";
layers = (
{
anchors = (
{
name = Anchor_5;
pos = (533,690);
},
{
name = Anchor_3;
pos = (529,690);
},
{
name = Anchor_6;
pos = (532,287);
},
{
name = Anchor_17;
pos = (533,314);
},
{
name = Anchor_18;
pos = (532,315);
},
{
name = Anchor_9;
pos = (534,2);
},
{
name = Anchor_10;
pos = (533,324);
},
{
name = Anchor_11;
pos = (528,232);
}
);
layerId = m000;
shapes = (
{
closed = 1;
nodes = (
(599,634,qs),
(599,586,l),
(647,649,o),
(704,670,qs),
(732,680,o),
(760,680,qs),
(791,680,o),
(818,667,qs),
(854,649,o),
(897,576,o),
(897,532,qs),
(897,514,o),
(893,496,qs),
(878,431,o),
(816,392,q),
(883,342,o),
(894,269,qs),
(896,255,o),
(896,241,qs),
(896,192,o),
(846,118,o),
(805,104,q),
(783,98,o),
(766,98,qs),
(726,98,o),
(640,143,o),
(603,186,q),
(605,2,l),
(534,1,l),
(533,71,l),
(499,110,o),
(406,131,o),
(325,135,q),
(269,136,o),
(232,142,qs),
(142,158,o),
(94,239,q),
(62,298,o),
(62,374,qs),
(62,446,o),
(91,518,q),
(157,492,l),
(133,433,o),
(133,375,qs),
(133,318,o),
(157,275,qs),
(188,221,o),
(243,212,qs),
(277,207,o),
(328,206,qs),
(396,203,o),
(490,188,o),
(532,164,q),
(527,633,l),
(527,679,o),
(507,688,q),
(500,692,o),
(489,692,qs),
(463,692,o),
(390,657,o),
(364,634,qs),
(316,591,o),
(316,540,qs),
(316,520,o),
(325,503,qs),
(342,471,o),
(386,471,qs),
(401,471,o),
(417,475,q),
(433,406,l),
(409,400,o),
(386,400,qs),
(344,400,o),
(280,436,o),
(262,470,qs),
(245,501,o),
(245,538,qs),
(245,578,o),
(282,656,o),
(316,687,qs),
(349,716,o),
(445,763,o),
(489,763,qs),
(515,763,o),
(535,753,q),
(599,727,o)
);
},
{
closed = 1;
nodes = (
(601,445,q),
(602,329,l),
(630,255,o),
(725,169,o),
(765,169,qs),
(774,169,o),
(782,172,q),
(803,179,o),
(824,218,o),
(824,242,qs),
(824,251,o),
(823,259,q),
(816,300,o),
(747,359,o),
(684,359,q),
(684,430,l),
(741,430,o),
(814,473,o),
(822,511,q),
(825,522,o),
(825,533,qs),
(825,556,o),
(804,595,o),
(786,603,q),
(774,609,o),
(760,609,qs),
(745,609,o),
(730,603,qs),
(701,592,o),
(633,520,o)
);
}
);
width = 959;
}
);
unicode = 2462;
},
{
glyphname = "tta-bng2";
layers = (
{
anchors = (
{
name = Anchor_4;
pos = (379,624);
},
{
name = Anchor_5;
pos = (410,781);
},
{
name = Anchor_6;
pos = (226,255);
},
{
name = Anchor_17;
pos = (182,264);
},
{
name = Anchor_18;
pos = (271,322);
},
{
name = Anchor_9;
pos = (227,2);
},
{
name = Anchor_10;
pos = (311,303);
},
{
name = Anchor_11;
pos = (304,259);
},
{
name = Anchor_12;
pos = (56,-21);
},
{
name = Anchor_13;
pos = (76,-21);
},
{
name = Anchor_14;
pos = (38,14);
}
);
layerId = m000;
shapes = (
{
closed = 1;
nodes = (
(-8,763,l),
(430,763,l),
(432,782,o),
(432,799,qs),
(432,851,o),
(411,870,qs),
(391,888,o),
(343,888,qs),
(278,888,o),
(164,855,qs),
(126,843,o),
(92,843,qs),
(30,843,o),
(-5,879,q),
(-33,910,o),
(-33,953,qs),
(-33,978,o),
(-23,1005,q),
(44,982,l),
(38,966,o),
(38,954,qs),
(38,938,o),
(47,929,qs),
(61,915,o),
(93,915,qs),
(117,915,o),
(145,922,q),
(208,941,o),
(306,959,o),
(344,959,qs),
(418,959,o),
(459,923,qs),
(504,883,o),
(504,798,qs),
(504,782,o),
(503,763,q),
(575,763,l),
(575,691,l),
(151,691,l),
(151,182,l),
(151,120,o),
(176,110,qs),
(181,108,o),
(188,108,qs),
(217,108,o),
(308,163,o),
(350,210,qs),
(390,256,o),
(433,344,o),
(433,381,qs),
(433,406,o),
(422,427,q),
(399,463,o),
(368,463,qs),
(364,463,o),
(360,462,q),
(325,457,o),
(315,408,q),
(245,422,l),
(268,517,o),
(350,533,q),
(358,534,o),
(367,534,qs),
(403,534,o),
(466,494,o),
(484,460,qs),
(504,424,o),
(504,379,qs),
(504,277,o),
(403,162,qs),
(355,108,o),
(239,37,o),
(189,37,qs),
(166,37,o),
(150,44,q),
(121,55,o),
(80,120,o),
(80,182,qs),
(80,691,l),
(-8,691,l)
);
}
);
width = 566;
}
);
unicode = 2463;
},
{
glyphname = "ttha-bng2";
layers = (
{
anchors = (
{
name = Anchor_4;
pos = (311,581);
},
{
name = Anchor_5;
pos = (160,777);
},
{
name = Anchor_6;
pos = (276,216);
},
{
name = Anchor_17;
pos = (214,260);
},
{
name = Anchor_18;
pos = (231,301);
},
{
name = Anchor_9;
pos = (298,2);
},
{
name = Anchor_10;
pos = (386,299);
},
{
name = Anchor_11;
pos = (362,238);
},
{
name = Anchor_12;
pos = (100,-21);
},
{
name = Anchor_13;
pos = (110,-21);
},
{
name = Anchor_14;
pos = (119,19);
}
);
layerId = m000;
shapes = (
{
closed = 1;
nodes = (
(133,323,q),
(138,226,o),
(195,158,qs),
(237,110,o),
(288,110,qs),
(290,110,l),
(385,111,o),
(417,209,qs),
(430,250,o),
(430,302,qs),
(430,367,o),
(388,510,o),
(348,572,q),
(349,558,o),
(349,544,qs),
(349,488,o),
(317,389,o),
(286,357,qs),
(270,340,o),
(220,313,o),
(187,313,qs),
(161,313,o)
);
},
{
closed = 1;
nodes = (
(210,898,qs),
(210,834,o),
(270,763,q),
(572,763,l),
(572,691,l),
(345,691,l),
(420,612,o),
(502,402,o),
(502,302,qs),
(502,238,o),
(485,187,qs),
(462,117,o),
(361,39,o),
(291,39,qs),
(288,39,l),
(248,39,o),
(172,76,o),
(141,111,qs),
(103,154,o),
(61,275,o),
(61,338,qs),
(61,362,o),
(64,385,q),
(119,409,l),
(158,385,o),
(188,385,qs),
(213,385,o),
(235,406,q),
(255,427,o),
(277,502,o),
(277,545,qs),
(277,631,o),
(238,691,q),
(-9,691,l),
(-9,763,l),
(182,763,l),
(139,831,o),
(139,899,qs),
(139,953,o),
(166,993,qs),
(187,1024,o),
(252,1058,o),
(289,1058,qs),
(322,1058,o),
(354,1045,q),
(327,979,l),
(308,986,o),
(289,986,qs),
(247,986,o),
(225,953,qs),
(210,930,o)
);
}
);
width = 563;
}
);
unicode = 2464;
},
{
glyphname = "dda-bng2";
layers = (
{
anchors = (
{
name = Anchor_1;
pos = (204,-97);
},
{
name = Anchor_5;
pos = (397,690);
},
{
name = Anchor_3;
pos = (365,690);
},
{
name = Anchor_6;
pos = (419,287);
},
{
name = Anchor_17;
pos = (368,260);
},
{
name = Anchor_18;
pos = (363,315);
},
{
name = Anchor_9;
pos = (380,2);
},
{
name = Anchor_10;
pos = (515,306);
},
{
name = Anchor_11;
pos = (515,266);
},
{
name = Anchor_12;
pos = (234,9);
},
{
name = Anchor_13;
pos = (252,14);
},
{
name = Anchor_14;
pos = (242,43);
}
);
layerId = m000;
shapes = (
{
closed = 1;
nodes = (
(318,374,l),
(318,691,l),
(-9,691,l),
(-9,763,l),
(745,763,l),
(745,691,l),
(391,691,l),
(391,408,l),
(436,410,o),
(504,477,o),
(544,557,o),
(545,561,q),
(603,574,l),
(635,542,o),
(675,423,o),
(675,356,qs),
(675,287,o),
(653,228,qs),
(595,77,o),
(433,60,q),
(422,60,o),
(411,59,q),
(315,59,o),
(237,129,qs),
(77,275,o),
(61,607,q),
(133,611,l),
(139,465,o),
(218,241,o),
(284,182,qs),
(343,131,o),
(411,131,qs),
(427,131,l),
(546,142,o),
(586,253,qs),
(603,298,o),
(603,355,qs),
(603,420,o),
(582,474,q),
(549,415,o),
(449,336,o),
(386,336,qs),
(367,336,o),
(347,340,q)
);
}
);
width = 736;
}
);
unicode = 2465;
},
{
glyphname = "ddha-bng2";
layers = (
{
anchors = (
{
name = Anchor_1;
pos = (541,-92);
},
{
name = Anchor_5;
pos = (377,690);
},
{
name = Anchor_3;
pos = (345,690);
},
{
name = Anchor_6;
pos = (251,241);
},
{
name = Anchor_17;
pos = (229,253);
},
{
name = Anchor_18;
pos = (263,283);
},
{
name = Anchor_9;
pos = (255,2);
},
{
name = Anchor_10;
pos = (322,288);
},
{
name = Anchor_11;
pos = (304,241);
},
{
name = Anchor_12;
pos = (105,-21);
},
{
name = Anchor_13;
pos = (105,-21);
},
{
name = Anchor_14;
pos = (86,19);
}
);
layerId = m000;
shapes = (
{
closed = 1;
nodes = (
(106,182,qs),
(106,691,l),
(-9,691,l),
(-9,763,l),
(601,763,l),
(601,691,l),
(178,691,l),
(178,182,l),
(178,120,o),
(202,110,qs),
(207,108,o),
(215,108,qs),
(243,108,o),
(335,163,o),
(376,210,qs),
(417,255,o),
(460,343,o),
(460,380,qs),
(460,406,o),
(449,427,q),
(426,463,o),
(394,463,qs),
(391,463,o),
(387,462,q),
(352,457,o),
(342,408,q),
(273,422,l),
(294,517,o),
(376,533,q),
(385,534,o),
(394,534,qs),
(429,534,o),
(493,494,o),
(511,460,qs),
(531,424,o),
(531,379,qs),
(531,277,o),
(429,162,qs),
(382,108,o),
(266,37,o),
(215,37,qs),
(193,37,o),
(178,44,q),
(148,55,o),
(106,120,o)
);
}
);
width = 592;
}
);
unicode = 2466;
},
{
glyphname = "nna-bng2";
layers = (
{
anchors = (
{
name = Anchor_5;
pos = (441,690);
},
{
name = Anchor_3;
pos = (441,690);
},
{
name = Anchor_6;
pos = (442,287);
},
{
name = Anchor_17;
pos = (443,314);
},
{
name = Anchor_18;
pos = (443,315);
},
{
name = Anchor_9;
pos = (442,2);
},
{
name = Anchor_10;
pos = (442,492);
},
{
name = Anchor_11;
pos = (438,440);
}
);
layerId = m000;
shapes = (
{
closed = 1;
nodes = (
(442,627,l),
(442,763,l),
(602,763,l),
(602,691,l),
(514,691,l),
(514,1,l),
(442,1,l),
(442,525,l),
(323,647,l),
(269,704,o),
(225,704,qs),
(216,704,o),
(207,701,q),
(181,694,o),
(142,632,o),
(136,591,q),
(133,574,o),
(133,557,qs),
(133,519,o),
(160,466,o),
(180,452,q),
(197,441,o),
(218,441,qs),
(242,441,o),
(265,456,q),
(303,395,l),
(261,370,o),
(218,370,qs),
(177,370,o),
(140,393,qs),
(103,417,o),
(62,504,o),
(62,558,qs),
(62,580,o),
(66,602,q),
(75,665,o),
(139,755,o),
(185,769,qs),
(205,775,o),
(226,775,qs),
(300,775,o),
(375,696,qs)
);
}
);
width = 593;
}
);
unicode = 2467;
},
{
glyphname = "ta-bng2";
layers = (
{
anchors = (
{
name = Anchor_5;
pos = (473,690);
},
{
name = Anchor_3;
pos = (433,690);
},
{
name = Anchor_6;
pos = (397,266);
},
{
name = Anchor_17;
pos = (518,314);
},
{
name = Anchor_18;
pos = (517,315);
},
{
name = Anchor_9;
pos = (409,2);
},
{
name = Anchor_10;
pos = (522,303);
},
{
name = Anchor_11;
pos = (533,259);
},
{
name = Anchor_12;
pos = (214,8);
},
{
name = Anchor_13;
pos = (224,14);
},
{
name = Anchor_14;
pos = (238,14);
},
{
name = Anchor_15;
pos = (451,-103);
}
);
layerId = m000;
shapes = (
{
closed = 1;
nodes = (
(746,691,l),
(-9,691,l),
(-9,763,l),
(746,763,l)
);
},
{
closed = 1;
nodes = (
(434,59,q),
(333,59,o),
(245,136,qs),
(164,208,o),
(67,455,o),
(61,607,q),
(133,611,l),
(138,472,o),
(222,251,o),
(293,189,qs),
(359,131,o),
(435,131,qs),
(450,131,l),
(540,139,o),
(579,220,qs),
(604,272,o),
(604,344,qs),
(604,389,o),
(584,472,o),
(568,496,qs),
(518,569,o),
(456,569,q),
(407,567,o),
(380,522,q),
(368,500,o),
(368,472,qs),
(368,449,o),
(376,428,q),
(394,386,o),
(442,375,q),
(425,305,l),
(344,326,o),
(310,400,q),
(296,434,o),
(296,472,qs),
(296,519,o),
(318,558,q),
(366,635,o),
(453,642,q),
(457,642,l),
(495,642,o),
(586,596,o),
(627,535,qs),
(649,503,o),
(675,401,o),
(675,345,qs),
(675,256,o),
(643,189,qs),
(587,73,o),
(457,60,q),
(445,60,o)
);
}
);
width = 737;
}
);
unicode = 2468;
},
{
glyphname = "tha-bng2";
layers = (
{
anchors = (
{
name = Anchor_5;
pos = (461,690);
},
{
name = Anchor_3;
pos = (465,690);
},
{
name = Anchor_6;
pos = (462,287);
},
{
name = Anchor_17;
pos = (464,314);
},
{
name = Anchor_18;
pos = (464,315);
},
{
name = Anchor_9;
pos = (461,2);
},
{
name = Anchor_10;
pos = (462,324);
},
{
name = Anchor_11;
pos = (458,302);
},
{
name = Anchor_15;
pos = (251,-24);
}
);
layerId = m000;
shapes = (
{
closed = 1;
nodes = (
(463,165,l),
(463,763,l),
(623,763,l),
(623,691,l),
(535,691,l),
(535,1,l),
(463,1,l),
(463,79,l),
(88,335,l),
(102,400,l),
(189,416,o),
(308,527,o),
(308,591,qs),
(308,598,o),
(307,606,qs),
(297,692,o),
(204,692,qs),
(182,692,o),
(141,665,o),
(131,644,q),
(125,630,o),
(125,615,qs),
(125,585,o),
(149,555,q),
(94,510,l),
(53,559,o),
(53,614,qs),
(53,645,o),
(66,674,qs),
(85,714,o),
(161,763,o),
(204,763,qs),
(205,763,l),
(277,763,o),
(369,684,o),
(378,614,q),
(380,602,o),
(380,589,qs),
(380,516,o),
(276,386,o),
(191,351,q)
);
}
);
width = 614;
}
);
unicode = 2469;
},
{
glyphname = "da-bng2";
layers = (
{
anchors = (
{
name = Anchor_5;
pos = (373,690);
},
{
name = Anchor_3;
pos = (325,690);
},
{
name = Anchor_6;
pos = (421,281);
},
{
name = Anchor_17;
pos = (518,314);
},
{
name = Anchor_18;
pos = (517,315);
},
{
name = Anchor_9;
pos = (434,2);
},
{
name = Anchor_10;
pos = (401,370);
},
{
name = Anchor_11;
pos = (401,313);
},
{
name = Anchor_12;
pos = (238,100);
},
{
name = Anchor_13;
pos = (325,44);
},
{
name = Anchor_14;
pos = (254,-47);
},
{
name = Anchor_15;
pos = (146,19);
}
);
layerId = m000;
shapes = (
{
closed = 1;
nodes = (
(82,250,l),
(82,691,l),
(-9,691,l),
(-9,763,l),
(585,763,l),
(585,691,l),
(153,691,l),
(153,328,l),
(457,591,l),
(515,555,l),
(472,384,o),
(472,243,qs),
(472,105,o),
(513,15,q),
(448,-14,l),
(400,91,o),
(400,246,qs),
(400,350,o),
(421,467,q),
(141,224,l)
);
}
);
width = 576;
}
);
unicode = 2470;
},
{
glyphname = "dha-bng2";
layers = (
{
anchors = (
{
name = Anchor_5;
pos = (429,690);
},
{
name = Anchor_3;
pos = (429,690);
},
{
name = Anchor_6;
pos = (425,287);
},
{
name = Anchor_17;
pos = (427,314);
},
{
name = Anchor_18;
pos = (426,314);
},
{
name = Anchor_9;
pos = (425,2);
},
{
name = Anchor_10;
pos = (426,324);
},
{
name = Anchor_11;
pos = (422,302);
}
);
layerId = m000;
shapes = (
{
closed = 1;
nodes = (
(426,582,l),
(426,763,l),
(586,763,l),
(586,691,l),
(497,691,l),
(497,1,l),
(426,1,l),
(426,79,l),
(74,336,l),
(79,396,l),
(217,470,l),
(158,499,o),
(70,582,o),
(63,636,qs),
(62,644,o),
(62,652,qs),
(62,691,o),
(105,755,o),
(142,770,qs),
(165,779,o),
(191,779,qs),
(227,779,o),
(300,740,o),
(330,697,q),
(272,655,l),
(233,708,o),
(191,708,qs),
(179,708,o),
(169,703,q),
(154,697,o),
(134,671,o),
(134,653,qs),
(134,645,l),
(139,603,o),
(243,533,o),
(298,513,q)
);
},
{
closed = 1;
nodes = (
(426,168,l),
(426,501,l),
(162,360,l)
);
}
);
width = 577;
}
);
unicode = 2471;
},
{
glyphname = "na-bng2";
layers = (
{
anchors = (
{
name = Anchor_5;
pos = (441,690);
},
{
name = Anchor_3;
pos = (445,690);
},
{
name = Anchor_6;
pos = (441,287);
},
{
name = Anchor_17;
pos = (442,314);
},
{
name = Anchor_18;
pos = (442,315);
},
{
name = Anchor_9;
pos = (442,2);
},
{
name = Anchor_10;
pos = (441,332);
},
{
name = Anchor_11;
pos = (437,302);
},
{
name = Anchor_15;
pos = (257,-14);
}
);
layerId = m000;
shapes = (
{
closed = 1;
nodes = (
(442,445,l),
(442,691,l),
(-18,691,l),
(-18,763,l),
(601,763,l),
(601,691,l),
(513,691,l),
(513,1,l),
(442,1,l),
(442,343,l),
(323,465,l),
(268,522,o),
(225,522,qs),
(215,522,o),
(206,519,q),
(151,498,o),
(135,409,qs),
(132,392,o),
(132,375,qs),
(132,337,o),
(159,284,o),
(178,271,qs),
(196,259,o),
(218,259,qs),
(241,259,o),
(264,274,q),
(302,213,l),
(261,188,o),
(217,188,qs),
(175,188,o),
(140,211,qs),
(102,235,o),
(61,322,o),
(61,376,qs),
(61,398,o),
(65,420,q),
(74,483,o),
(139,572,o),
(184,587,q),
(204,593,o),
(225,593,qs),
(300,593,o),
(374,515,qs)
);
}
);
width = 591;
}
);
unicode = 2472;
},
{
glyphname = "na-bng2.alt";
layers = (
{
anchors = (
{
name = Anchor_5;
pos = (469,690);
},
{
name = Anchor_3;
pos = (469,693);
},
{
name = Anchor_6;
pos = (466,287);
},
{
name = Anchor_17;
pos = (468,314);
},
{
name = Anchor_18;
pos = (467,315);
},
{
name = Anchor_9;
pos = (467,2);
},
{
name = Anchor_10;
pos = (467,324);
},
{
name = Anchor_11;
pos = (463,302);
},
{
name = Anchor_15;
pos = (248,-7);
}
);
layerId = m000;
shapes = (
{
closed = 1;
nodes = (
(467,405,q),
(467,691,l),
(-18,691,l),
(-18,763,l),
(626,763,l),
(626,691,l),
(538,691,l),
(538,1,l),
(467,1,l),
(467,228,l),
(453,286,o),
(386,418,o),
(287,511,o),
(230,511,qs),
(220,511,o),
(211,510,q),
(176,503,o),
(136,433,o),
(136,389,qs),
(136,357,o),
(160,301,o),
(183,287,q),
(198,276,o),
(220,276,qs),
(240,276,o),
(263,285,q),
(290,219,l),
(253,202,o),
(218,202,qs),
(150,202,o),
(61,319,o),
(61,392,qs),
(61,442,o),
(82,485,q),
(100,532,o),
(186,584,o),
(237,584,qs),
(292,584,o),
(335,555,qs),
(417,498,o)
);
}
);
width = 617;
}
);
},
{
glyphname = "pa-bng2";
layers = (
{
anchors = (
{
name = Anchor_5;
pos = (525,690);
},
{
name = Anchor_3;
pos = (525,690);
},
{
name = Anchor_6;
pos = (527,287);
},
{
name = Anchor_17;
pos = (529,314);
},
{
name = Anchor_18;
pos = (528,315);
},
{
name = Anchor_9;
pos = (527,2);
},
{
name = Anchor_10;
pos = (528,380);
},
{
name = Anchor_11;
pos = (523,380);
}
);
layerId = m000;
shapes = (
{
closed = 1;
nodes = (
(528,508,l),
(465,572,l),
(253,271,l),
(195,312,l),
(275,425,l),
(274,426,o),
(273,427,q),
(229,486,o),
(156,534,o),
(107,515,q),
(62,564,l),
(90,617,o),
(208,753,o),
(287,764,qs),
(369,775,o),
(438,702,qs),
(528,610,l),
(528,763,l),
(687,763,l),
(687,691,l),
(599,691,l),
(599,1,l),
(528,1,l)
);
},
{
closed = 1;
nodes = (
(317,486,q),
(414,624,l),
(386,652,l),
(342,699,o),
(297,693,qs),
(236,685,o),
(167,595,q),
(211,590,o),
(279,534,o)
);
}
);
width = 678;
}
);
unicode = 2474;
},
{
glyphname = "pa-bng2.alt";
layers = (
{
anchors = (
{
name = Anchor_5;
pos = (525,690);
},
{
name = Anchor_3;
pos = (525,690);
},
{
name = Anchor_6;
pos = (527,287);
},
{
name = Anchor_17;
pos = (529,314);
},
{
name = Anchor_18;
pos = (528,315);
},
{
name = Anchor_9;
pos = (527,2);
},
{
name = Anchor_10;
pos = (528,380);
},
{
name = Anchor_11;
pos = (523,380);
}
);
layerId = m000;
shapes = (
{
closed = 1;
nodes = (
(168,598,q),
(247,596,o),
(288,538,qs),
(309,507,o),
(315,469,q),
(426,613,l),
(386,654,l),
(347,695,o),
(308,695,qs),
(302,695,o),
(296,694,q),
(235,687,o)
);
},
{
closed = 1;
nodes = (
(528,612,l),
(528,763,l),
(687,763,l),
(687,691,l),
(599,691,l),
(599,1,l),
(528,1,l),
(528,510,l),
(476,562,l),
(252,271,l),
(196,314,l),
(245,380,o),
(245,441,qs),
(245,475,o),
(230,496,qs),
(209,526,o),
(163,526,qs),
(136,526,o),
(105,516,q),
(62,566,l),
(89,618,o),
(207,755,o),
(286,766,q),
(297,767,o),
(307,767,qs),
(378,767,o),
(438,704,qs)
);
}
);
width = 678;
}
);
},
{
glyphname = "pha-bng2";
layers = (
{
anchors = (
{
name = Anchor_5;
pos = (482,690);
},
{
name = Anchor_3;
pos = (421,690);
},
{
name = Anchor_6;
pos = (417,287);
},
{
name = Anchor_17;
pos = (419,314);
},
{
name = Anchor_18;
pos = (418,315);
},
{
name = Anchor_9;
pos = (419,2);
},
{
name = Anchor_10;
pos = (418,324);
},
{
name = Anchor_11;
pos = (414,302);
},
{
name = Anchor_15;
pos = (189,37);
}
);
layerId = m000;
shapes = (
{
closed = 1;
nodes = (
(231,509,l),
(63,691,l),
(-9,691,l),
(-9,763,l),
(799,763,l),
(799,691,l),
(160,691,l),
(311,527,l),
(305,474,l),
(149,364,l),
(418,168,l),
(418,630,l),
(455,630,l),
(466,631,o),
(477,631,qs),
(590,631,o),
(730,501,o),
(737,417,q),
(738,410,o),
(738,403,qs),
(738,336,o),
(654,247,o),
(587,242,q),
(581,313,l),
(625,317,o),
(666,368,o),
(666,404,qs),
(666,412,l),
(661,469,o),
(566,555,o),
(490,559,q),
(490,1,l),
(418,1,l),
(418,79,l),
(67,336,l),
(67,394,l)
);
}
);
width = 790;
}
);
unicode = 2475;
},
{
glyphname = "ba-bng2";
layers = (
{
anchors = (
{
name = Anchor_5;
pos = (487,690);
},
{
name = Anchor_3;
pos = (425,690);
},
{
name = Anchor_6;
pos = (416,287);
},
{
name = Anchor_17;
pos = (417,314);
},
{
name = Anchor_18;
pos = (418,315);
},
{
name = Anchor_9;
pos = (418,2);
},
{
name = Anchor_10;
pos = (417,324);
},
{
name = Anchor_11;
pos = (413,302);
}
);
layerId = m000;
shapes = (
{
closed = 1;
nodes = (
(417,620,l),
(417,691,l),
(-9,691,l),
(-9,763,l),
(577,763,l),
(577,691,l),
(489,691,l),
(489,1,l),
(417,1,l),
(417,83,l),
(61,439,l),
(75,497,l)
);
},
{
closed = 1;
nodes = (
(152,449,l),
(417,184,l),
(417,544,l)
);
}
);
width = 568;
}
);
unicode = 2476;
},
{
glyphname = "bha-bng2";
layers = (
{
anchors = (
{
name = Anchor_5;
pos = (469,690);
},
{
name = Anchor_3;
pos = (429,690);
},
{
name = Anchor_6;
pos = (451,273);
},
{
name = Anchor_17;
pos = (418,293);
},
{
name = Anchor_18;
pos = (424,301);
},
{
name = Anchor_9;
pos = (420,2);
},
{
name = Anchor_10;
pos = (533,299);
},
{
name = Anchor_11;
pos = (541,266);
},
{
name = Anchor_12;
pos = (252,8);
},
{
name = Anchor_13;
pos = (257,8);
},
{
name = Anchor_14;
pos = (252,48);
},
{
name = Anchor_15;
pos = (492,-77);
}
);
layerId = m000;
shapes = (
{
closed = 1;
nodes = (
(769,691,l),
(-9,691,l),
(-9,763,l),
(769,763,l)
);
},
{
closed = 1;
nodes = (
(447,60,qs),
(347,60,o),
(251,141,qs),
(167,216,o),
(67,461,o),
(61,609,q),
(133,613,l),
(139,478,o),
(225,259,o),
(299,195,qs),
(371,132,o),
(447,132,qs),
(461,132,l),
(571,141,o),
(610,246,qs),
(628,295,o),
(628,354,qs),
(628,414,o),
(611,466,q),
(581,406,o),
(488,322,o),
(421,322,qs),
(411,322,o),
(401,323,qs),
(344,330,o),
(281,406,o),
(275,452,qs),
(274,461,o),
(274,470,qs),
(274,505,o),
(305,569,o),
(332,590,qs),
(371,620,o),
(422,620,qs),
(453,620,o),
(484,609,q),
(458,542,l),
(439,549,o),
(422,549,qs),
(395,549,o),
(376,533,q),
(346,510,o),
(346,471,qs),
(346,466,o),
(347,460,q),
(349,440,o),
(376,398,o),
(409,394,q),
(420,394,l),
(457,394,o),
(514,440,o),
(550,501,o),
(570,555,o),
(570,558,q),
(631,574,l),
(661,542,o),
(699,421,o),
(699,353,qs),
(699,280,o),
(677,220,qs),
(620,76,o),
(467,61,qs),
(458,60,o)
);
}
);
width = 760;
}
);
unicode = 2477;
},
{
glyphname = "ma-bng2";
layers = (
{
anchors = (
{
name = Anchor_5;
pos = (478,690);
},
{
name = Anchor_3;
pos = (477,690);
},
{
name = Anchor_6;
pos = (479,275);
},
{
name = Anchor_17;
pos = (481,314);
},
{
name = Anchor_18;
pos = (480,315);
},
{
name = Anchor_9;
pos = (480,2);
},
{
name = Anchor_10;
pos = (480,274);
},
{
name = Anchor_11;
pos = (475,243);
}
);
layerId = m000;
shapes = (
{
closed = 1;
nodes = (
(480,1,l),
(480,282,l),
(348,411,l),
(323,433,o),
(246,442,o),
(212,427,qs),
(182,414,o),
(139,358,o),
(142,309,qs),
(145,267,o),
(184,218,o),
(208,206,q),
(262,182,o),
(303,206,q),
(342,146,l),
(307,123,o),
(259,123,qs),
(216,123,o),
(176,142,q),
(81,191,o),
(71,304,qs),
(66,368,o),
(126,468,o),
(183,492,qs),
(215,506,o),
(248,509,q),
(63,691,l),
(-9,691,l),
(-9,763,l),
(639,763,l),
(639,691,l),
(551,691,l),
(551,1,l)
);
},
{
closed = 1;
nodes = (
(396,464,l),
(402,459,o),
(408,453,qs),
(480,382,l),
(480,691,l),
(164,691,l)
);
}
);
width = 630;
}
);
unicode = 2478;
},
{
glyphname = "ya-bng2";
layers = (
{
anchors = (
{
name = Anchor_1;
pos = (209,-4);
},
{
name = Anchor_5;
pos = (421,690);
},
{
name = Anchor_3;
pos = (421,690);
},
{
name = Anchor_6;
pos = (417,287);
},
{
name = Anchor_17;
pos = (419,314);
},
{
name = Anchor_18;
pos = (419,315);
},
{
name = Anchor_9;
pos = (418,2);
},
{
name = Anchor_10;
pos = (418,324);
},
{
name = Anchor_11;
pos = (414,302);
}
);
layerId = m000;
shapes = (
{
closed = 1;
nodes = (
(231,509,l),
(63,691,l),
(-9,691,l),
(-9,763,l),
(578,763,l),
(578,691,l),
(490,691,l),
(490,1,l),
(418,1,l),
(418,79,l),
(67,336,l),
(67,394,l)
);
},
{
closed = 1;
nodes = (
(418,168,l),
(418,691,l),
(160,691,l),
(311,527,l),
(305,474,l),
(149,364,l)
);
}
);
width = 569;
}
);
unicode = 2479;
},
{
glyphname = "ra-bng2";
layers = (
{
anchors = (
{
name = Anchor_5;
pos = (486,690);
},
{
name = Anchor_3;
pos = (429,694);
},
{
name = Anchor_6;
pos = (417,189);
},
{
name = Anchor_17;
pos = (418,246);
},
{
name = Anchor_18;
pos = (417,254);
},
{
name = Anchor_9;
pos = (412,2);
},
{
name = Anchor_10;
pos = (417,199);
},
{
name = Anchor_11;
pos = (413,156);
}
);
layerId = m000;
shapes = (
{
closed = 1;
nodes = (
(156,142,qs),
(179,142,o),
(211,110,o),
(211,87,qs),
(211,56,l),
(211,33,o),
(179,1,o),
(156,1,qs),
(133,1,o),
(100,33,o),
(100,56,qs),
(100,87,l),
(100,110,o),
(133,142,o)
);
},
{
closed = 1;
nodes = (
(417,619,l),
(417,691,l),
(-9,691,l),
(-9,763,l),
(577,763,l),
(577,691,l),
(489,691,l),
(489,1,l),
(417,1,l),
(417,82,l),
(61,438,l),
(75,496,l)
);
},
{
closed = 1;
nodes = (
(152,448,l),
(417,183,l),
(417,543,l)
);
}
);
width = 568;
}
);
unicode = 2480;
},
{
glyphname = "la-bng2";
layers = (
{
anchors = (
{
name = Anchor_5;
pos = (529,690);
},
{
name = Anchor_3;
pos = (529,690);
},
{
name = Anchor_6;
pos = (530,287);
},
{
name = Anchor_17;
pos = (531,314);
},
{
name = Anchor_18;
pos = (531,315);
},
{
name = Anchor_9;
pos = (530,2);
},
{
name = Anchor_10;
pos = (530,324);
},
{
name = Anchor_11;
pos = (526,253);
},
{
name = Anchor_15;
pos = (375,-45);
}
);
layerId = m000;
shapes = (
{
closed = 1;
nodes = (
(530,504,q),
(530,691,l),
(-8,691,l),
(-8,763,l),
(691,763,l),
(691,691,l),
(601,691,l),
(601,0,l),
(530,0,l),
(530,350,l),
(517,415,o),
(454,507,o),
(424,507,qs),
(401,507,o),
(370,445,o),
(366,380,q),
(365,351,l),
(294,354,l),
(295,382,l),
(294,424,o),
(267,490,o),
(241,504,q),
(226,513,o),
(211,513,qs),
(186,513,o),
(145,472,o),
(137,443,q),
(131,418,o),
(131,388,qs),
(131,320,o),
(193,210,o),
(247,210,qs),
(267,210,o),
(288,218,q),
(312,151,l),
(276,138,o),
(244,138,qs),
(188,138,o),
(105,210,o),
(61,326,o),
(61,390,qs),
(61,428,o),
(69,463,q),
(78,512,o),
(164,584,o),
(215,584,qs),
(248,584,o),
(277,567,q),
(307,547,o),
(327,518,q),
(343,545,o),
(369,561,q),
(397,581,o),
(426,581,qs),
(484,581,o)
);
}
);
width = 681;
}
);
unicode = 2482;
},
{
glyphname = "sha-bng2";
layers = (
{
anchors = (
{
name = Anchor_5;
pos = (537,690);
},
{
name = Anchor_3;
pos = (545,690);
},
{
name = Anchor_6;
pos = (538,287);
},
{
name = Anchor_17;
pos = (540,314);
},
{
name = Anchor_18;
pos = (539,315);
},
{
name = Anchor_9;
pos = (539,2);
},
{
name = Anchor_10;
pos = (539,444);
},
{
name = Anchor_11;
pos = (535,411);
}
);
layerId = m000;
shapes = (
{
closed = 1;
nodes = (
(368,680,l),
(278,561,l),
(433,388,l),
(380,340,l),
(234,504,l),
(110,340,l),
(53,384,l),
(185,558,l),
(66,691,l),
(-9,691,l),
(-9,763,l),
(97,763,l),
(229,615,l),
(338,758,l),
(393,760,l),
(539,592,l),
(539,763,l),
(698,763,l),
(698,691,l),
(610,691,l),
(610,1,l),
(539,1,l),
(539,483,l)
);
}
);
width = 689;
}
);
unicode = 2486;
},
{
glyphname = "sha-bng2.alt";
layers = (
{
anchors = (
{
name = Anchor_5;
pos = (569,690);
},
{
name = Anchor_3;
pos = (569,693);
},
{
name = Anchor_6;
pos = (571,287);
},
{
name = Anchor_17;
pos = (573,314);
},
{
name = Anchor_18;
pos = (572,315);
},
{
name = Anchor_9;
pos = (572,2);
},
{
name = Anchor_10;
pos = (572,474);
},
{
name = Anchor_11;
pos = (568,433);
}
);
layerId = m000;
shapes = (
{
closed = 1;
nodes = (
(318,416,qs),
(296,432,o),
(281,458,q),
(248,413,o),
(201,400,q),
(184,394,o),
(166,394,qs),
(103,394,o),
(53,452,q),
(105,499,l),
(135,466,o),
(166,466,qs),
(174,466,o),
(182,468,q),
(233,486,o),
(249,563,q),
(250,570,o),
(250,578,qs),
(250,599,o),
(240,623,qs),
(227,654,o),
(154,692,o),
(109,692,qs),
(-9,691,l),
(-9,763,l),
(109,763,l),
(211,763,o),
(277,695,q),
(298,733,o),
(332,749,qs),
(356,760,o),
(383,760,qs),
(443,760,o),
(515,705,qs),
(572,662,l),
(572,763,l),
(731,763,l),
(731,691,l),
(643,691,l),
(643,1,l),
(572,1,l),
(572,572,l),
(472,649,l),
(420,689,o),
(383,689,qs),
(372,689,o),
(363,685,q),
(328,665,o),
(325,595,q),
(324,584,l),
(324,500,o),
(360,474,qs),
(374,464,o),
(398,464,qs),
(425,464,o),
(464,479,q),
(490,413,l),
(437,393,o),
(397,393,qs),
(351,393,o)
);
}
);
width = 722;
}
);
},
{
glyphname = "ssa-bng2";
layers = (
{
anchors = (
{
name = Anchor_5;
pos = (431,690);
},
{
name = Anchor_3;
pos = (425,690);
},
{
name = Anchor_6;
pos = (428,287);
},
{
name = Anchor_17;
pos = (429,314);
},
{
name = Anchor_18;
pos = (429,315);
},
{
name = Anchor_9;
pos = (428,2);
},
{
name = Anchor_10;
pos = (429,324);
},
{
name = Anchor_11;
pos = (425,302);
}
);
layerId = m000;
shapes = (
{
closed = 1;
nodes = (
(74,389,l),
(229,541,l),
(72,691,l),
(-9,691,l),
(-9,763,l),
(589,763,l),
(589,691,l),
(501,691,l),
(501,1,l),
(429,1,l),
(429,79,l),
(78,335,l)
);
},
{
closed = 1;
nodes = (
(429,691,l),
(175,691,l),
(429,448,l)
);
},
{
closed = 1;
nodes = (
(429,167,l),
(429,349,l),
(280,492,l),
(154,368,l)
);
}
);
width = 580;
}
);
unicode = 2487;
},
{
glyphname = "sa-bng2";
layers = (
{
anchors = (
{
name = Anchor_5;
pos = (527,690);
},
{
name = Anchor_3;
pos = (527,690);
},
{
name = Anchor_6;
pos = (521,287);
},
{
name = Anchor_17;
pos = (523,314);
},
{
name = Anchor_18;
pos = (523,315);
},
{
name = Anchor_9;
pos = (521,2);
},
{
name = Anchor_10;
pos = (522,324);
},
{
name = Anchor_11;
pos = (518,302);
},
{
name = Anchor_15;
pos = (256,-44);
}
);
layerId = m000;
shapes = (
{
closed = 1;
nodes = (
(522,251,l),
(362,408,l),
(337,325,o),
(255,187,o),
(196,176,qs),
(186,174,o),
(176,174,qs),
(111,174,o),
(51,258,q),
(109,300,l),
(152,240,o),
(182,246,qs),
(216,253,o),
(285,390,o),
(304,466,q),
(75,691,l),
(-9,691,l),
(-9,763,l),
(681,763,l),
(681,691,l),
(593,691,l),
(593,1,l),
(522,1,l)
);
},
{
closed = 1;
nodes = (
(522,691,l),
(177,691,l),
(522,351,l)
);
}
);
width = 672;
}
);
unicode = 2488;
},
{
glyphname = "sa-bng2.alt";
layers = (
{
anchors = (
{
name = Anchor_5;
pos = (544,688);
},
{
name = Anchor_3;
pos = (540,688);
},
{
name = Anchor_6;
pos = (542,287);
},
{
name = Anchor_17;
pos = (543,314);
},
{
name = Anchor_18;
pos = (543,315);
},
{
name = Anchor_9;
pos = (543,2);
},
{
name = Anchor_10;
pos = (543,324);
},
{
name = Anchor_11;
pos = (538,302);
}
);
layerId = m000;
shapes = (
{
closed = 1;
nodes = (
(291,428,q),
(94,691,l),
(-9,691,l),
(-9,763,l),
(701,763,l),
(701,691,l),
(614,691,l),
(614,1,l),
(542,1,l),
(542,316,l),
(509,378,o),
(458,448,o),
(421,465,q),
(417,466,o),
(414,466,qs),
(411,466,o),
(403,463,q),
(376,439,o),
(338,350,o),
(299,256,o),
(271,229,q),
(243,198,o),
(203,198,qs),
(167,198,o),
(89,247,o),
(61,280,q),
(113,328,l),
(143,300,o),
(181,273,o),
(196,273,qs),
(230,273,o),
(259,349,qs),
(277,399,o)
);
},
{
closed = 1;
nodes = (
(542,444,q),
(542,691,l),
(183,691,l),
(332,494,l),
(369,540,o),
(412,540,qs),
(450,540,o),
(493,503,q),
(521,477,o)
);
}
);
width = 692;
}
);
},
{
glyphname = "ha-bng2";
layers = (
{
anchors = (
{
name = Anchor_5;
pos = (352,690);
},
{
name = Anchor_3;
pos = (305,690);
},
{
name = Anchor_6;
pos = (240,288);
},
{
name = Anchor_17;
pos = (204,310);
},
{
name = Anchor_18;
pos = (256,308);
},
{
name = Anchor_9;
pos = (237,2);
},
{
name = Anchor_10;
pos = (286,256);
},
{
name = Anchor_11;
pos = (308,220);
},
{
name = Anchor_12;
pos = (55,41);
},
{
name = Anchor_13;
pos = (60,48);
},
{
name = Anchor_14;
pos = (77,43);
},
{
name = Anchor_15;
pos = (168,-69);
}
);
layerId = m000;
shapes = (
{
closed = 1;
nodes = (
(581,691,l),
(-9,691,l),
(-9,763,l),
(581,763,l)
);
},
{
closed = 1;
nodes = (
(479,-68,l),
(387,9,o),
(134,181,o),
(61,193,q),
(70,263,l),
(98,261,o),
(124,261,qs),
(210,261,o),
(345,301,o),
(384,339,qs),
(421,373,o),
(421,416,qs),
(421,419,l),
(420,474,o),
(345,545,o),
(280,555,q),
(270,556,o),
(260,556,qs),
(223,556,o),
(164,523,o),
(154,499,qs),
(151,492,o),
(151,482,qs),
(151,470,o),
(156,459,q),
(171,433,o),
(213,425,q),
(200,355,l),
(125,369,o),
(94,426,qs),
(79,452,o),
(79,482,qs),
(79,506,o),
(89,527,q),
(108,572,o),
(203,627,o),
(259,627,qs),
(274,627,o),
(289,625,qs),
(380,612,o),
(491,501,o),
(493,421,qs),
(493,415,l),
(493,347,o),
(434,287,q),
(361,218,o),
(229,198,q),
(317,148,o),
(444,52,o),
(525,-13,q)
);
}
);
width = 572;
}
);
unicode = 2489;
},
{
glyphname = "rra-bng2";
layers = (
{
anchors = (
{
name = Anchor_5;
pos = (397,690);
},
{
name = Anchor_3;
pos = (389,690);
},
{
name = Anchor_6;
pos = (433,330);
},
{
name = Anchor_17;
pos = (518,314);
},
{
name = Anchor_18;
pos = (517,315);
},
{
name = Anchor_9;
pos = (516,2);
},
{
name = Anchor_10;
pos = (515,324);
},
{
name = Anchor_11;
pos = (512,145);
},
{
name = Anchor_12;
pos = (195,-108);
},
{
name = Anchor_13;
pos = (239,-111);
},
{
name = Anchor_14;
pos = (0,0);
}
);
layerId = m000;
shapes = (
{
closed = 1;
nodes = (
(318,408,l),
(318,691,l),
(-9,691,l),
(-9,763,l),
(744,763,l),
(744,691,l),
(391,691,l),
(391,440,l),
(436,442,o),
(504,502,o),
(541,566,o),
(545,578,q),
(602,592,l),
(636,561,o),
(674,452,o),
(674,390,qs),
(674,334,o),
(658,286,q),
(603,135,o),
(432,119,q),
(421,119,o),
(411,118,q),
(310,118,o),
(226,191,qs),
(76,328,o),
(61,619,q),
(133,621,l),
(147,363,o),
(273,245,q),
(336,190,o),
(413,190,qs),
(427,190,l),
(497,196,o),
(575,263,o),
(590,309,qs),
(603,346,o),
(603,390,qs),
(603,449,o),
(582,496,q),
(549,442,o),
(448,369,o),
(385,369,qs),
(367,369,o),
(348,372,q)
);
},
{
closed = 1;
nodes = (
(405,53,qs),
(428,53,o),
(460,21,o),
(460,-2,qs),
(460,-33,l),
(460,-55,o),
(428,-88,o),
(405,-88,qs),
(382,-88,o),
(350,-56,o),
(350,-33,qs),
(350,-2,l),
(350,21,o),
(382,53,o)
);
}
);
width = 735;
}
);
unicode = 2524;
},
{
glyphname = "rha-bng2";
layers = (
{
anchors = (
{
name = Anchor_5;
pos = (341,690);
},
{
name = Anchor_3;
pos = (301,690);
},
{
name = Anchor_6;
pos = (515,287);
},
{
name = Anchor_17;
pos = (518,314);
},
{
name = Anchor_18;
pos = (517,315);
},
{
name = Anchor_9;
pos = (327,2);
},
{
name = Anchor_10;
pos = (83,328);
},
{
name = Anchor_11;
pos = (316,145);
}
);
layerId = m000;
shapes = (
{
closed = 1;
nodes = (
(79,242,qs),
(79,691,l),
(-9,691,l),
(-9,763,l),
(574,763,l),
(574,691,l),
(150,691,l),
(150,242,l),
(150,190,o),
(172,181,qs),
(179,178,o),
(189,178,qs),
(219,178,o),
(310,230,o),
(350,270,q),
(432,358,o),
(432,422,qs),
(432,441,o),
(425,456,qs),
(417,473,o),
(385,493,o),
(367,493,qs),
(363,493,o),
(360,492,q),
(324,488,o),
(315,445,q),
(245,460,l),
(267,550,o),
(351,563,qs),
(358,564,o),
(365,564,qs),
(404,564,o),
(471,522,o),
(488,487,qs),
(503,457,o),
(503,421,qs),
(503,325,o),
(401,220,qs),
(354,172,o),
(238,107,o),
(188,107,qs),
(166,107,o),
(146,115,qs),
(118,126,o),
(79,186,o)
);
},
{
closed = 1;
nodes = (
(236,53,qs),
(259,53,o),
(291,21,o),
(291,-2,qs),
(291,-33,l),
(291,-56,o),
(259,-88,o),
(236,-88,qs),
(213,-88,o),
(181,-56,o),
(181,-33,qs),
(181,-2,l),
(181,21,o),
(213,53,o)
);
}
);
width = 565;
}
);
unicode = 2525;
},
{
glyphname = "yya-bng2";
layers = (
{
anchors = (
{
name = Anchor_5;
pos = (412,690);
},
{
name = Anchor_3;
pos = (425,690);
},
{
name = Anchor_6;
pos = (419,287);
},
{
name = Anchor_17;
pos = (518,314);
},
{
name = Anchor_18;
pos = (517,315);
},
{
name = Anchor_9;
pos = (416,2);
},
{
name = Anchor_10;
pos = (418,193);
},
{
name = Anchor_11;
pos = (414,154);
}
);
layerId = m000;
shapes = (
{
closed = 1;
nodes = (
(231,508,l),
(63,691,l),
(-9,691,l),
(-9,763,l),
(578,763,l),
(578,691,l),
(490,691,l),
(490,1,l),
(418,1,l),
(418,79,l),
(67,335,l),
(67,393,l)
);
},
{
closed = 1;
nodes = (
(157,142,qs),
(180,142,o),
(212,110,o),
(212,87,qs),
(212,56,l),
(212,33,o),
(180,1,o),
(157,1,qs),
(134,1,o),
(101,33,o),
(101,56,qs),
(101,87,l),
(101,110,o),
(134,142,o)
);
},
{
closed = 1;
nodes = (
(418,167,l),
(418,691,l),
(160,691,l),
(311,527,l),
(305,473,l),
(149,363,l)
);
}
);
width = 569;
}
);
unicode = 2527;
},
{
glyphname = "khandata-bng2";
layers = (
{
anchors = (
{
name = Anchor_5;
pos = (325,690);
},
{
name = Anchor_3;
pos = (309,690);
},
{
name = Anchor_6;
pos = (354,216);
},
{
name = Anchor_17;
pos = (354,246);
},
{
name = Anchor_18;
pos = (363,254);
},
{
name = Anchor_9;
pos = (363,2);
},
{
name = Anchor_10;
pos = (374,259);
},
{
name = Anchor_11;
pos = (347,231);
}
);
layerId = m000;
shapes = (
{
closed = 1;
nodes = (
(401,-34,q),
(347,13,l),
(375,45,o),
(375,71,qs),
(375,75,l),
(372,112,o),
(276,217,o),
(175,305,qs),
(62,401,o),
(62,518,qs),
(62,550,o),
(71,581,qs),
(91,649,o),
(205,751,o),
(273,761,qs),
(287,763,o),
(300,763,qs),
(343,763,o),
(416,724,o),
(440,687,qs),
(465,648,o),
(465,608,qs),
(465,580,o),
(441,533,o),
(421,517,qs),
(386,489,o),
(340,489,qs),
(285,489,o),
(246,530,q),
(297,579,l),
(316,560,o),
(341,560,qs),
(361,560,o),
(377,572,q),
(394,586,o),
(394,607,qs),
(394,626,o),
(380,648,qs),
(352,691,o),
(302,691,qs),
(293,691,o),
(284,690,q),
(236,683,o),
(153,609,o),
(139,561,qs),
(133,539,o),
(133,517,qs),
(133,434,o),
(221,358,qs),
(340,256,o),
(442,135,o),
(446,79,q),
(447,71,l),
(447,17,o)
);
}
);
width = 505;
}
);
unicode = 2510;
},
{
glyphname = "signanusvara-bng2";
layers = (
{
layerId = m000;
shapes = (
{
closed = 1;
nodes = (
(243,687,l),
(213,687,o),
(191,668,q),
(164,647,o),
(160,612,q),
(160,604,l),
(160,574,o),
(179,551,q),
(189,538,l),
(215,507,o),
(255,507,qs),
(284,507,o),
(306,525,qs),
(333,547,o),
(337,582,q),
(337,589,l),
(337,620,o),
(319,643,qs),
(308,657,l),
(286,682,o),
(252,687,q)
);
},
{
closed = 1;
nodes = (
(410,-11,l),
(44,355,l),
(95,406,l),
(461,40,l)
);
},
{
closed = 1;
nodes = (
(254,436,qs),
(220,436,o),
(156,465,o),
(134,493,q),
(123,506,l),
(89,547,o),
(89,602,qs),
(89,611,o),
(90,620,q),
(95,682,o),
(145,723,qs),
(189,759,o),
(243,759,qs),
(251,759,o),
(259,758,qs),
(322,751,o),
(363,701,qs),
(374,688,l),
(409,645,o),
(409,589,qs),
(409,582,o),
(408,575,q),
(402,511,o),
(352,470,qs),
(308,436,o)
);
}
);
width = 479;
}
);
unicode = 2434;
},
{
glyphname = "signvisarga-bng2";
layers = (
{
layerId = m000;
shapes = (
{
closed = 1;
nodes = (
(234,236,qs),
(216,236,l),
(182,236,o),
(158,211,q),
(133,187,o),
(133,153,q),
(134,118,o),
(158,94,qs),
(182,69,o),
(217,69,qs),
(234,69,l),
(268,70,o),
(293,94,qs),
(317,118,o),
(317,153,qs),
(317,187,o),
(268,236,o)
);
},
{
closed = 1;
nodes = (
(234,692,qs),
(216,692,l),
(182,692,o),
(158,667,q),
(133,643,o),
(133,608,q),
(134,574,o),
(158,549,qs),
(182,525,o),
(217,525,qs),
(234,525,l),
(268,525,o),
(293,550,qs),
(317,574,o),
(317,609,qs),
(317,643,o),
(268,692,o)
);
},
{
closed = 1;
nodes = (
(217,-2,l),
(153,-2,o),
(108,43,qs),
(62,88,o),
(62,152,qs),
(62,216,o),
(107,262,qs),
(152,307,o),
(216,307,qs),
(234,307,l),
(298,307,o),
(388,217,o),
(389,153,qs),
(389,89,o),
(343,44,qs),
(298,-2,o),
(234,-2,qs)
);
},
{
closed = 1;
nodes = (
(217,454,l),
(153,454,o),
(108,499,qs),
(62,544,o),
(62,608,qs),
(62,672,o),
(107,718,qs),
(152,763,o),
(216,763,qs),
(234,763,l),
(298,763,o),
(388,673,o),
(389,609,qs),
(389,545,o),
(343,499,qs),
(298,454,o),
(234,454,qs)
);
}
);
width = 442;
}
);
unicode = 2435;
},
{
glyphname = "vocalicrr-bng2";
layers = (
{
layerId = m000;
shapes = (
{
closed = 1;
nodes = (
(434,544,l),
(169,449,l),
(434,183,l)
);
},
{
closed = 1;
nodes = (
(506,1,l),
(504,1,l),
(504,-1,l),
(488,-30,l),
(343,-128,l),
(580,-294,l),
(542,-348,l),
(262,-156,l),
(262,-99,l),
(432,18,l),
(432,84,l),
(78,438,l),
(92,497,l),
(351,590,l),
(233,690,l),
(77,633,l),
(53,700,l),
(228,764,l),
(263,758,l),
(429,618,l),
(434,620,l),
(434,763,l),
(506,763,l),
(506,410,l),
(660,255,l),
(660,763,l),
(821,763,l),
(821,691,l),
(732,691,l),
(732,184,l),
(733,182,l),
(732,181,l),
(732,72,l),
(660,72,l),
(660,154,l),
(506,309,l)
);
}
);
width = 812;
}
);
unicode = 2528;
},
{
glyphname = "vocalicrr-bng2.alt";
layers = (
{
layerId = m000;
shapes = (
{
closed = 1;
nodes = (
(477,544,l),
(211,449,l),
(477,183,l)
);
},
{
closed = 1;
nodes = (
(548,309,l),
(548,115,l),
(549,115,l),
(549,-1,l),
(533,-30,l),
(388,-128,l),
(625,-294,l),
(587,-348,l),
(307,-156,l),
(307,-99,l),
(476,17,l),
(476,82,l),
(121,438,l),
(134,497,l),
(397,591,l),
(311,673,l),
(298,651,o),
(275,633,q),
(237,606,o),
(191,606,qs),
(160,606,o),
(133,619,qs),
(103,634,o),
(55,701,o),
(53,762,q),
(124,765,l),
(127,701,o),
(164,683,qs),
(176,677,o),
(191,677,qs),
(214,677,o),
(233,691,qs),
(254,706,o),
(254,731,qs),
(254,738,l),
(313,769,l),
(473,618,l),
(476,620,l),
(476,763,l),
(548,763,l),
(548,410,l),
(702,255,l),
(702,763,l),
(864,763,l),
(864,691,l),
(774,691,l),
(774,184,l),
(775,182,l),
(774,181,l),
(774,72,l),
(702,72,l),
(702,154,l)
);
}
);
width = 855;
}
);
},
{
glyphname = "vocalicll-bng2";
layers = (
{
layerId = m000;
shapes = (
{
closed = 1;
nodes = (
(508,51,q),
(505,47,o),
(503,43,q),
(534,24,l),
(563,4,l),
(567,9,o),
(570,15,q),
(581,33,o),
(605,67,qs),
(644,123,o),
(678,200,o),
(672,247,qs),
(663,322,o),
(560,402,o),
(479,432,q),
(479,438,o),
(478,444,q),
(471,500,o),
(405,574,o),
(324,615,o),
(265,637,qs),
(223,653,o),
(175,676,o),
(171,687,q),
(168,700,o),
(190,730,q),
(132,772,l),
(89,713,o),
(103,666,qs),
(113,632,o),
(179,593,o),
(240,570,qs),
(322,540,o),
(401,484,o),
(407,435,qs),
(412,399,o),
(383,352,q),
(379,364,o),
(372,375,q),
(346,420,o),
(255,469,o),
(203,466,qs),
(143,463,o),
(66,389,o),
(61,342,qs),
(56,299,o),
(110,216,o),
(173,198,q),
(192,267,l),
(128,287,o),
(132,334,qs),
(134,357,o),
(174,393,o),
(207,395,q),
(275,397,o),
(310,340,q),
(336,291,o),
(314,248,q),
(311,244,o),
(309,240,q),
(310,239,l),
(261,200,o),
(255,145,qs),
(250,102,o),
(303,19,o),
(367,1,q),
(386,70,l),
(322,90,o),
(326,137,qs),
(328,160,o),
(368,196,o),
(401,198,q),
(468,200,o),
(504,143,q),
(530,94,o)
);
},
{
closed = 1;
nodes = (
(415,269,q),
(455,327,o),
(468,361,q),
(529,336,o),
(596,282,o),
(601,238,qs),
(606,202,o),
(577,155,q),
(572,167,o),
(566,178,q),
(514,263,o)
);
}
);
width = 734;
}
);
unicode = 2529;
},
{
glyphname = "aulength_signcandrabinducomb-bng2.rphf";
layers = (
{
anchors = (
{
name = _Anchor_3;
pos = (-92,620);
},
{
name = _Anchor_4;
pos = (-128,502);
}
);
layerId = m000;
shapes = (
{
closed = 1;
nodes = (
(-136,852,qs),
(-142,852,l),
(-206,854,o),
(-318,960,o),
(-338,1038,q),
(-269,1057,l),
(-254,1001,o),
(-180,924,o),
(-139,923,qs),
(-135,923,l),
(-98,923,o),
(-34,994,o),
(-12,1059,q),
(55,1037,l),
(20,931,o),
(-85,852,o)
);
},
{
closed = 1;
nodes = (
(-63,807,l),
(194,987,l),
(234,929,l),
(-25,752,l)
);
},
{
closed = 1;
nodes = (
(-141,1133,qs),
(-121,1133,o),
(-92,1104,o),
(-92,1083,qs),
(-92,1056,l),
(-92,1036,o),
(-121,1007,o),
(-141,1007,qs),
(-161,1007,o),
(-190,1036,o),
(-190,1056,qs),
(-190,1083,l),
(-190,1104,o),
(-161,1133,o)
);
}
);
}
);
},
{
glyphname = "signcandrabinducomb-bng2";
layers = (
{
anchors = (
{
name = _Anchor_5;
pos = (-145,612);
}
);
layerId = m000;
shapes = (
{
closed = 1;
nodes = (
(-193,773,qs),
(-199,773,l),
(-263,775,o),
(-375,881,o),
(-395,959,q),
(-326,978,l),
(-311,922,o),
(-237,845,o),
(-196,844,qs),
(-192,844,l),
(-155,844,o),
(-91,915,o),
(-69,980,q),
(-2,958,l),
(-37,852,o),
(-142,773,o)
);
},
{
closed = 1;
nodes = (
(-198,1054,qs),
(-178,1054,o),
(-149,1025,o),
(-149,1004,qs),
(-149,977,l),
(-149,957,o),
(-178,928,o),
(-198,928,qs),
(-218,928,o),
(-247,957,o),
(-247,977,qs),
(-247,1004,l),
(-247,1025,o),
(-218,1054,o)
);
}
);
}
);
unicode = 2433;
},
{
glyphname = "vowelsignaa-bng2";
layers = (
{
layerId = m000;
shapes = (
{
closed = 1;
nodes = (
(241,691,l),
(152,691,l),
(152,1,l),
(81,1,l),
(81,691,l),
(-9,691,l),
(-9,763,l),
(241,763,l)
);
}
);
width = 232;
}
);
unicode = 2494;
},
{
glyphname = "vowelsigni-bng2";
layers = (
{
anchors = (
{
name = Anchor_4;
pos = (502,655);
},
{
name = Anchor_5;
pos = (679,792);
}
);
layerId = m000;
shapes = (
{
closed = 1;
nodes = (
(143,791,q),
(146,773,o),
(147,763,q),
(251,763,l),
(251,691,l),
(151,691,l),
(151,0,l),
(80,0,l),
(80,691,l),
(-9,691,l),
(-9,763,l),
(75,763,l),
(74,770,o),
(72,782,q),
(67,826,o),
(69,880,o),
(83,911,qs),
(118,987,o),
(220,1015,qs),
(319,1041,o),
(569,989,o),
(667,920,q),
(626,862,l),
(541,921,o),
(322,968,o),
(239,946,qs),
(169,927,o),
(148,881,qs),
(140,863,o),
(139,828,o)
);
}
);
width = 231;
}
);
unicode = 2495;
},
{
glyphname = "vowelsignii-bng2";
layers = (
{
anchors = (
{
name = Anchor_4;
pos = (-78,649);
},
{
name = Anchor_5;
pos = (18,886);
}
);
layerId = m000;
shapes = (
{
closed = 1;
nodes = (
(276,691,l),
(144,691,l),
(144,1,l),
(73,1,l),
(73,675,l),
(72,675,l),
(72,691,l),
(-150,691,l),
(-150,868,l),
(-249,846,o),
(-435,841,o),
(-489,872,qs),
(-538,901,o),
(-543,954,q),
(-550,1057,o),
(-407,1098,qs),
(-318,1122,o),
(-90,1098,o),
(101,997,o),
(141,911,qs),
(155,880,o),
(156,826,o),
(151,782,q),
(150,770,o),
(149,763,q),
(276,763,l)
);
},
{
closed = 1;
nodes = (
(-79,763,l),
(77,763,l),
(78,773,o),
(80,791,qs),
(85,828,o),
(84,863,o),
(76,881,qs),
(45,948,o),
(-118,1030,o),
(-313,1049,o),
(-389,1029,qs),
(-421,1020,o),
(-475,987,o),
(-472,961,q),
(-471,944,o),
(-453,934,qs),
(-410,909,o),
(-211,926,o),
(-129,953,q),
(-79,920,l)
);
}
);
width = 231;
}
);
unicode = 2496;
},
{
glyphname = "vowelsignucomb-bng2";
layers = (
{
anchors = (
{
name = _Anchor_6;
pos = (-73,283);
},
{
name = _Anchor_16;
pos = (33,-47);
}
);
layerId = m000;
shapes = (
{
closed = 1;
nodes = (
(-100,-99,q),
(-97,-93,o),
(-86,-70,q),
(-149,-26,o),
(-187,-26,qs),
(-218,-26,o),
(-236,-54,q),
(-243,-68,o),
(-243,-84,qs),
(-243,-116,o),
(-222,-131,qs),
(-203,-144,o),
(-179,-144,qs),
(-155,-144,o),
(-112,-120,o)
);
},
{
closed = 1;
nodes = (
(170,-215,q),
(124,-263,l),
(111,-252,o),
(3,-144,o),
(-33,-113,q),
(-34,-115,o),
(-34,-117,q),
(-51,-160,o),
(-133,-210,o),
(-180,-210,qs),
(-227,-210,o),
(-298,-158,o),
(-308,-109,qs),
(-310,-98,o),
(-310,-86,qs),
(-310,-46,o),
(-268,22,o),
(-231,35,q),
(-211,41,o),
(-191,41,qs),
(-137,41,o),
(-73,0,q),
(-72,62,l),
(-72,115,l),
(-1,115,l),
(-1,-54,l),
(37,-85,o),
(154,-200,o)
);
}
);
}
);
unicode = 2497;
},
{
glyphname = "vowelsignuucomb-bng2";
layers = (
{
anchors = (
{
name = _Anchor_17;
pos = (-69,284);
}
);
layerId = m000;
shapes = (
{
closed = 1;
nodes = (
(-166,-76,q),
(-155,-47,o),
(-102,-8,o),
(-70,-1,q),
(-70,115,l),
(1,115,l),
(1,-32,l),
(-32,-66,l),
(-85,-68,o),
(-102,-104,qs),
(-106,-113,o),
(-106,-123,qs),
(-106,-146,o),
(-70,-180,o),
(-46,-180,q),
(-41,-179,l),
(15,-175,o),
(59,-83,q),
(118,-73,l),
(305,-266,l),
(253,-316,l),
(100,-157,l),
(41,-247,o),
(-39,-251,q),
(-46,-251,l),
(-98,-251,o),
(-176,-173,o),
(-176,-123,qs),
(-176,-99,o)
);
}
);
width = 1;
}
);
unicode = 2498;
},
{
glyphname = "vowelsignvocalicrcomb-bng2";
layers = (
{
anchors = (
{
name = _Anchor_18;
pos = (-71,342);
}
);
layerId = m000;
shapes = (
{
closed = 1;
nodes = (
(-242,-69,l),
(-72,48,l),
(-72,145,l),
(0,145,l),
(0,29,l),
(-16,0,l),
(-161,-98,l),
(76,-264,l),
(38,-318,l),
(-242,-126,l)
);
}
);
}
);
unicode = 2499;
},
{
glyphname = "vowelsignvocalicrrcomb-bng2";
layers = (
{
anchors = (
{
name = _Anchor_18;
pos = (-71,426);
}
);
layerId = m000;
shapes = (
{
closed = 1;
nodes = (
(-240,27,l),
(-72,129,l),
(-72,218,l),
(0,218,l),
(0,109,l),
(-17,79,l),
(-149,1,l),
(-7,-71,l),
(-4,-132,l),
(-139,-219,l),
(85,-336,l),
(55,-396,l),
(-223,-252,l),
(-226,-193,l),
(-93,-106,l),
(-237,-35,l)
);
}
);
}
);
unicode = 2500;
},
{
glyphname = "vowelsignvocaliclcomb-bng2";
layers = (
{
anchors = (
{
name = _Anchor_18;
pos = (-227,475);
}
);
layerId = m000;
shapes = (
{
closed = 1;
nodes = (
(-149,-151,q),
(-152,-155,o),
(-154,-158,q),
(-123,-176,l),
(-93,-196,l),
(-90,-192,o),
(-88,-187,q),
(-78,-172,o),
(-59,-145,qs),
(-27,-98,o),
(2,-32,o),
(-3,8,qs),
(-11,75,o),
(-105,143,o),
(-182,171,qs),
(-252,197,o),
(-255,208,qs),
(-257,215,o),
(-241,238,q),
(-299,280,l),
(-336,229,o),
(-323,187,qs),
(-314,157,o),
(-259,123,o),
(-207,104,qs),
(-142,80,o),
(-78,36,o),
(-74,-1,qs),
(-71,-26,o),
(-86,-55,q),
(-89,-51,o),
(-91,-47,q),
(-141,34,o),
(-236,31,qs),
(-284,29,o),
(-353,-32,o),
(-358,-76,qs),
(-363,-114,o),
(-316,-186,o),
(-262,-201,q),
(-242,-133,l),
(-290,-118,o),
(-287,-84,q),
(-286,-68,o),
(-256,-41,o),
(-232,-40,qs),
(-180,-38,o),
(-153,-82,q),
(-133,-118,o)
);
}
);
}
);
unicode = 2530;
},
{
glyphname = "vowelsignvocalicllcomb-bng2";
layers = (
{
anchors = (
{
name = _Anchor_18;
pos = (-332,614);
}
);
layerId = m000;
shapes = (
{
closed = 1;
nodes = (
(-154,-156,q),
(-154,-158,l),
(-134,-170,l),
(-95,-196,l),
(-94,-195,o),
(-93,-193,q),
(-93,-194,l),
(-81,-174,o),
(-59,-141,qs),
(-25,-92,o),
(5,-23,o),
(-1,19,qs),
(-9,84,o),
(-99,157,o),
(-166,183,q),
(-179,244,o),
(-270,306,o),
(-343,333,qs),
(-413,359,o),
(-416,370,qs),
(-418,377,o),
(-402,400,q),
(-460,442,l),
(-497,391,o),
(-484,349,qs),
(-475,319,o),
(-420,285,o),
(-368,266,qs),
(-303,242,o),
(-239,198,o),
(-235,161,qs),
(-232,136,o),
(-247,107,q),
(-250,111,o),
(-252,115,q),
(-302,196,o),
(-397,193,qs),
(-445,191,o),
(-514,130,o),
(-519,86,qs),
(-524,48,o),
(-477,-24,o),
(-423,-39,q),
(-403,29,l),
(-451,44,o),
(-448,78,q),
(-447,94,o),
(-417,121,o),
(-393,122,qs),
(-341,124,o),
(-314,80,q),
(-294,44,o),
(-310,11,q),
(-313,7,o),
(-315,4,q),
(-314,4,l),
(-355,-27,o),
(-360,-76,qs),
(-364,-114,o),
(-318,-186,o),
(-264,-201,q),
(-244,-133,l),
(-292,-118,o),
(-289,-84,q),
(-287,-67,o),
(-258,-41,o),
(-234,-40,qs),
(-182,-37,o),
(-155,-82,q),
(-133,-122,o)
);
},
{
closed = 1;
nodes = (
(-211,31,q),
(-179,77,o),
(-170,107,q),
(-124,88,o),
(-76,44,o),
(-72,10,qs),
(-68,-19,o),
(-88,-55,q),
(-90,-51,o),
(-93,-46,qs),
(-134,21,o)
);
}
);
}
);
unicode = 2531;
},
{
glyphname = "vowelsigne-bng2";
layers = (
{
layerId = m000;
shapes = (
{
closed = 1;
nodes = (
(63,393,q),
(70,491,o),
(126,643,o),
(170,691,q),
(-9,691,l),
(-9,763,l),
(351,763,l),
(351,691,l),
(307,691,l),
(274,691,o),
(198,623,o),
(141,485,o),
(134,387,qs),
(133,368,o),
(133,349,qs),
(133,268,o),
(179,143,o),
(221,113,q),
(255,87,o),
(299,87,qs),
(334,87,o),
(368,105,q),
(393,38,l),
(366,25,o),
(327,16,o),
(302,16,qs),
(232,16,o),
(178,56,qs),
(123,97,o),
(62,251,o),
(62,349,qs),
(62,371,o)
);
}
);
width = 313;
}
);
unicode = 2503;
},
{
glyphname = "vowelsigne-bng2.init";
layers = (
{
layerId = m000;
shapes = (
{
closed = 1;
nodes = (
(64,393,q),
(71,508,o),
(144,676,o),
(246,763,o),
(297,763,qs),
(351,763,l),
(351,691,l),
(297,691,l),
(268,691,o),
(197,622,o),
(141,485,o),
(135,387,q),
(133,368,o),
(133,349,qs),
(133,268,o),
(180,143,o),
(221,113,qs),
(256,87,o),
(299,87,qs),
(335,87,o),
(368,105,q),
(394,38,l),
(366,24,o),
(328,16,o),
(302,16,qs),
(232,16,o),
(179,56,qs),
(123,97,o),
(62,251,o),
(62,349,qs),
(62,371,o)
);
}
);
width = 314;
}
);
},
{
glyphname = "vowelsignai-bng2";
layers = (
{
layerId = m000;
shapes = (
{
closed = 1;
nodes = (
(282,687,q),
(279,691,l),
(241,746,l),
(243,747,o),
(245,749,q),
(271,761,o),
(298,763,q),
(320,763,l),
(320,720,l),
(304,704,o),
(287,691,q),
(284,689,o)
);
},
{
closed = 1;
nodes = (
(385,942,qs),
(403,904,o),
(382,805,o),
(351,759,q),
(351,691,l),
(307,691,l),
(274,691,o),
(198,623,o),
(141,485,o),
(134,387,qs),
(133,368,o),
(133,349,qs),
(133,268,o),
(179,143,o),
(221,113,q),
(255,87,o),
(299,87,qs),
(334,87,o),
(368,105,q),
(393,38,l),
(366,25,o),
(327,16,o),
(302,16,qs),
(232,16,o),
(178,56,qs),
(123,97,o),
(62,251,o),
(62,349,qs),
(62,371,o),
(63,393,q),
(70,491,o),
(126,643,o),
(170,691,q),
(-9,691,l),
(-9,763,l),
(261,763,l),
(296,796,o),
(332,885,o),
(320,911,qs),
(309,934,o),
(225,939,o),
(161,920,q),
(43,889,o),
(-16,948,qs),
(-33,966,o),
(-49,1028,o),
(-33,1072,q),
(34,1048,l),
(21,1013,o),
(37,996,qs),
(47,985,o),
(102,978,o),
(141,989,qs),
(250,1020,o),
(364,985,o)
);
}
);
width = 313;
}
);
unicode = 2504;
},
{
glyphname = "vowelsignai-bng2.init";
layers = (
{
layerId = m000;
shapes = (
{
closed = 1;
nodes = (
(63,393,qs),
(72,531,o),
(175,717,o),
(245,749,q),
(286,780,o),
(334,882,o),
(320,911,qs),
(309,934,o),
(225,939,o),
(161,920,q),
(43,889,o),
(-16,948,qs),
(-33,966,o),
(-49,1028,o),
(-33,1072,q),
(34,1048,l),
(21,1013,o),
(37,996,qs),
(47,985,o),
(102,978,o),
(141,989,qs),
(250,1020,o),
(364,985,o),
(385,942,qs),
(403,904,o),
(382,805,o),
(351,759,q),
(351,691,l),
(307,691,l),
(274,691,o),
(198,623,o),
(141,485,o),
(134,387,qs),
(133,368,o),
(133,349,qs),
(133,268,o),
(179,143,o),
(221,113,q),
(255,87,o),
(299,87,qs),
(334,87,o),
(368,105,q),
(393,38,l),
(366,25,o),
(327,16,o),
(302,16,qs),
(232,16,o),
(178,56,qs),
(123,97,o),
(62,251,o),
(62,349,qs),
(62,371,o)
);
}
);
width = 313;
}
);
},
{
glyphname = "vowelsigno-bng2";
layers = (
{
layerId = m000;
shapes = (
{
closed = 1;
nodes = (
(63,393,q),
(70,491,o),
(126,643,o),
(170,691,q),
(-9,691,l),
(-9,763,l),
(351,763,l),
(351,691,l),
(307,691,l),
(274,691,o),
(198,623,o),
(141,485,o),
(134,387,qs),
(133,368,o),
(133,349,qs),
(133,268,o),
(179,143,o),
(221,113,q),
(255,87,o),
(299,87,qs),
(334,87,o),
(368,105,q),
(393,38,l),
(366,25,o),
(327,16,o),
(302,16,qs),
(232,16,o),
(178,56,qs),
(123,97,o),
(62,251,o),
(62,349,qs),
(62,371,o)
);
},
{
closed = 1;
nodes = (
(574,640,qs),
(591,640,o),
(615,617,o),
(615,601,qs),
(615,579,l),
(615,562,o),
(591,539,o),
(574,539,qs),
(558,539,o),
(534,562,o),
(534,579,qs),
(534,601,l),
(534,617,o),
(558,640,o)
);
},
{
closed = 1;
nodes = (
(574,192,qs),
(591,192,o),
(615,169,o),
(615,152,qs),
(615,130,l),
(615,114,o),
(591,91,o),
(574,91,qs),
(558,91,o),
(534,114,o),
(534,130,qs),
(534,152,l),
(534,169,o),
(558,192,o)
);
},
{
closed = 1;
nodes = (
(805,416,qs),
(822,416,o),
(845,393,o),
(845,377,qs),
(845,355,l),
(845,338,o),
(822,315,o),
(805,315,qs),
(788,315,o),
(764,338,o),
(764,355,qs),
(764,377,l),
(764,393,o),
(788,416,o)
);
},
{
closed = 1;
nodes = (
(344,416,qs),
(361,416,o),
(385,393,o),
(385,377,qs),
(385,355,l),
(385,338,o),
(361,315,o),
(344,315,qs),
(327,315,o),
(304,338,o),
(304,355,qs),
(304,377,l),
(304,393,o),
(327,416,o)
);
},
{
closed = 1;
nodes = (
(737,575,qs),
(754,575,o),
(778,551,o),
(778,535,qs),
(778,513,l),
(778,497,o),
(754,474,o),
(737,474,qs),
(721,474,o),
(697,497,o),
(697,513,qs),
(697,535,l),
(697,551,o),
(721,575,o)
);
},
{
closed = 1;
nodes = (
(412,258,qs),
(428,258,o),
(452,234,o),
(452,218,qs),
(452,196,l),
(452,180,o),
(428,156,o),
(412,156,qs),
(395,156,o),
(371,180,o),
(371,196,qs),
(371,218,l),
(371,234,o),
(395,258,o)
);
},
{
closed = 1;
nodes = (
(737,258,qs),
(754,258,o),
(778,234,o),
(778,218,qs),
(778,196,l),
(778,180,o),
(754,156,o),
(737,156,qs),
(721,156,o),
(697,180,o),
(697,196,qs),
(697,218,l),
(697,234,o),
(721,258,o)
);
},
{
closed = 1;
nodes = (
(412,575,qs),
(428,575,o),
(452,551,o),
(452,535,qs),
(452,513,l),
(452,497,o),
(428,474,o),
(412,474,qs),
(395,474,o),
(371,497,o),
(371,513,qs),
(371,535,l),
(371,551,o),
(395,575,o)
);
},
{
closed = 1;
nodes = (
(1126,691,l),
(1037,691,l),
(1037,1,l),
(966,1,l),
(966,691,l),
(876,691,l),
(876,763,l),
(1126,763,l)
);
}
);
width = 1098;
}
);
unicode = 2507;
},
{
glyphname = "vowelsignau-bng2";
layers = (
{
layerId = m000;
shapes = (
{
closed = 1;
nodes = (
(821,763,l),
(917,763,l),
(936,887,o),
(902,918,qs),
(883,935,o),
(800,936,o),
(699,915,o),
(637,897,qs),
(519,866,o),
(460,925,qs),
(443,943,o),
(427,1005,o),
(443,1049,q),
(510,1025,l),
(497,990,o),
(513,973,qs),
(523,962,o),
(578,955,o),
(617,966,qs),
(746,1003,o),
(907,1011,o),
(950,971,qs),
(981,942,o),
(1000,842,o),
(989,763,q),
(1069,763,l),
(1069,691,l),
(980,691,l),
(980,1,l),
(909,1,l),
(909,691,l),
(821,691,l)
);
},
{
closed = 1;
nodes = (
(574,640,qs),
(591,640,o),
(615,617,o),
(615,601,qs),
(615,579,l),
(615,562,o),
(591,539,o),
(574,539,qs),
(558,539,o),
(534,562,o),
(534,579,qs),
(534,601,l),
(534,617,o),
(558,640,o)
);
},
{
closed = 1;
nodes = (
(574,192,qs),
(591,192,o),
(615,169,o),
(615,152,qs),
(615,130,l),
(615,114,o),
(591,91,o),
(574,91,qs),
(558,91,o),
(534,114,o),
(534,130,qs),
(534,152,l),
(534,169,o),
(558,192,o)
);
},
{
closed = 1;
nodes = (
(805,416,qs),
(822,416,o),
(845,393,o),
(845,377,qs),
(845,355,l),
(845,338,o),
(822,315,o),
(805,315,qs),
(788,315,o),
(764,338,o),
(764,355,qs),
(764,377,l),
(764,393,o),
(788,416,o)
);
},
{
closed = 1;
nodes = (
(344,416,qs),
(361,416,o),
(385,393,o),
(385,377,qs),
(385,355,l),
(385,338,o),
(361,315,o),
(344,315,qs),
(327,315,o),
(304,338,o),
(304,355,qs),
(304,377,l),
(304,393,o),
(327,416,o)
);
},
{
closed = 1;
nodes = (
(737,575,qs),
(754,575,o),
(778,551,o),
(778,535,qs),
(778,513,l),
(778,497,o),
(754,474,o),
(737,474,qs),
(721,474,o),
(697,497,o),
(697,513,qs),
(697,535,l),
(697,551,o),
(721,575,o)
);
},
{
closed = 1;
nodes = (
(412,258,qs),
(428,258,o),
(452,234,o),
(452,218,qs),
(452,196,l),
(452,180,o),
(428,156,o),
(412,156,qs),
(395,156,o),
(371,180,o),
(371,196,qs),
(371,218,l),
(371,234,o),
(395,258,o)
);
},
{
closed = 1;
nodes = (
(737,258,qs),
(754,258,o),
(778,234,o),
(778,218,qs),
(778,196,l),
(778,180,o),
(754,156,o),
(737,156,qs),
(721,156,o),
(697,180,o),
(697,196,qs),
(697,218,l),
(697,234,o),
(721,258,o)
);
},
{
closed = 1;
nodes = (
(412,575,qs),
(428,575,o),
(452,551,o),
(452,535,qs),
(452,513,l),
(452,497,o),
(428,474,o),
(412,474,qs),
(395,474,o),
(371,497,o),
(371,513,qs),
(371,535,l),
(371,551,o),
(395,575,o)
);
},
{
closed = 1;
nodes = (
(63,393,q),
(70,491,o),
(126,643,o),
(170,691,q),
(-9,691,l),
(-9,763,l),
(351,763,l),
(351,691,l),
(307,691,l),
(274,691,o),
(198,623,o),
(141,485,o),
(134,387,qs),
(133,368,o),
(133,349,qs),
(133,268,o),
(179,143,o),
(221,113,q),
(255,87,o),
(299,87,qs),
(334,87,o),
(368,105,q),
(393,38,l),
(366,25,o),
(327,16,o),
(302,16,qs),
(232,16,o),
(178,56,qs),
(123,97,o),
(62,251,o),
(62,349,qs),
(62,371,o)
);
}
);
width = 1042;
}
);
unicode = 2508;
},
{
glyphname = "signviramacomb-bng2";
layers = (
{
anchors = (
{
name = _Anchor_9;
pos = (-164,110);
}
);
layerId = m000;
shapes = (
{
closed = 1;
nodes = (
(-184,-21,l),
(-146,34,l),
(113,-144,l),
(73,-201,l)
);
}
);
}
);
unicode = 2509;
},
{
glyphname = devanagaridanda;
layers = (
{
layerId = m000;
shapes = (
{
closed = 1;
nodes = (
(175,743,l),
(246,743,l),
(246,21,l),
(175,21,l)
);
}
);
width = 326;
}
);
unicode = 2404;
},
{
glyphname = devanagaridoubledanda;
layers = (
{
layerId = m000;
shapes = (
{
closed = 1;
nodes = (
(376,743,l),
(447,743,l),
(447,21,l),
(376,21,l)
);
},
{
closed = 1;
nodes = (
(175,743,l),
(246,743,l),
(246,21,l),
(175,21,l)
);
}
);
width = 527;
}
);
unicode = 2405;
},
{
glyphname = "aulength-bng2";
layers = (
{
anchors = (
{
name = Anchor_4;
pos = (-4,637);
},
{
name = Anchor_5;
pos = (-85,863);
}
);
layerId = m000;
shapes = (
{
closed = 1;
nodes = (
(-8,763,l),
(88,763,l),
(107,887,o),
(73,918,qs),
(54,935,o),
(-29,936,o),
(-130,915,o),
(-192,897,qs),
(-310,866,o),
(-369,925,qs),
(-386,943,o),
(-402,1005,o),
(-386,1049,q),
(-319,1025,l),
(-332,990,o),
(-316,973,qs),
(-306,962,o),
(-251,955,o),
(-212,966,qs),
(-83,1003,o),
(78,1011,o),
(121,971,qs),
(152,942,o),
(171,842,o),
(160,763,q),
(240,763,l),
(240,691,l),
(151,691,l),
(151,1,l),
(80,1,l),
(80,691,l),
(-8,691,l)
);
}
);
width = 231;
}
);
unicode = 2519;
},
{
glyphname = "signnuktacomb-bng2";
layers = (
{
anchors = (
{
name = _Anchor_1;
pos = (8,-47);
},
{
name = _Anchor_15;
pos = (-51,73);
}
);
layerId = m000;
shapes = (
{
closed = 1;
nodes = (
(-56,142,qs),
(-33,142,o),
(0,110,o),
(0,87,qs),
(0,56,l),
(0,33,o),
(-33,1,o),
(-56,1,qs),
(-79,1,o),
(-111,33,o),
(-111,56,qs),
(-111,87,l),
(-111,110,o),
(-79,142,o)
);
}
);
width = 1;
}
);
unicode = 2492;
},
{
glyphname = "isshar-bng2";
layers = (
{
layerId = m000;
shapes = (
{
closed = 1;
nodes = (
(437,372,qs),
(457,372,o),
(486,343,o),
(486,323,qs),
(486,295,l),
(486,275,o),
(457,246,o),
(437,246,qs),
(417,246,o),
(388,275,o),
(388,295,qs),
(388,323,l),
(388,343,o),
(417,372,o)
);
},
{
closed = 1;
nodes = (
(399,60,qs),
(446,60,o),
(490,71,qs),
(620,106,o),
(777,350,o),
(791,537,q),
(720,542,l),
(708,377,o),
(580,169,o),
(472,141,qs),
(375,115,o),
(172,197,o),
(112,285,q),
(53,246,l),
(111,160,o),
(299,60,o)
);
}
);
width = 869;
}
);
unicode = 2554;
},
{
glyphname = degree;
layers = (
{
layerId = m000;
shapes = (
{
closed = 1;
nodes = (
(106,639,qs),
(106,619,o),
(122,583,o),
(148,556,o),
(183,541,o),
(203,541,qs),
(224,541,o),
(259,557,o),
(285,584,o),
(300,620,o),
(300,639,qs),
(300,659,o),
(284,694,o),
(258,720,o),
(223,735,o),
(203,735,qs),
(183,735,o),
(147,720,o),
(121,694,o),
(106,659,o)
);
},
{
closed = 1;
nodes = (
(52,637,qs),
(52,669,o),
(76,724,o),
(117,765,o),
(173,789,o),
(204,789,qs),
(235,789,o),
(289,765,o),
(330,723,o),
(354,670,o),
(354,639,qs),
(354,608,o),
(330,553,o),
(290,511,o),
(234,488,o),
(203,488,qs),
(172,488,o),
(117,511,o),
(76,552,o),
(52,606,o)
);
}
);
width = 409;
}
);
unicode = (176,2557);
},
{
glyphname = "zero-bng2";
layers = (
{
layerId = m000;
shapes = (
{
closed = 1;
nodes = (
(285,528,qs),
(219,528,o),
(126,435,o),
(126,369,qs),
(126,320,l),
(126,254,o),
(219,161,o),
(285,161,qs),
(350,161,o),
(443,254,o),
(443,320,qs),
(443,369,l),
(443,435,o),
(350,528,o)
);
},
{
closed = 1;
nodes = (
(285,82,qs),
(220,82,o),
(111,146,o),
(47,256,o),
(47,320,qs),
(47,369,l),
(47,434,o),
(111,543,o),
(220,607,o),
(285,607,qs),
(349,607,o),
(458,543,o),
(523,434,o),
(523,369,qs),
(523,320,l),
(523,256,o),
(458,146,o),
(349,82,o)
);
}
);
width = 564;
}
);
unicode = 2534;
},
{
glyphname = "one-bng2";
layers = (
{
layerId = m000;
shapes = (
{
closed = 1;
nodes = (
(257,45,qs),
(194,45,o),
(94,102,o),
(79,149,qs),
(66,188,o),
(106,291,o),
(197,340,q),
(235,270,l),
(143,219,o),
(154,174,q),
(162,150,o),
(238,119,o),
(284,126,qs),
(338,135,o),
(442,213,o),
(437,302,qs),
(434,346,o),
(352,428,o),
(271,487,qs),
(205,537,o),
(128,606,o),
(85,694,o),
(98,745,q),
(175,725,l),
(165,687,o),
(238,611,o),
(318,551,qs),
(381,505,o),
(458,439,o),
(513,355,o),
(516,307,qs),
(523,194,o),
(390,63,o),
(297,48,qs),
(277,45,o)
);
}
);
width = 568;
}
);
unicode = 2535;
},
{
glyphname = "two-bng2";
layers = (
{
layerId = m000;
shapes = (
{
closed = 1;
nodes = (
(84,381,l),
(127,343,l),
(183,294,o),
(338,357,o),
(409,417,q),
(390,428,o),
(361,446,qs),
(243,516,o),
(124,602,o),
(64,704,o),
(84,766,q),
(159,742,l),
(144,693,o),
(270,590,o),
(401,514,qs),
(495,458,l),
(503,396,l),
(468,360,o),
(326,255,o),
(243,239,q),
(526,-13,l),
(474,-72,l),
(31,322,l)
);
}
);
width = 567;
}
);
unicode = 2536;
},
{
glyphname = "three-bng2";
layers = (
{
layerId = m000;
shapes = (
{
closed = 1;
nodes = (
(408,56,qs),
(316,56,o),
(160,182,o),
(48,420,o),
(21,582,q),
(99,595,l),
(136,376,o),
(311,128,o),
(425,136,qs),
(511,143,o),
(548,220,qs),
(583,290,o),
(564,489,o),
(533,538,qs),
(501,588,o),
(426,628,o),
(394,623,qs),
(354,616,o),
(344,578,qs),
(335,546,o),
(366,479,o),
(410,467,q),
(389,391,l),
(314,412,o),
(251,536,o),
(267,598,q),
(293,684,o),
(382,701,q),
(435,709,o),
(554,653,o),
(600,581,qs),
(640,517,o),
(663,275,o),
(620,185,qs),
(562,69,o),
(432,57,qs),
(420,56,o)
);
}
);
width = 685;
}
);
unicode = 2537;
},
{
glyphname = "four-bng2";
layers = (
{
layerId = m000;
shapes = (
{
closed = 1;
nodes = (
(325,687,qs),
(285,687,o),
(220,644,o),
(208,612,qs),
(191,568,o),
(248,487,o),
(316,458,q),
(435,498,o),
(441,578,q),
(442,610,o),
(403,667,o),
(372,679,q),
(349,687,o)
);
},
{
closed = 1;
nodes = (
(311,374,q),
(233,352,o),
(149,255,o),
(152,205,qs),
(155,156,o),
(240,92,o),
(312,83,qs),
(364,77,o),
(465,146,o),
(476,195,qs),
(488,245,o),
(402,339,o)
);
},
{
closed = 1;
nodes = (
(325,3,qs),
(314,3,o),
(303,5,q),
(191,17,o),
(77,130,o),
(73,200,qs),
(70,261,o),
(143,384,o),
(216,422,q),
(150,469,o),
(114,587,o),
(134,640,qs),
(151,685,o),
(234,753,o),
(343,774,o),
(399,753,qs),
(455,732,o),
(523,633,o),
(520,575,q),
(519,537,o),
(473,449,o),
(413,414,q),
(515,358,o),
(566,229,o),
(554,176,qs),
(536,104,o),
(402,3,o)
);
}
);
width = 579;
}
);
unicode = 2538;
},
{
glyphname = "five-bng2";
layers = (
{
layerId = m000;
shapes = (
{
closed = 1;
nodes = (
(402,671,q),
(406,616,o),
(463,559,o),
(528,534,q),
(566,552,o),
(611,564,q),
(630,487,l),
(455,440,o),
(440,311,qs),
(434,254,o),
(497,146,o),
(551,121,q),
(549,48,l),
(491,24,o),
(417,24,qs),
(357,24,o),
(239,59,o),
(190,94,qs),
(131,136,o),
(56,277,o),
(63,382,qs),
(70,490,o),
(183,643,o),
(338,734,o),
(432,767,q),
(459,693,l),
(429,682,o)
);
},
{
closed = 1;
nodes = (
(361,319,qs),
(370,416,o),
(448,483,q),
(400,507,o),
(338,579,o),
(327,635,q),
(150,538,o),
(142,377,qs),
(134,234,o),
(236,158,qs),
(280,127,o),
(388,101,o),
(440,104,q),
(397,147,o),
(355,261,o)
);
}
);
width = 651;
}
);
unicode = 2539;
},
{
glyphname = "six-bng2";
layers = (
{
layerId = m000;
shapes = (
{
closed = 1;
nodes = (
(415,24,qs),
(319,24,o),
(240,94,qs),
(78,242,o),
(62,579,q),
(141,582,l),
(147,436,o),
(226,212,o),
(292,153,qs),
(355,98,o),
(430,104,qs),
(545,114,o),
(585,222,qs),
(603,272,o),
(601,385,o),
(586,431,q),
(523,307,o),
(448,289,qs),
(393,276,o),
(345,320,qs),
(309,353,o),
(301,447,o),
(310,519,qs),
(319,595,o),
(306,652,o),
(274,660,q),
(294,737,l),
(348,723,o),
(393,651,o),
(395,569,o),
(388,510,qs),
(382,456,o),
(383,393,o),
(399,378,qs),
(415,363,o),
(429,366,q),
(458,373,o),
(525,479,o),
(544,533,q),
(609,548,l),
(658,497,o),
(694,288,o),
(659,195,qs),
(601,42,o),
(436,25,qs),
(426,24,o)
);
}
);
width = 743;
}
);
unicode = 2540;
},
{
glyphname = "seven-bng2";
layers = (
{
layerId = m000;
shapes = (
{
closed = 1;
nodes = (
(322,665,l),
(283,665,o),
(200,623,o),
(144,551,o),
(141,510,qs),
(139,473,o),
(163,451,qs),
(196,422,o),
(332,408,o),
(400,415,q),
(400,581,l),
(400,662,o),
(326,665,q)
);
},
{
closed = 1;
nodes = (
(522,20,qs),
(475,20,o),
(444,44,qs),
(400,78,o),
(400,148,qs),
(400,335,l),
(321,328,o),
(159,348,o),
(110,393,qs),
(58,440,o),
(62,515,qs),
(66,580,o),
(147,686,o),
(268,745,o),
(329,744,qs),
(399,742,o),
(480,654,o),
(480,581,qs),
(480,148,l),
(480,117,o),
(493,107,q),
(501,100,o),
(530,98,o),
(539,101,q),
(558,24,l),
(542,20,o)
);
}
);
width = 579;
}
);
unicode = 2541;
},
{
glyphname = "eight-bng2";
layers = (
{
layerId = m000;
shapes = (
{
closed = 1;
nodes = (
(191,380,q),
(191,197,l),
(191,159,o),
(214,118,o),
(236,115,q),
(280,111,o),
(394,204,o),
(410,275,qs),
(431,367,o),
(376,398,qs),
(340,418,o),
(226,405,o)
);
},
{
closed = 1;
nodes = (
(191,469,l),
(239,489,o),
(349,495,o),
(394,477,q),
(419,484,o),
(449,507,o),
(469,529,qs),
(499,563,o),
(562,606,o),
(619,617,q),
(635,540,l),
(594,532,o),
(552,504,o),
(528,476,q),
(493,438,o),
(466,422,q),
(510,359,o),
(487,257,qs),
(465,162,o),
(314,36,o),
(243,36,qs),
(236,36,o),
(228,37,qs),
(188,41,o),
(112,109,o),
(112,197,qs),
(112,599,l),
(112,642,o),
(65,673,o),
(41,674,q),
(42,753,l),
(76,753,o),
(144,720,o),
(191,651,o),
(191,599,qs)
);
}
);
width = 635;
}
);
unicode = 2542;
},
{
glyphname = "nine-bng2";
layers = (
{
layerId = m000;
shapes = (
{
closed = 1;
nodes = (
(358,23,q),
(344,101,l),
(352,198,o),
(310,304,o),
(259,312,qs),
(196,322,o),
(163,277,q),
(127,223,o),
(151,165,q),
(171,122,o),
(223,120,q),
(220,41,l),
(122,47,o),
(79,130,q),
(58,176,o),
(68,283,o),
(99,325,qs),
(162,405,o),
(271,390,qs),
(340,379,o),
(430,261,o),
(425,129,q),
(496,168,o),
(522,238,q),
(549,319,o),
(506,377,q),
(482,406,o),
(386,460,o),
(307,496,qs),
(201,545,o),
(97,614,o),
(86,664,qs),
(75,716,o),
(120,767,q),
(180,715,l),
(161,694,o),
(164,681,qs),
(169,657,o),
(260,605,o),
(340,568,qs),
(430,527,o),
(536,466,o),
(568,426,qs),
(638,334,o),
(596,211,qs),
(570,139,o),
(444,39,o)
);
}
);
width = 664;
}
);
unicode = 2543;
},
{
glyphname = "rupeesign-bng2";
layers = (
{
layerId = m000;
shapes = (
{
closed = 1;
nodes = (
(233,460,l),
(292,460,l),
(292,531,l),
(233,531,l),
(233,607,l),
(233,713,o),
(178,753,qs),
(128,789,o),
(50,764,q),
(72,696,l),
(116,710,o),
(136,696,qs),
(162,677,o),
(162,607,qs),
(162,531,l),
(62,531,l),
(62,460,l),
(162,460,l),
(162,195,l),
(162,84,o),
(233,57,qs),
(251,50,o),
(271,50,qs),
(321,50,o),
(437,121,o),
(485,175,qs),
(576,277,o),
(598,459,o),
(550,505,qs),
(512,542,o),
(402,536,o),
(355,493,q),
(404,441,l),
(429,464,o),
(483,471,o),
(500,454,qs),
(529,425,o),
(500,299,o),
(432,223,qs),
(385,170,o),
(282,114,o),
(258,123,qs),
(233,133,o),
(233,195,qs)
);
}
);
width = 651;
}
);
unicode = 2547;
},
{
glyphname = indianrupeesign;
layers = (
{
layerId = m000;
shapes = (
{
closed = 1;
nodes = (
(420,644,l),
(468,595,o),
(475,525,q),
(575,525,l),
(575,453,l),
(467,453,l),
(452,410,o),
(417,376,qs),
(379,341,o),
(285,292,o),
(211,272,q),
(299,222,o),
(426,126,o),
(507,61,q),
(461,6,l),
(369,83,o),
(116,255,o),
(43,267,q),
(52,337,l),
(80,335,o),
(106,335,qs),
(188,335,o),
(325,387,o),
(367,428,qs),
(380,440,o),
(389,453,q),
(49,453,l),
(49,525,l),
(403,525,l),
(386,624,o),
(263,644,q),
(49,644,l),
(49,716,l),
(575,716,l),
(575,644,l)
);
}
);
width = 611;
}
);
unicode = 8377;
},
{
glyphname = "rupeemark-bng2";
layers = (
{
layerId = m000;
shapes = (
{
closed = 1;
nodes = (
(244,104,q),
(303,64,l),
(348,129,o),
(392,228,o),
(385,288,qs),
(376,358,o),
(292,453,o),
(187,506,o),
(107,535,qs),
(81,545,o),
(66,551,q),
(40,484,l),
(54,479,o),
(83,468,qs),
(154,442,o),
(242,399,o),
(307,330,o),
(314,278,qs),
(319,239,o),
(285,164,o)
);
}
);
width = 446;
}
);
unicode = 2546;
},
{
glyphname = "currencynumeratorone-bng2";
layers = (
{
layerId = m000;
shapes = (
{
closed = 1;
nodes = (
(165,229,qs),
(281,229,o),
(457,324,o),
(588,479,o),
(661,599,q),
(600,637,l),
(516,499,o),
(367,345,o),
(181,287,o),
(54,312,q),
(40,242,l),
(106,229,o)
);
}
);
width = 721;
}
);
unicode = 2548;
},
{
glyphname = "currencynumeratortwo-bng2";
layers = (
{
layerId = m000;
shapes = (
{
closed = 1;
nodes = (
(99,228,q),
(92,235,l),
(89,232,l),
(87,233,o),
(84,235,q),
(76,219,l),
(40,186,l),
(52,174,l),
(50,172,l),
(54,170,o),
(58,168,q),
(159,68,o),
(274,68,qs),
(293,68,o),
(312,71,qs),
(459,92,o),
(704,387,o),
(784,547,q),
(720,579,l),
(651,442,o),
(430,160,o),
(302,142,qs),
(252,135,o),
(204,153,q),
(250,163,o),
(289,188,qs),
(388,253,o),
(386,359,qs),
(384,416,o),
(308,497,o),
(250,507,qs),
(191,516,o),
(79,457,o),
(53,388,q),
(120,363,l),
(137,407,o),
(204,441,o),
(238,436,qs),
(268,431,o),
(313,391,o),
(315,356,q),
(316,291,o),
(251,248,q),
(173,203,o)
);
}
);
width = 804;
}
);
unicode = 2549;
},
{
glyphname = "currencynumeratorthree-bng2";
layers = (
{
layerId = m000;
shapes = (
{
closed = 1;
nodes = (
(210,61,qs),
(304,61,o),
(535,169,o),
(741,378,o),
(797,523,q),
(730,549,l),
(679,416,o),
(485,221,o),
(269,125,o),
(189,134,qs),
(120,141,o),
(113,189,q),
(107,220,o),
(146,249,o),
(211,266,qs),
(267,281,o),
(341,315,o),
(394,387,o),
(392,447,qs),
(390,502,o),
(324,577,o),
(271,586,qs),
(214,595,o),
(99,531,o),
(71,459,q),
(138,433,l),
(156,480,o),
(225,521,o),
(259,515,qs),
(317,504,o),
(321,445,q),
(322,397,o),
(267,355,o),
(193,335,qs),
(142,322,o),
(77,293,o),
(34,230,o),
(42,178,q),
(61,78,o),
(181,63,qs),
(195,61,o)
);
}
);
width = 817;
}
);
unicode = 2550;
},
{
glyphname = "currencynumeratorfour-bng2";
layers = (
{
layerId = m000;
shapes = (
{
closed = 1;
nodes = (
(151,0,l),
(151,726,l),
(80,726,l),
(80,0,l)
);
}
);
width = 231;
}
);
unicode = 2551;
},
{
glyphname = "currencynumeratoronelessthanthedenominator-bng2";
layers = (
{
layerId = m000;
shapes = (
{
closed = 1;
nodes = (
(535,1,l),
(535,371,l),
(535,407,o),
(495,467,o),
(461,480,q),
(387,505,o),
(332,450,q),
(172,278,l),
(172,546,l),
(173,565,o),
(162,625,o),
(139,649,qs),
(111,680,o),
(66,680,q),
(66,608,l),
(80,608,o),
(87,601,q),
(95,592,o),
(101,560,o),
(101,548,qs),
(101,187,l),
(163,163,l),
(384,402,l),
(397,416,o),
(425,417,o),
(435,413,q),
(444,409,o),
(464,389,o),
(464,371,qs),
(464,1,l)
);
}
);
width = 615;
}
);
unicode = 2552;
},
{
glyphname = "currencydenominatorsixteen-bng2";
layers = (
{
layerId = m000;
shapes = (
{
closed = 1;
nodes = (
(244,471,qs),
(287,471,o),
(347,411,o),
(347,368,qs),
(347,348,l),
(347,306,o),
(287,245,o),
(244,245,qs),
(202,245,o),
(141,306,o),
(141,348,qs),
(141,368,l),
(141,411,o),
(202,471,o)
);
},
{
closed = 1;
nodes = (
(244,174,qs),
(291,174,o),
(372,221,o),
(418,301,o),
(418,348,qs),
(418,368,l),
(418,415,o),
(372,495,o),
(291,542,o),
(244,542,qs),
(197,542,o),
(117,495,o),
(70,415,o),
(70,368,qs),
(70,348,l),
(70,301,o),
(117,221,o),
(197,174,o)
);
}
);
width = 488;
}
);
unicode = 2553;
},
{
glyphname = "ka_signviramacomb_ka-bng2.akhn";
layers = (
{
anchors = (
{
name = Anchor_5;
pos = (485,690);
},
{
name = Anchor_3;
pos = (425,690);
},
{
name = Anchor_6;
pos = (413,206);
},
{
name = Anchor_17;
pos = (415,206);
},
{
name = Anchor_18;
pos = (414,206);
},
{
name = Anchor_9;
pos = (414,-97);
},
{
name = Anchor_10;
pos = (414,206);
},
{
name = Anchor_11;
pos = (409,206);
}
);
layerId = m000;
shapes = (
{
closed = 1;
nodes = (
(414,622,l),
(414,691,l),
(-9,691,l),
(-9,763,l),
(804,763,l),
(804,691,l),
(485,691,l),
(485,631,l),
(571,628,o),
(689,561,o),
(714,514,qs),
(733,479,o),
(733,444,qs),
(733,403,o),
(709,371,qs),
(699,357,l),
(642,396,l),
(661,425,o),
(661,447,qs),
(661,463,o),
(652,480,q),
(634,511,o),
(549,557,o),
(485,559,q),
(485,381,l),
(596,378,o),
(728,273,o),
(733,207,q),
(733,200,l),
(733,150,o),
(656,75,o),
(581,71,q),
(578,142,l),
(617,144,o),
(661,176,o),
(661,201,qs),
(661,203,l),
(660,239,o),
(566,307,o),
(485,309,q),
(485,-98,l),
(414,-98,l),
(414,-29,l),
(62,223,l),
(74,286,l),
(235,328,l),
(61,464,l),
(74,526,l)
);
},
{
closed = 1;
nodes = (
(322,350,l),
(414,373,l),
(414,548,l),
(161,477,l)
);
},
{
closed = 1;
nodes = (
(414,59,l),
(414,300,l),
(166,236,l)
);
}
);
width = 795;
}
);
},
{
glyphname = "ka_signviramacomb_tta-bng2.akhn";
layers = (
{
anchors = (
{
name = Anchor_4;
pos = (593,601);
},
{
name = Anchor_5;
pos = (537,796);
},
{
name = Anchor_6;
pos = (497,112);
},
{
name = Anchor_17;
pos = (436,110);
},
{
name = Anchor_18;
pos = (467,169);
},
{
name = Anchor_9;
pos = (459,-102);
},
{
name = Anchor_10;
pos = (561,145);
},
{
name = Anchor_11;
pos = (531,107);
},
{
name = Anchor_12;
pos = (238,-127);
},
{
name = Anchor_13;
pos = (283,-127);
},
{
name = Anchor_14;
pos = (217,-106);
}
);
layerId = m000;
shapes = (
{
closed = 1;
nodes = (
(-9,763,l),
(646,763,l),
(649,787,o),
(649,807,qs),
(649,859,o),
(627,878,qs),
(607,896,o),
(559,896,qs),
(493,896,o),
(372,863,qs),
(334,852,o),
(301,852,qs),
(238,852,o),
(203,888,qs),
(174,917,o),
(174,962,qs),
(174,986,o),
(184,1014,q),
(251,991,l),
(246,974,o),
(246,961,qs),
(246,946,o),
(254,937,q),
(268,923,o),
(300,923,qs),
(324,923,o),
(352,931,qs),
(484,968,o),
(560,968,qs),
(635,968,o),
(676,932,qs),
(720,891,o),
(720,806,qs),
(720,786,o),
(718,763,q),
(805,763,l),
(805,691,l),
(488,691,l),
(488,642,l),
(596,638,o),
(729,519,o),
(735,445,q),
(735,433,l),
(735,372,o),
(651,291,o),
(584,286,q),
(580,357,l),
(619,360,o),
(664,400,o),
(664,433,q),
(663,440,l),
(660,490,o),
(565,567,o),
(488,571,q),
(488,512,l),
(487,512,l),
(487,432,o),
(437,302,o),
(392,221,qs),
(363,170,o),
(337,109,o),
(337,83,qs),
(337,45,o),
(372,8,qs),
(406,-27,o),
(470,-27,qs),
(506,-27,o),
(577,-4,o),
(603,17,q),
(659,59,o),
(659,99,qs),
(659,103,o),
(658,107,q),
(654,132,o),
(625,142,qs),
(614,146,o),
(602,146,qs),
(559,146,o),
(515,104,q),
(466,156,l),
(532,217,o),
(602,217,qs),
(626,217,o),
(647,210,q),
(715,185,o),
(728,119,qs),
(730,109,o),
(730,100,qs),
(730,27,o),
(647,-40,q),
(566,-98,o),
(471,-98,qs),
(376,-98,o),
(321,-41,qs),
(265,16,o),
(265,82,qs),
(265,137,o),
(309,219,q),
(61,449,l),
(73,509,l),
(416,634,l),
(416,691,l),
(-9,691,l)
);
},
{
closed = 1;
nodes = (
(416,512,qs),
(416,558,l),
(153,462,l),
(345,284,l),
(378,343,o),
(416,451,o)
);
}
);
width = 796;
}
);
},
{
glyphname = "ka_signviramacomb_tta_signviramacomb_ramiddlediagonal-bng2.akhn";
layers = (
{
anchors = (
{
name = Anchor_4;
pos = (591,648);
},
{
name = Anchor_5;
pos = (545,782);
},
{
name = Anchor_6;
pos = (583,27);
},
{
name = Anchor_17;
pos = (585,95);
},
{
name = Anchor_18;
pos = (584,111);
},
{
name = Anchor_9;
pos = (584,-202);
},
{
name = Anchor_10;
pos = (584,13);
},
{
name = Anchor_11;
pos = (580,-55);
}
);
layerId = m000;
shapes = (
{
closed = 1;
nodes = (
(-9,763,l),
(646,763,l),
(649,789,o),
(649,809,qs),
(649,861,o),
(627,880,qs),
(607,898,o),
(560,898,qs),
(494,898,o),
(372,864,qs),
(334,853,o),
(300,853,qs),
(237,853,o),
(202,890,qs),
(174,919,o),
(174,963,qs),
(174,988,o),
(184,1016,q),
(251,992,l),
(246,978,o),
(246,964,qs),
(246,948,o),
(254,939,q),
(268,925,o),
(300,925,qs),
(324,925,o),
(352,933,qs),
(483,970,o),
(559,970,qs),
(635,970,o),
(675,933,qs),
(720,892,o),
(720,807,qs),
(720,787,o),
(718,763,q),
(805,763,l),
(805,691,l),
(487,691,l),
(487,632,l),
(598,628,o),
(730,520,o),
(735,452,q),
(735,443,l),
(735,392,o),
(658,315,o),
(584,311,q),
(580,382,l),
(618,384,o),
(663,417,o),
(663,444,qs),
(663,448,l),
(662,485,o),
(568,558,o),
(487,560,q),
(487,536,l),
(487,453,o),
(422,332,o),
(362,258,qs),
(326,214,o),
(296,164,o),
(296,144,qs),
(296,119,o),
(320,92,qs),
(338,71,o),
(407,50,o),
(449,50,qs),
(493,50,o),
(573,72,o),
(596,92,q),
(636,123,o),
(636,150,qs),
(636,157,o),
(632,163,qs),
(626,172,o),
(594,184,o),
(572,184,qs),
(522,184,o),
(462,154,q),
(429,217,l),
(506,256,o),
(572,256,qs),
(614,256,o),
(676,226,o),
(691,202,qs),
(707,178,o),
(707,149,qs),
(707,96,o),
(655,48,q),
(655,-201,l),
(584,-201,l),
(584,-192,l),
(552,-165,o),
(486,-165,qs),
(458,-165,o),
(395,-172,qs),
(330,-180,o),
(297,-180,qs),
(280,-180,o),
(264,-179,q),
(142,-163,o),
(100,-57,q),
(168,-32,l),
(193,-98,o),
(272,-107,q),
(284,-109,o),
(298,-109,qs),
(324,-109,o),
(386,-102,qs),
(454,-94,o),
(488,-94,qs),
(544,-94,o),
(584,-110,q),
(584,4,l),
(520,-21,o),
(447,-21,qs),
(390,-21,o),
(295,11,o),
(266,44,qs),
(224,93,o),
(224,143,qs),
(224,192,o),
(266,251,q),
(61,437,l),
(73,497,l),
(416,620,l),
(416,691,l),
(-9,691,l)
);
},
{
closed = 1;
nodes = (
(310,308,l),
(361,370,o),
(416,471,o),
(416,536,qs),
(416,544,l),
(153,450,l)
);
}
);
width = 796;
}
);
},
{
glyphname = "ka_signviramacomb_ta-bng2.akhn";
layers = (
{
anchors = (
{
name = Anchor_5;
pos = (489,690);
},
{
name = Anchor_3;
pos = (449,690);
},
{
name = Anchor_6;
pos = (483,223);
},
{
name = Anchor_17;
pos = (404,239);
},
{
name = Anchor_18;
pos = (449,269);
},
{
name = Anchor_9;
pos = (434,2);
},
{
name = Anchor_10;
pos = (522,235);
},
{
name = Anchor_11;
pos = (533,206);
},
{
name = Anchor_12;
pos = (239,-39);
},
{
name = Anchor_13;
pos = (283,-39);
},
{
name = Anchor_14;
pos = (250,0);
}
);
layerId = m000;
shapes = (
{
closed = 1;
nodes = (
(1001,691,l),
(-9,691,l),
(-9,763,l),
(1001,763,l)
);
},
{
closed = 1;
nodes = (
(600,195,qs),
(600,228,o),
(554,282,o),
(513,298,q),
(499,297,o),
(484,297,qs),
(470,297,o),
(463,298,q),
(467,369,l),
(475,368,o),
(483,368,qs),
(552,368,o),
(578,408,qs),
(589,424,o),
(589,445,qs),
(589,465,o),
(578,486,q),
(541,550,o),
(442,555,q),
(435,555,l),
(402,555,o),
(349,522,o),
(339,495,qs),
(334,481,o),
(334,466,qs),
(334,416,o),
(389,369,q),
(343,314,l),
(262,386,o),
(262,467,qs),
(262,494,o),
(272,520,qs),
(290,568,o),
(380,626,o),
(437,626,qs),
(444,626,l),
(584,619,o),
(641,518,qs),
(652,498,o),
(657,476,q),
(659,477,o),
(661,479,q),
(670,487,o),
(686,496,q),
(698,501,o),
(713,507,q),
(740,515,o),
(764,515,qs),
(771,515,l),
(801,515,o),
(858,492,o),
(879,471,qs),
(916,436,o),
(933,372,qs),
(939,347,o),
(939,321,qs),
(939,290,o),
(931,261,q),
(913,203,o),
(860,168,qs),
(831,150,o),
(800,150,q),
(794,149,o),
(788,149,qs),
(772,149,o),
(743,155,q),
(759,225,l),
(774,222,o),
(785,222,qs),
(806,222,o),
(821,232,qs),
(849,250,o),
(860,283,qs),
(866,301,o),
(866,322,qs),
(866,349,o),
(846,402,o),
(829,419,qs),
(806,442,o),
(770,445,q),
(762,445,l),
(725,445,o),
(702,428,qs),
(681,412,o),
(640,366,qs),
(631,356,o),
(605,327,q),
(671,272,o),
(671,196,qs),
(671,182,o),
(669,167,q),
(658,100,o),
(541,2,o),
(452,2,qs),
(348,2,o),
(193,109,o),
(89,324,o),
(61,488,q),
(132,500,l),
(175,245,o),
(346,73,o),
(452,73,qs),
(512,73,o),
(591,136,o),
(598,179,q),
(600,187,o)
);
}
);
width = 1001;
}
);
},
{
glyphname = "ka_signviramacomb_ta_signviramacomb_ralowerdiagonal-bng2.akhn";
layers = (
{
anchors = (
{
name = Anchor_5;
pos = (501,690);
},
{
name = Anchor_3;
pos = (489,690);
},
{
name = Anchor_6;
pos = (515,88);
},
{
name = Anchor_17;
pos = (518,114);
},
{
name = Anchor_18;
pos = (517,101);
},
{
name = Anchor_9;
pos = (516,-202);
},
{
name = Anchor_10;
pos = (515,74);
},
{
name = Anchor_11;
pos = (512,84);
}
);
layerId = m000;
shapes = (
{
closed = 1;
nodes = (
(997,691,l),
(-9,691,l),
(-9,763,l),
(997,763,l)
);
},
{
closed = 1;
nodes = (
(516,-201,l),
(516,-142,l),
(205,16,l),
(209,81,l),
(351,136,l),
(129,191,o),
(61,526,q),
(131,540,l),
(167,364,o),
(324,195,o),
(452,195,qs),
(514,195,o),
(595,247,o),
(599,281,q),
(600,285,o),
(600,288,qs),
(600,338,o),
(513,367,q),
(498,365,o),
(482,365,qs),
(470,365,o),
(463,366,q),
(467,437,l),
(485,437,l),
(556,437,o),
(582,473,q),
(588,482,o),
(588,493,qs),
(588,504,o),
(582,516,qs),
(570,540,o),
(498,575,o),
(442,577,q),
(437,577,l),
(398,577,o),
(342,545,o),
(335,524,qs),
(333,518,o),
(333,511,qs),
(333,475,o),
(386,438,q),
(346,379,l),
(262,437,o),
(262,511,qs),
(262,529,o),
(267,546,q),
(282,592,o),
(374,648,o),
(436,648,qs),
(444,648,l),
(591,642,o),
(645,550,qs),
(649,543,o),
(652,535,q),
(656,539,o),
(661,543,q),
(671,552,o),
(686,560,qs),
(698,566,o),
(712,570,qs),
(738,578,o),
(766,578,qs),
(795,578,o),
(850,556,o),
(870,536,qs),
(906,502,o),
(921,443,qs),
(927,418,o),
(927,394,qs),
(927,364,o),
(919,337,qs),
(902,281,o),
(852,248,qs),
(825,231,o),
(794,230,q),
(786,230,l),
(765,230,o),
(741,235,q),
(756,305,l),
(769,303,o),
(780,303,qs),
(799,303,o),
(813,312,qs),
(837,328,o),
(846,359,qs),
(851,375,o),
(851,395,qs),
(851,420,o),
(834,468,o),
(819,483,q),
(800,504,o),
(765,508,q),
(758,508,l),
(724,508,o),
(703,492,qs),
(677,473,o),
(645,435,q),
(638,428,l),
(630,417,o),
(620,409,q),
(614,401,o),
(611,398,q),
(642,375,o),
(671,318,o),
(671,288,qs),
(671,280,o),
(669,272,q),
(660,205,o),
(588,158,q),
(588,-201,l)
);
},
{
closed = 1;
nodes = (
(516,-62,l),
(516,123,l),
(309,43,l)
);
}
);
width = 988;
}
);
},
{
glyphname = "ka_signviramacomb_ta_signviramacomb_ramiddlediagonal-bng2.akhn";
layers = (
{
anchors = (
{
name = Anchor_5;
pos = (505,690);
},
{
name = Anchor_3;
pos = (493,690);
},
{
name = Anchor_6;
pos = (569,155);
},
{
name = Anchor_17;
pos = (571,207);
},
{
name = Anchor_18;
pos = (571,204);
},
{
name = Anchor_9;
pos = (570,-107);
},
{
name = Anchor_10;
pos = (570,151);
},
{
name = Anchor_11;
pos = (566,87);
}
);
layerId = m000;
shapes = (
{
closed = 1;
nodes = (
(997,691,l),
(-9,691,l),
(-9,763,l),
(997,763,l)
);
},
{
closed = 1;
nodes = (
(570,-107,l),
(570,-73,l),
(539,-46,o),
(481,-26,o),
(449,-26,qs),
(432,-26,o),
(383,-31,q),
(401,-29,o),
(311,-39,o),
(291,-39,qs),
(255,-39,o),
(223,-30,qs),
(92,8,o),
(77,137,q),
(149,144,l),
(156,63,o),
(242,39,qs),
(265,33,o),
(292,33,qs),
(309,33,o),
(399,42,o),
(373,40,q),
(426,45,o),
(448,45,qs),
(515,45,o),
(570,14,q),
(570,150,l),
(518,125,o),
(452,125,qs),
(296,125,o),
(103,324,o),
(61,527,q),
(131,541,l),
(167,365,o),
(324,196,o),
(452,196,qs),
(514,196,o),
(595,248,o),
(599,282,q),
(600,285,o),
(600,289,qs),
(600,339,o),
(513,368,q),
(498,366,o),
(482,366,qs),
(470,366,o),
(463,367,q),
(467,438,l),
(484,438,l),
(555,438,o),
(582,474,q),
(588,483,o),
(588,494,qs),
(588,504,o),
(582,517,q),
(570,541,o),
(498,576,o),
(442,577,qs),
(440,577,l),
(400,577,o),
(342,546,o),
(335,525,qs),
(333,519,o),
(333,512,qs),
(333,475,o),
(386,438,q),
(346,380,l),
(262,438,o),
(262,511,qs),
(262,530,o),
(267,547,q),
(282,593,o),
(375,649,o),
(439,649,qs),
(444,649,l),
(591,643,o),
(645,551,qs),
(649,544,o),
(652,536,q),
(656,540,o),
(661,544,q),
(671,553,o),
(686,561,q),
(693,564,o),
(712,571,q),
(738,579,o),
(766,579,qs),
(794,579,o),
(850,557,o),
(870,537,qs),
(906,502,o),
(921,443,qs),
(927,419,o),
(927,394,qs),
(927,365,o),
(919,337,qs),
(902,282,o),
(852,249,qs),
(825,232,o),
(794,231,q),
(786,231,l),
(765,231,o),
(741,236,q),
(756,305,l),
(768,303,o),
(778,303,qs),
(799,303,o),
(813,313,q),
(837,328,o),
(847,359,qs),
(852,375,o),
(852,394,qs),
(852,420,o),
(835,469,o),
(819,484,q),
(800,504,o),
(765,509,q),
(758,509,l),
(724,509,o),
(703,493,qs),
(681,477,o),
(645,436,q),
(641,432,o),
(637,427,qs),
(631,419,o),
(623,411,qs),
(611,399,l),
(642,376,o),
(671,318,o),
(671,289,qs),
(671,280,o),
(669,272,q),
(665,237,o),
(641,206,q),
(641,-107,l)
);
}
);
width = 988;
}
);
},
{
glyphname = "ka_signviramacomb_na-bng2.akhn";
layers = (
{
anchors = (
{
name = Anchor_5;
pos = (493,690);
},
{
name = Anchor_3;
pos = (437,690);
},
{
name = Anchor_6;
pos = (416,139);
},
{
name = Anchor_17;
pos = (418,210);
},
{
name = Anchor_18;
pos = (418,248);
},
{
name = Anchor_9;
pos = (417,-41);
},
{
name = Anchor_10;
pos = (417,125);
},
{
name = Anchor_11;
pos = (413,132);
}
);
layerId = m000;
shapes = (
{
closed = 1;
nodes = (
(417,619,l),
(417,691,l),
(-9,691,l),
(-9,763,l),
(807,763,l),
(807,691,l),
(489,691,l),
(489,630,l),
(596,626,o),
(729,497,o),
(735,415,q),
(736,408,o),
(736,401,qs),
(736,335,o),
(653,246,o),
(586,240,q),
(581,312,l),
(624,315,o),
(665,366,o),
(665,401,q),
(664,410,l),
(660,467,o),
(566,554,o),
(489,558,q),
(489,-37,l),
(417,-37,l),
(417,81,l),
(286,212,l),
(261,230,o),
(239,230,qs),
(232,230,o),
(225,228,q),
(180,210,o),
(166,136,q),
(164,122,o),
(164,108,qs),
(164,76,o),
(186,30,o),
(202,19,q),
(217,10,o),
(234,10,qs),
(253,10,o),
(272,22,q),
(310,-39,l),
(273,-61,o),
(234,-61,qs),
(195,-61,o),
(163,-40,qs),
(130,-18,o),
(93,60,o),
(93,109,qs),
(93,127,o),
(96,146,qs),
(117,263,o),
(203,296,q),
(61,437,l),
(75,496,l)
);
},
{
closed = 1;
nodes = (
(417,182,l),
(417,543,l),
(152,448,l)
);
}
);
width = 798;
}
);
},
{
glyphname = "ka_signviramacomb_na-bng2.akhn.alt";
layers = (
{
anchors = (
{
name = Anchor_5;
pos = (484,688);
},
{
name = Anchor_3;
pos = (416,684);
},
{
name = Anchor_6;
pos = (413,135);
},
{
name = Anchor_17;
pos = (414,228);
},
{
name = Anchor_18;
pos = (414,241);
},
{
name = Anchor_9;
pos = (413,-47);
},
{
name = Anchor_10;
pos = (413,121);
},
{
name = Anchor_11;
pos = (409,114);
}
);
layerId = m000;
shapes = (
{
closed = 1;
nodes = (
(413,621,l),
(413,691,l),
(-9,691,l),
(-9,763,l),
(802,763,l),
(802,691,l),
(485,691,l),
(485,630,l),
(592,626,o),
(725,497,o),
(732,415,q),
(733,408,o),
(733,401,qs),
(733,335,o),
(649,246,o),
(581,240,q),
(576,312,l),
(620,315,o),
(661,366,o),
(661,401,qs),
(661,410,l),
(656,468,o),
(562,554,o),
(485,558,q),
(485,-47,l),
(413,-47,l),
(413,53,l),
(321,127,l),
(275,165,o),
(235,165,qs),
(223,165,o),
(213,161,qs),
(173,145,o),
(163,97,qs),
(161,87,o),
(161,77,qs),
(161,44,o),
(185,25,qs),
(203,10,o),
(229,10,qs),
(251,10,o),
(272,20,q),
(303,-44,l),
(269,-61,o),
(229,-61,qs),
(180,-61,o),
(141,-32,q),
(89,11,o),
(89,78,qs),
(89,94,o),
(92,111,q),
(112,197,o),
(188,228,q),
(210,236,o),
(235,236,qs),
(300,236,o),
(366,182,qs),
(413,145,l),
(413,207,l),
(61,468,l),
(74,531,l)
);
},
{
closed = 1;
nodes = (
(413,296,l),
(413,547,l),
(164,481,l)
);
}
);
width = 793;
}
);
},
{
glyphname = "ka_signviramacomb_ralowerdiagonal-bng2.blwf";
layers = (
{
anchors = (
{
name = Anchor_5;
pos = (493,690);
},
{
name = Anchor_3;
pos = (425,690);
},
{
name = Anchor_6;
pos = (413,206);
},
{
name = Anchor_17;
pos = (415,216);
},
{
name = Anchor_18;
pos = (415,214);
},
{
name = Anchor_9;
pos = (413,-99);
},
{
name = Anchor_10;
pos = (414,216);
},
{
name = Anchor_11;
pos = (409,231);
}
);
layerId = m000;
shapes = (
{
closed = 1;
nodes = (
(414,622,l),
(414,691,l),
(-9,691,l),
(-9,763,l),
(804,763,l),
(804,691,l),
(485,691,l),
(485,631,l),
(593,627,o),
(726,498,o),
(733,416,q),
(733,402,l),
(733,335,o),
(650,247,o),
(582,241,q),
(577,313,l),
(621,316,o),
(662,368,o),
(662,404,qs),
(662,411,l),
(657,468,o),
(562,555,o),
(485,559,q),
(485,-98,l),
(414,-98,l),
(414,-29,l),
(63,223,l),
(75,286,l),
(235,328,l),
(61,464,l),
(74,526,l)
);
},
{
closed = 1;
nodes = (
(161,476,l),
(323,350,l),
(414,373,l),
(414,548,l)
);
},
{
closed = 1;
nodes = (
(414,59,l),
(414,300,l),
(167,236,l)
);
}
);
width = 795;
}
);
},
{
glyphname = "ka_signviramacomb_ma-bng2.akhn";
layers = (
{
anchors = (
{
name = Anchor_5;
pos = (485,690);
},
{
name = Anchor_3;
pos = (825,690);
},
{
name = Anchor_6;
pos = (822,167);
},
{
name = Anchor_17;
pos = (824,216);
},
{
name = Anchor_18;
pos = (823,213);
},
{
name = Anchor_9;
pos = (823,-96);
},
{
name = Anchor_10;
pos = (823,147);
},
{
name = Anchor_11;
pos = (818,58);
}
);
layerId = m000;
shapes = (
{
closed = 1;
nodes = (
(417,619,l),
(417,691,l),
(-9,691,l),
(-9,763,l),
(982,763,l),
(982,691,l),
(894,691,l),
(894,-98,l),
(823,-98,l),
(823,-81,l),
(549,106,l),
(461,165,o),
(397,165,qs),
(357,165,o),
(333,141,qs),
(305,113,o),
(305,68,qs),
(305,41,o),
(317,25,q),
(341,-11,o),
(391,-11,qs),
(432,-11,o),
(468,11,q),
(504,-51,l),
(451,-83,o),
(390,-83,qs),
(350,-83,o),
(281,-50,o),
(258,-16,qs),
(234,19,o),
(234,68,qs),
(234,102,o),
(260,168,o),
(283,192,qs),
(289,198,o),
(296,203,q),
(61,438,l),
(75,497,l)
);
},
{
closed = 1;
nodes = (
(823,5,l),
(823,691,l),
(489,691,l),
(489,631,l),
(596,627,o),
(729,498,o),
(735,416,q),
(736,409,o),
(736,402,qs),
(736,335,o),
(653,246,o),
(586,241,q),
(581,313,l),
(624,316,o),
(665,367,o),
(665,402,q),
(664,411,l),
(660,468,o),
(566,555,o),
(489,559,q),
(489,218,l),
(536,200,o),
(589,165,qs)
);
},
{
closed = 1;
nodes = (
(152,448,l),
(366,234,l),
(381,236,o),
(397,236,qs),
(407,236,o),
(417,235,q),
(417,543,l)
);
}
);
width = 973;
}
);
},
{
glyphname = "ka_signviramacomb_ramiddlediagonal-bng2.blwf";
layers = (
{
anchors = (
{
name = Anchor_5;
pos = (518,690);
},
{
name = Anchor_3;
pos = (511,690);
},
{
name = Anchor_6;
pos = (517,287);
},
{
name = Anchor_17;
pos = (518,314);
},
{
name = Anchor_18;
pos = (517,311);
},
{
name = Anchor_9;
pos = (516,2);
},
{
name = Anchor_10;
pos = (518,307);
},
{
name = Anchor_11;
pos = (514,244);
}
);
layerId = m000;
shapes = (
{
closed = 1;
nodes = (
(943,691,l),
(-9,691,l),
(-9,763,l),
(943,763,l)
);
},
{
closed = 1;
nodes = (
(517,1,l),
(517,62,l),
(485,93,o),
(395,111,o),
(317,114,qs),
(248,116,o),
(227,119,qs),
(134,133,o),
(89,214,qs),
(62,264,o),
(62,327,qs),
(62,393,o),
(91,459,q),
(156,430,l),
(133,377,o),
(133,326,qs),
(133,282,o),
(151,248,qs),
(179,197,o),
(237,189,qs),
(254,187,o),
(319,185,qs),
(387,183,o),
(477,170,o),
(517,149,q),
(517,513,l),
(517,549,o),
(501,557,q),
(493,560,o),
(482,560,qs),
(457,560,o),
(384,529,o),
(358,508,qs),
(313,471,o),
(313,427,qs),
(313,413,o),
(318,402,qs),
(332,372,o),
(377,372,qs),
(392,372,o),
(409,376,q),
(425,306,l),
(400,301,o),
(377,301,qs),
(332,301,o),
(269,340,o),
(254,371,qs),
(241,397,o),
(241,428,qs),
(241,464,o),
(278,535,o),
(312,563,qs),
(345,590,o),
(439,632,o),
(481,632,qs),
(509,632,o),
(531,621,q),
(589,595,o),
(589,514,qs),
(589,464,l),
(607,481,o),
(630,491,qs),
(672,510,o),
(713,510,qs),
(729,510,o),
(744,507,q),
(807,492,o),
(844,442,q),
(883,384,o),
(883,317,qs),
(883,269,o),
(861,225,qs),
(848,198,o),
(798,156,o),
(768,149,q),
(750,144,o),
(731,144,qs),
(694,144,o),
(654,161,q),
(681,227,l),
(705,218,o),
(727,218,qs),
(773,218,o),
(796,260,qs),
(810,284,o),
(810,316,qs),
(810,364,o),
(785,400,qs),
(765,427,o),
(730,437,qs),
(719,440,o),
(706,440,qs),
(682,440,o),
(660,430,q),
(615,412,o),
(589,363,q),
(589,1,l)
);
}
);
width = 934;
}
);
},
{
glyphname = "ka_signviramacomb_la-bng2.akhn";
layers = (
{
anchors = (
{
name = Anchor_5;
pos = (513,690);
},
{
name = Anchor_3;
pos = (457,690);
},
{
name = Anchor_6;
pos = (440,87);
},
{
name = Anchor_17;
pos = (442,174);
},
{
name = Anchor_18;
pos = (442,198);
},
{
name = Anchor_9;
pos = (440,-100);
},
{
name = Anchor_10;
pos = (441,74);
},
{
name = Anchor_11;
pos = (436,36);
}
);
layerId = m000;
shapes = (
{
closed = 1;
nodes = (
(441,-98,l),
(441,45,l),
(424,80,o),
(397,83,q),
(394,83,l),
(348,83,o),
(346,33,q),
(346,23,l),
(275,15,l),
(271,67,o),
(223,120,o),
(192,120,qs),
(164,120,o),
(124,79,o),
(124,45,qs),
(124,18,o),
(137,-13,q),
(155,-45,o),
(201,-45,qs),
(214,-45,o),
(229,-43,q),
(244,-113,l),
(223,-117,o),
(200,-117,qs),
(175,-117,o),
(152,-110,qs),
(105,-96,o),
(53,-12,o),
(53,40,qs),
(53,92,o),
(79,133,qs),
(97,162,o),
(156,191,o),
(189,191,qs),
(227,191,o),
(294,156,o),
(314,125,q),
(350,151,o),
(385,151,qs),
(414,151,o),
(441,133,q),
(441,158,l),
(88,435,l),
(98,497,l),
(441,620,l),
(441,691,l),
(-9,691,l),
(-9,763,l),
(832,763,l),
(832,691,l),
(512,691,l),
(512,631,l),
(620,628,o),
(754,498,o),
(761,416,q),
(762,409,o),
(762,402,qs),
(762,336,o),
(678,247,o),
(611,241,q),
(605,313,l),
(649,316,o),
(690,367,o),
(690,402,qs),
(690,411,l),
(685,469,o),
(590,556,o),
(512,559,q),
(512,-98,l)
);
},
{
closed = 1;
nodes = (
(441,249,l),
(441,544,l),
(183,452,l)
);
}
);
width = 823;
}
);
},
{
glyphname = "ka_signviramacomb_ssa-bng2.akhn";
layers = (
{
anchors = (
{
name = Anchor_5;
pos = (470,690);
},
{
name = Anchor_3;
pos = (472,690);
},
{
name = Anchor_6;
pos = (482,287);
},
{
name = Anchor_17;
pos = (484,314);
},
{
name = Anchor_18;
pos = (483,313);
},
{
name = Anchor_9;
pos = (482,2);
},
{
name = Anchor_10;
pos = (483,324);
},
{
name = Anchor_11;
pos = (479,302);
}
);
layerId = m000;
shapes = (
{
closed = 1;
nodes = (
(99,604,qs),
(99,641,o),
(60,691,q),
(-9,691,l),
(-9,763,l),
(866,763,l),
(866,691,l),
(554,691,l),
(554,526,l),
(581,529,o),
(605,529,qs),
(710,529,o),
(762,469,qs),
(796,431,o),
(796,381,qs),
(796,358,o),
(787,335,qs),
(755,257,o),
(662,241,q),
(652,313,l),
(705,320,o),
(721,360,q),
(724,370,o),
(724,381,qs),
(724,404,o),
(708,422,qs),
(677,458,o),
(604,458,qs),
(581,458,o),
(554,454,q),
(554,1,l),
(483,1,l),
(483,86,l),
(424,179,o),
(328,259,o),
(283,259,qs),
(245,259,o),
(199,232,q),
(198,232,l),
(163,294,l),
(217,325,o),
(217,374,q),
(216,383,l),
(213,412,o),
(173,463,o),
(148,471,qs),
(138,474,o),
(130,474,qs),
(111,474,o),
(95,460,q),
(91,456,o),
(87,452,q),
(35,501,l),
(46,512,l),
(73,539,o),
(99,581,o)
);
},
{
closed = 1;
nodes = (
(359,472,qs),
(314,506,o),
(283,620,o),
(280,691,q),
(145,691,l),
(171,645,o),
(171,603,qs),
(171,572,o),
(157,542,q),
(161,541,o),
(170,540,q),
(215,524,o),
(281,440,o),
(287,390,qs),
(288,381,o),
(288,372,qs),
(288,350,o),
(281,331,q),
(284,331,l),
(386,331,o),
(483,210,q),
(483,441,l),
(471,440,o),
(460,440,qs),
(401,440,o)
);
},
{
closed = 1;
nodes = (
(483,513,q),
(483,691,l),
(351,691,l),
(353,636,o),
(375,550,o),
(403,528,qs),
(425,511,o),
(460,511,qs),
(471,511,o)
);
}
);
width = 857;
}
);
},
{
glyphname = "ka_signviramacomb_ssa_signviramacomb_nna-bng2.akhn";
layers = (
{
anchors = (
{
name = Anchor_5;
pos = (486,690);
},
{
name = Anchor_3;
pos = (497,690);
},
{
name = Anchor_6;
pos = (499,110);
},
{
name = Anchor_17;
pos = (501,205);
},
{
name = Anchor_18;
pos = (500,213);
},
{
name = Anchor_9;
pos = (500,-97);
},
{
name = Anchor_10;
pos = (500,85);
},
{
name = Anchor_11;
pos = (495,89);
}
);
layerId = m000;
shapes = (
{
closed = 1;
nodes = (
(108,634,qs),
(108,658,o),
(80,691,q),
(-9,691,l),
(-9,763,l),
(875,763,l),
(875,691,l),
(571,691,l),
(571,537,l),
(597,540,o),
(621,540,qs),
(727,540,o),
(781,480,q),
(812,443,o),
(812,397,qs),
(812,374,o),
(804,352,q),
(772,275,o),
(678,261,q),
(669,332,l),
(722,340,o),
(737,378,q),
(741,387,o),
(741,397,qs),
(741,416,o),
(728,433,q),
(697,468,o),
(620,468,qs),
(597,468,o),
(571,465,q),
(571,-98,l),
(500,-98,l),
(500,24,l),
(401,104,l),
(354,142,o),
(316,142,qs),
(303,142,o),
(292,137,q),
(253,122,o),
(242,74,q),
(240,64,o),
(240,55,qs),
(240,20,o),
(265,1,qs),
(284,-13,o),
(310,-13,qs),
(331,-13,o),
(351,-3,q),
(383,-67,l),
(349,-84,o),
(310,-84,qs),
(259,-84,o),
(222,-55,qs),
(169,-12,o),
(169,54,qs),
(169,71,o),
(172,87,q),
(191,175,o),
(268,205,qs),
(290,213,o),
(315,213,qs),
(380,213,o),
(446,159,qs),
(500,116,l),
(500,192,l),
(468,260,o),
(391,287,qs),
(355,300,o),
(314,300,qs),
(250,300,o),
(192,269,q),
(157,332,l),
(212,364,o),
(212,413,qs),
(212,422,l),
(209,450,o),
(172,497,o),
(147,505,qs),
(138,508,o),
(130,508,qs),
(112,508,o),
(97,495,qs),
(97,495,o),
(95,493,qs),
(87,485,l),
(35,534,l),
(48,547,l),
(81,580,o),
(108,616,o)
);
},
{
closed = 1;
nodes = (
(374,484,qs),
(331,517,o),
(300,625,o),
(296,691,q),
(165,691,l),
(180,662,o),
(180,634,qs),
(180,604,o),
(163,575,q),
(166,574,o),
(169,573,qs),
(214,558,o),
(278,477,o),
(282,429,qs),
(283,419,o),
(283,410,qs),
(283,389,o),
(277,369,q),
(296,371,o),
(315,371,qs),
(369,371,o),
(416,354,qs),
(463,337,o),
(500,306,q),
(500,453,l),
(488,452,o),
(476,452,qs),
(415,452,o)
);
},
{
closed = 1;
nodes = (
(500,525,q),
(500,691,l),
(369,691,l),
(371,640,o),
(392,560,o),
(418,540,qs),
(440,523,o),
(477,523,qs),
(488,523,o)
);
}
);
width = 866;
}
);
},
{
glyphname = "ka_signviramacomb_ssa_signviramacomb_ralowerdiagonal-bng2.akhn";
layers = (
{
anchors = (
{
name = Anchor_5;
pos = (462,690);
},
{
name = Anchor_3;
pos = (485,690);
},
{
name = Anchor_6;
pos = (482,206);
},
{
name = Anchor_17;
pos = (484,215);
},
{
name = Anchor_18;
pos = (483,208);
},
{
name = Anchor_9;
pos = (482,-99);
},
{
name = Anchor_10;
pos = (482,204);
},
{
name = Anchor_11;
pos = (478,192);
}
);
layerId = m000;
shapes = (
{
closed = 1;
nodes = (
(99,617,qs),
(99,645,o),
(60,691,q),
(-9,691,l),
(-9,763,l),
(856,763,l),
(856,691,l),
(554,691,l),
(554,526,l),
(579,529,o),
(603,529,qs),
(663,529,o),
(740,493,o),
(762,468,qs),
(795,430,o),
(795,381,qs),
(795,357,o),
(787,335,q),
(754,256,o),
(661,241,q),
(652,313,l),
(704,320,o),
(720,360,qs),
(724,370,o),
(724,381,qs),
(724,404,o),
(708,422,qs),
(676,458,o),
(603,458,qs),
(580,458,o),
(554,454,q),
(554,-100,l),
(482,-100,l),
(482,-41,l),
(172,117,l),
(175,182,l),
(370,258,l),
(310,306,o),
(255,306,qs),
(222,306,o),
(190,289,q),
(156,351,l),
(210,382,o),
(210,422,qs),
(210,428,l),
(203,477,o),
(155,497,q),
(143,501,o),
(132,501,qs),
(112,501,o),
(96,488,qs),
(90,483,o),
(85,478,q),
(35,528,l),
(35,528,o),
(48,541,qs),
(75,567,o),
(99,599,o)
);
},
{
closed = 1;
nodes = (
(358,472,qs),
(314,506,o),
(282,620,o),
(279,691,q),
(147,691,l),
(170,650,o),
(170,614,qs),
(170,591,o),
(161,569,q),
(165,569,o),
(178,565,q),
(221,550,o),
(278,477,o),
(281,434,q),
(282,428,o),
(282,422,qs),
(282,399,o),
(273,377,q),
(360,368,o),
(446,287,q),
(482,301,l),
(482,441,l),
(470,440,o),
(458,440,qs),
(399,440,o)
);
},
{
closed = 1;
nodes = (
(275,144,l),
(482,39,l),
(482,225,l)
);
},
{
closed = 1;
nodes = (
(482,513,q),
(482,691,l),
(351,691,l),
(353,636,o),
(374,550,o),
(402,528,qs),
(424,511,o),
(459,511,qs),
(470,511,o)
);
}
);
width = 847;
}
);
},
{
glyphname = "ka_signviramacomb_ssa_signviramacomb_ma-bng2.akhn";
layers = (
{
anchors = (
{
name = Anchor_5;
pos = (549,690);
},
{
name = Anchor_3;
pos = (881,690);
},
{
name = Anchor_6;
pos = (881,168);
},
{
name = Anchor_17;
pos = (883,218);
},
{
name = Anchor_18;
pos = (882,210);
},
{
name = Anchor_9;
pos = (882,-88);
},
{
name = Anchor_10;
pos = (882,127);
},
{
name = Anchor_11;
pos = (877,47);
}
);
layerId = m000;
shapes = (
{
closed = 1;
nodes = (
(99,609,qs),
(99,645,o),
(64,691,q),
(-9,691,l),
(-9,763,l),
(1041,763,l),
(1041,691,l),
(953,691,l),
(953,-98,l),
(881,-98,l),
(881,-84,l),
(607,104,l),
(519,163,o),
(456,163,qs),
(416,163,o),
(392,139,qs),
(364,112,o),
(364,67,qs),
(364,40,o),
(376,23,qs),
(400,-13,o),
(450,-13,qs),
(491,-13,o),
(527,9,q),
(563,-53,l),
(509,-85,o),
(449,-85,qs),
(408,-85,o),
(339,-52,o),
(317,-17,q),
(293,18,o),
(293,66,qs),
(293,101,o),
(318,167,o),
(341,190,qs),
(360,208,o),
(383,219,q),
(333,265,o),
(283,265,qs),
(244,265,o),
(198,238,q),
(163,300,l),
(217,331,o),
(217,380,q),
(216,388,l),
(213,417,o),
(173,468,o),
(148,477,q),
(138,480,o),
(130,480,qs),
(111,480,o),
(95,466,q),
(87,458,l),
(35,507,l),
(46,518,l),
(73,545,o),
(99,587,o)
);
},
{
closed = 1;
nodes = (
(359,478,qs),
(316,511,o),
(283,622,o),
(280,691,q),
(149,691,l),
(171,648,o),
(171,609,qs),
(171,578,o),
(157,548,q),
(178,543,o),
(170,545,q),
(215,530,o),
(281,446,o),
(287,396,qs),
(288,387,o),
(288,377,qs),
(288,356,o),
(281,336,q),
(284,336,l),
(380,336,o),
(468,234,q),
(476,233,o),
(483,233,q),
(483,447,l),
(471,446,o),
(459,446,qs),
(400,446,o)
);
},
{
closed = 1;
nodes = (
(881,3,l),
(881,691,l),
(554,691,l),
(554,532,l),
(580,535,o),
(603,535,qs),
(709,535,o),
(762,474,qs),
(796,436,o),
(796,387,qs),
(796,363,o),
(787,341,qs),
(755,262,o),
(662,247,q),
(652,318,l),
(705,326,o),
(721,365,q),
(724,376,o),
(724,386,qs),
(724,410,o),
(708,428,qs),
(676,464,o),
(603,464,qs),
(580,464,o),
(554,460,q),
(554,213,l),
(599,195,o),
(647,163,qs)
);
},
{
closed = 1;
nodes = (
(483,519,q),
(483,691,l),
(351,691,l),
(358,569,o),
(403,534,qs),
(425,517,o),
(460,517,qs),
(471,517,o)
);
}
);
width = 1032;
}
);
},
{
glyphname = "ka_signviramacomb_sa-bng2.akhn";
layers = (
{
anchors = (
{
name = Anchor_5;
pos = (489,690);
},
{
name = Anchor_3;
pos = (821,690);
},
{
name = Anchor_6;
pos = (823,199);
},
{
name = Anchor_17;
pos = (825,214);
},
{
name = Anchor_18;
pos = (825,213);
},
{
name = Anchor_9;
pos = (822,-97);
},
{
name = Anchor_10;
pos = (824,201);
},
{
name = Anchor_11;
pos = (819,171);
}
);
layerId = m000;
shapes = (
{
closed = 1;
nodes = (
(416,619,l),
(416,691,l),
(-9,691,l),
(-9,763,l),
(983,763,l),
(983,691,l),
(895,691,l),
(895,-98,l),
(824,-98,l),
(824,-44,l),
(764,58,o),
(685,113,qs),
(627,152,o),
(571,152,qs),
(536,152,o),
(505,137,qs),
(488,129,o),
(422,86,o),
(410,79,qs),
(354,45,o),
(281,42,q),
(267,42,l),
(207,42,o),
(161,69,qs),
(119,95,o),
(65,143,q),
(112,195,l),
(152,157,o),
(236,117,o),
(285,116,qs),
(327,116,o),
(372,143,q),
(383,149,o),
(407,164,q),
(63,435,l),
(73,497,l)
);
},
{
closed = 1;
nodes = (
(824,65,q),
(824,691,l),
(487,691,l),
(487,630,l),
(595,628,o),
(727,515,o),
(733,444,q),
(733,433,l),
(733,377,o),
(655,290,o),
(581,284,q),
(575,356,l),
(620,359,o),
(662,403,o),
(662,432,qs),
(662,438,l),
(658,486,o),
(564,557,o),
(487,559,q),
(487,208,l),
(529,225,o),
(572,225,qs),
(590,225,o),
(606,222,qs),
(666,211,o),
(724,170,q),
(781,127,o)
);
},
{
closed = 1;
nodes = (
(416,248,l),
(416,543,l),
(158,451,l)
);
}
);
width = 974;
}
);
},
{
glyphname = "kha_signviramacomb_ralowerdiagonal-bng2.blwf";
layers = (
{
anchors = (
{
name = Anchor_5;
pos = (529,690);
},
{
name = Anchor_3;
pos = (521,690);
},
{
name = Anchor_6;
pos = (521,189);
},
{
name = Anchor_17;
pos = (524,211);
},
{
name = Anchor_18;
pos = (522,211);
},
{
name = Anchor_9;
pos = (523,-102);
},
{
name = Anchor_10;
pos = (523,200);
},
{
name = Anchor_11;
pos = (518,207);
}
);
layerId = m000;
shapes = (
{
closed = 1;
nodes = (
(523,327,l),
(523,763,l),
(682,763,l),
(682,691,l),
(594,691,l),
(594,-101,l),
(523,-101,l),
(523,-40,l),
(208,174,l),
(218,237,l),
(356,278,l),
(124,399,l),
(151,465,l),
(165,461,o),
(182,461,qs),
(227,461,o),
(325,515,o),
(350,555,qs),
(367,583,o),
(367,613,qs),
(367,645,o),
(348,677,q),
(336,658,l),
(311,620,o),
(223,578,o),
(173,578,qs),
(111,578,o),
(62,609,q),
(101,669,l),
(133,649,o),
(174,649,qs),
(206,649,o),
(261,674,o),
(276,697,qs),
(315,758,l),
(371,762,l),
(439,691,o),
(439,613,qs),
(439,563,o),
(410,518,qs),
(359,439,o),
(267,405,q),
(455,307,l)
);
},
{
closed = 1;
nodes = (
(523,47,l),
(523,252,l),
(311,190,l)
);
}
);
width = 673;
}
);
},
{
glyphname = "kha_signviramacomb_ralowerdiagonal-bng2.blwf.alt";
layers = (
{
anchors = (
{
name = Anchor_5;
pos = (596,688);
},
{
name = Anchor_3;
pos = (524,692);
},
{
name = Anchor_6;
pos = (522,206);
},
{
name = Anchor_17;
pos = (524,215);
},
{
name = Anchor_18;
pos = (524,206);
},
{
name = Anchor_9;
pos = (524,-99);
},
{
name = Anchor_10;
pos = (523,208);
},
{
name = Anchor_11;
pos = (518,213);
}
);
layerId = m000;
shapes = (
{
closed = 1;
nodes = (
(523,329,l),
(523,763,l),
(682,763,l),
(682,691,l),
(594,691,l),
(594,-98,l),
(523,-98,l),
(523,-37,l),
(209,176,l),
(219,240,l),
(350,279,l),
(124,398,l),
(151,463,l),
(164,459,o),
(181,459,qs),
(225,459,o),
(322,510,o),
(349,553,qs),
(367,582,o),
(367,614,qs),
(367,645,o),
(348,679,q),
(337,660,l),
(297,600,o),
(219,584,q),
(196,578,o),
(173,578,qs),
(112,578,o),
(62,611,q),
(101,671,l),
(132,650,o),
(173,650,qs),
(188,650,o),
(204,653,q),
(253,664,o),
(276,699,qs),
(315,760,l),
(372,765,l),
(439,693,o),
(439,614,qs),
(439,562,o),
(410,516,qs),
(357,437,o),
(265,404,q),
(447,307,l)
);
},
{
closed = 1;
nodes = (
(523,49,l),
(523,255,l),
(311,193,l)
);
}
);
width = 673;
}
);
},
{
glyphname = "kha_signviramacomb_ramiddlediagonal-bng2.blwf";
layers = (
{
anchors = (
{
name = Anchor_5;
pos = (525,690);
},
{
name = Anchor_3;
pos = (529,690);
},
{
name = Anchor_6;
pos = (524,185);
},
{
name = Anchor_17;
pos = (526,212);
},
{
name = Anchor_18;
pos = (526,213);
},
{
name = Anchor_9;
pos = (523,-99);
},
{
name = Anchor_10;
pos = (525,169);
},
{
name = Anchor_11;
pos = (521,133);
}
);
layerId = m000;
shapes = (
{
closed = 1;
nodes = (
(525,197,l),
(525,763,l),
(667,763,l),
(667,691,l),
(596,691,l),
(596,-98,l),
(525,-98,l),
(525,-45,l),
(497,-16,o),
(447,8,o),
(419,8,qs),
(398,8,o),
(353,-2,qs),
(298,-13,o),
(267,-13,qs),
(234,-13,o),
(203,-3,qs),
(79,35,o),
(66,164,q),
(137,170,l),
(145,88,o),
(223,64,q),
(243,59,o),
(266,59,qs),
(290,59,o),
(339,69,qs),
(391,80,o),
(420,80,qs),
(476,80,o),
(525,48,q),
(525,116,l),
(124,344,l),
(155,408,l),
(168,404,o),
(184,404,qs),
(223,404,o),
(308,453,o),
(336,492,qs),
(369,539,o),
(369,592,qs),
(369,631,o),
(350,671,q),
(340,652,l),
(298,579,o),
(215,561,q),
(195,556,o),
(175,556,qs),
(112,556,o),
(62,595,q),
(105,651,l),
(137,628,o),
(176,628,qs),
(189,628,o),
(201,630,q),
(252,642,o),
(277,687,qs),
(316,758,l),
(375,763,l),
(441,680,o),
(441,591,qs),
(441,517,o),
(395,451,q),
(338,375,o),
(256,346,q)
);
}
);
width = 658;
}
);
},
{
glyphname = "kha_signviramacomb_ramiddlediagonal-bng2.blwf.alt";
layers = (
{
anchors = (
{
name = Anchor_5;
pos = (520,688);
},
{
name = Anchor_3;
pos = (520,696);
},
{
name = Anchor_6;
pos = (518,185);
},
{
name = Anchor_17;
pos = (520,185);
},
{
name = Anchor_18;
pos = (520,214);
},
{
name = Anchor_9;
pos = (518,-98);
},
{
name = Anchor_10;
pos = (519,173);
},
{
name = Anchor_11;
pos = (515,136);
}
);
layerId = m000;
shapes = (
{
closed = 1;
nodes = (
(519,198,l),
(519,763,l),
(678,763,l),
(678,691,l),
(591,691,l),
(591,-98,l),
(519,-98,l),
(519,-45,l),
(491,-16,o),
(441,8,o),
(414,8,qs),
(393,8,o),
(348,-2,q),
(291,-13,o),
(262,-13,qs),
(228,-13,o),
(197,-3,qs),
(74,35,o),
(60,164,q),
(131,170,l),
(139,88,o),
(218,64,q),
(238,59,o),
(260,59,qs),
(283,59,o),
(333,69,qs),
(386,80,o),
(414,80,qs),
(470,80,o),
(519,48,q),
(519,117,l),
(119,344,l),
(149,408,l),
(163,404,o),
(179,404,qs),
(218,404,o),
(302,453,o),
(330,492,qs),
(364,538,o),
(364,592,qs),
(364,626,o),
(349,661,q),
(319,595,o),
(242,510,o),
(189,510,qs),
(180,510,o),
(172,511,q),
(123,520,o),
(98,555,qs),
(73,591,o),
(73,649,qs),
(73,686,o),
(83,734,q),
(152,721,l),
(144,679,o),
(144,650,qs),
(144,614,o),
(156,597,q),
(166,584,o),
(182,583,q),
(186,582,o),
(189,582,qs),
(222,582,o),
(279,675,o),
(308,753,q),
(370,763,l),
(435,681,o),
(435,592,qs),
(435,517,o),
(388,451,qs),
(332,375,o),
(251,346,q)
);
}
);
width = 669;
}
);
},
{
glyphname = "ga_vowelsignucomb-bng2.blws";
layers = (
{
anchors = (
{
name = Anchor_5;
pos = (461,655);
},
{
name = Anchor_3;
pos = (444,655);
}
);
layerId = m000;
shapes = (
{
closed = 1;
nodes = (
(416,0,q),
(298,11,o),
(80,169,o),
(40,369,q),
(115,385,l),
(142,251,o),
(277,112,o),
(423,76,o),
(480,84,qs),
(542,94,o),
(618,190,o),
(615,241,q),
(604,325,o),
(497,323,q),
(494,394,l),
(590,399,o),
(613,446,qs),
(632,485,o),
(594,610,o),
(558,672,q),
(485,555,l),
(427,552,l),
(373,618,l),
(291,721,o),
(217,678,qs),
(186,660,o),
(152,590,o),
(155,557,q),
(339,577,o),
(380,499,qs),
(402,457,o),
(353,344,o),
(281,267,q),
(229,316,l),
(294,386,o),
(322,455,o),
(317,466,q),
(308,482,o),
(218,494,o),
(134,483,q),
(97,503,l),
(71,565,o),
(119,701,o),
(180,740,qs),
(223,766,o),
(357,755,o),
(429,663,qs),
(451,635,l),
(528,758,l),
(587,760,l),
(632,698,o),
(716,495,o),
(678,415,q),
(660,380,o),
(627,358,q),
(653,337,o),
(683,279,o),
(686,248,qs),
(692,170,o),
(587,26,o),
(491,4,q),
(460,-2,o)
);
}
);
width = 753;
}
);
},
{
glyphname = "ga_vowelsignucomb-bng2.blws.alt";
layers = (
{
anchors = (
{
name = Anchor_5;
pos = (439,667);
},
{
name = Anchor_3;
pos = (429,686);
}
);
layerId = m000;
shapes = (
{
closed = 1;
nodes = (
(60,369,l),
(105,185,o),
(309,9,o),
(436,1,qs),
(464,-1,o),
(491,5,qs),
(587,27,o),
(692,172,o),
(686,249,qs),
(683,280,o),
(653,338,o),
(626,359,q),
(660,381,o),
(676,416,q),
(715,495,o),
(627,699,o),
(582,762,q),
(523,761,l),
(441,638,l),
(405,675,l),
(327,757,o),
(201,761,o),
(161,731,qs),
(108,689,o),
(71,552,o),
(98,500,q),
(112,475,o),
(179,443,o),
(237,467,qs),
(291,489,o),
(308,469,q),
(321,450,o),
(288,355,o),
(237,299,q),
(290,251,l),
(357,324,o),
(398,465,o),
(366,510,q),
(316,575,o),
(209,533,qs),
(170,517,o),
(160,535,qs),
(146,560,o),
(172,651,o),
(203,674,qs),
(237,699,o),
(316,665,o),
(353,625,qs),
(420,556,l),
(475,561,l),
(552,676,l),
(590,613,o),
(631,486,o),
(612,447,qs),
(589,400,o),
(494,396,q),
(497,324,l),
(604,326,o),
(615,242,q),
(620,190,o),
(545,96,o),
(480,86,qs),
(429,78,o),
(299,106,o),
(167,242,o),
(135,386,q)
);
}
);
width = 752;
}
);
},
{
glyphname = "ga_signviramacomb_ga-bng2.akhn";
layers = (
{
anchors = (
{
name = Anchor_5;
pos = (491,693);
},
{
name = Anchor_3;
pos = (484,693);
},
{
name = Anchor_6;
pos = (484,146);
},
{
name = Anchor_17;
pos = (486,214);
},
{
name = Anchor_18;
pos = (486,214);
},
{
name = Anchor_9;
pos = (486,-100);
},
{
name = Anchor_10;
pos = (485,123);
},
{
name = Anchor_11;
pos = (481,118);
}
);
layerId = m000;
shapes = (
{
closed = 1;
nodes = (
(485,612,l),
(485,763,l),
(646,763,l),
(646,691,l),
(556,691,l),
(556,-99,l),
(485,-99,l),
(485,190,l),
(401,277,l),
(309,371,o),
(245,336,qs),
(220,322,o),
(190,258,o),
(190,222,q),
(254,246,o),
(341,239,o),
(364,208,qs),
(394,166,o),
(340,23,o),
(261,-65,q),
(208,-16,l),
(272,54,o),
(314,157,o),
(306,166,q),
(301,173,o),
(236,167,o),
(177,139,q),
(128,161,l),
(108,230,o),
(155,367,o),
(210,398,q),
(236,414,o),
(267,416,q),
(288,472,o),
(275,484,q),
(265,494,o),
(187,485,o),
(119,454,q),
(70,476,l),
(47,553,o),
(101,709,o),
(163,744,qs),
(208,771,o),
(350,753,o),
(437,662,qs)
);
},
{
closed = 1;
nodes = (
(326,534,qs),
(343,516,o),
(356,454,o),
(340,406,q),
(396,385,o),
(452,326,qs),
(485,292,l),
(485,509,l),
(385,612,l),
(277,725,o),
(198,682,qs),
(166,664,o),
(130,582,o),
(132,536,q),
(201,563,o),
(299,562,o)
);
}
);
width = 636;
}
);
},
{
glyphname = "ga_signviramacomb_dha-bng2.akhn";
layers = (
{
anchors = (
{
name = Anchor_5;
pos = (489,693);
},
{
name = Anchor_3;
pos = (481,689);
},
{
name = Anchor_6;
pos = (484,199);
},
{
name = Anchor_17;
pos = (486,244);
},
{
name = Anchor_18;
pos = (486,245);
},
{
name = Anchor_9;
pos = (486,-67);
},
{
name = Anchor_10;
pos = (485,209);
},
{
name = Anchor_11;
pos = (481,215);
}
);
layerId = m000;
shapes = (
{
closed = 1;
nodes = (
(485,612,l),
(485,763,l),
(811,763,l),
(811,691,l),
(556,691,l),
(556,368,l),
(679,436,l),
(732,405,l),
(732,51,l),
(660,51,l),
(660,344,l),
(556,287,l),
(556,-67,l),
(485,-67,l),
(485,-31,l),
(222,121,l),
(223,183,l),
(485,329,l),
(485,509,l),
(385,612,l),
(277,725,o),
(198,683,q),
(166,664,o),
(130,582,o),
(132,537,q),
(288,601,o),
(331,540,qs),
(388,462,o),
(204,259,q),
(151,308,l),
(223,387,o),
(277,485,o),
(273,498,q),
(274,499,o),
(263,499,qs),
(218,499,o),
(119,454,q),
(70,476,l),
(47,553,o),
(101,709,o),
(163,744,qs),
(208,771,o),
(350,753,o),
(437,662,qs)
);
},
{
closed = 1;
nodes = (
(313,151,l),
(485,51,l),
(485,247,l)
);
}
);
width = 802;
}
);
},
{
glyphname = "ga_signviramacomb_dha_signviramacomb_ramiddlediagonal-bng2.akhn";
layers = (
{
anchors = (
{
name = Anchor_5;
pos = (480,687);
},
{
name = Anchor_3;
pos = (485,687);
},
{
name = Anchor_6;
pos = (484,36);
},
{
name = Anchor_17;
pos = (486,118);
},
{
name = Anchor_18;
pos = (485,113);
},
{
name = Anchor_9;
pos = (487,-197);
},
{
name = Anchor_10;
pos = (485,17);
},
{
name = Anchor_11;
pos = (481,-3);
}
);
layerId = m000;
shapes = (
{
closed = 1;
nodes = (
(485,-198,l),
(485,-170,l),
(461,-142,o),
(418,-119,o),
(396,-119,qs),
(378,-119,o),
(338,-129,qs),
(285,-141,o),
(258,-141,qs),
(228,-141,o),
(200,-132,q),
(88,-92,o),
(77,36,q),
(148,42,l),
(155,-40,o),
(223,-64,q),
(240,-69,o),
(259,-69,qs),
(279,-69,o),
(321,-59,qs),
(369,-48,o),
(396,-48,qs),
(444,-48,o),
(485,-75,q),
(485,-11,l),
(222,141,l),
(223,203,l),
(485,349,l),
(485,509,l),
(385,612,l),
(277,725,o),
(198,683,q),
(166,664,o),
(130,582,o),
(132,537,q),
(288,601,o),
(331,540,qs),
(388,462,o),
(204,259,q),
(151,308,l),
(223,387,o),
(277,485,o),
(273,498,q),
(274,499,o),
(263,499,qs),
(218,499,o),
(119,454,q),
(70,476,l),
(47,553,o),
(101,709,o),
(163,744,qs),
(208,771,o),
(350,753,o),
(437,662,qs),
(485,612,l),
(485,763,l),
(811,763,l),
(811,691,l),
(557,691,l),
(557,388,l),
(679,456,l),
(732,425,l),
(732,71,l),
(660,71,l),
(660,364,l),
(557,307,l),
(557,-198,l)
);
},
{
closed = 1;
nodes = (
(313,171,l),
(485,71,l),
(485,267,l)
);
}
);
width = 802;
}
);
},
{
glyphname = "ga_signviramacomb_na-bng2.akhn";
layers = (
{
anchors = (
{
name = Anchor_5;
pos = (469,690);
},
{
name = Anchor_3;
pos = (465,690);
},
{
name = Anchor_6;
pos = (465,117);
},
{
name = Anchor_17;
pos = (467,224);
},
{
name = Anchor_18;
pos = (466,247);
},
{
name = Anchor_9;
pos = (465,-66);
},
{
name = Anchor_10;
pos = (466,109);
},
{
name = Anchor_11;
pos = (462,153);
}
);
layerId = m000;
shapes = (
{
closed = 1;
nodes = (
(466,611,l),
(466,763,l),
(625,763,l),
(625,691,l),
(537,691,l),
(537,-65,l),
(466,-65,l),
(466,53,l),
(366,133,l),
(320,171,o),
(280,171,qs),
(269,171,o),
(258,168,q),
(218,151,o),
(208,103,qs),
(206,93,o),
(206,84,qs),
(206,50,o),
(230,31,q),
(249,17,o),
(275,17,qs),
(296,17,o),
(317,27,q),
(348,-37,l),
(314,-55,o),
(275,-55,qs),
(225,-55,o),
(187,-26,qs),
(134,17,o),
(134,84,qs),
(134,101,o),
(138,117,q),
(157,204,o),
(234,234,qs),
(256,242,o),
(280,242,qs),
(345,242,o),
(411,189,qs),
(466,145,l),
(466,508,l),
(347,632,l),
(282,701,o),
(226,701,qs),
(202,701,o),
(181,687,q),
(159,671,o),
(133,620,o),
(133,597,qs),
(133,585,o),
(138,576,q),
(144,562,o),
(165,562,qs),
(177,562,o),
(194,567,qs),
(216,574,o),
(239,579,o),
(253,579,qs),
(301,579,o),
(328,550,qs),
(355,522,o),
(355,487,qs),
(355,475,o),
(352,463,qs),
(338,408,o),
(219,315,o),
(146,290,q),
(123,357,l),
(192,381,o),
(276,451,o),
(282,480,q),
(284,484,o),
(284,487,qs),
(284,494,o),
(276,501,q),
(271,507,o),
(253,507,qs),
(243,507,o),
(214,498,q),
(188,491,o),
(165,491,qs),
(126,491,o),
(82,526,o),
(73,545,qs),
(62,569,o),
(62,598,qs),
(62,639,o),
(105,721,o),
(140,745,qs),
(180,772,o),
(227,772,qs),
(312,772,o),
(398,681,qs)
);
}
);
width = 616;
}
);
},
{
glyphname = "ga_signviramacomb_ralowerdiagonal-bng2.blwf";
layers = (
{
anchors = (
{
name = Anchor_5;
pos = (465,690);
},
{
name = Anchor_3;
pos = (465,690);
},
{
name = Anchor_6;
pos = (465,185);
},
{
name = Anchor_17;
pos = (467,215);
},
{
name = Anchor_18;
pos = (466,213);
},
{
name = Anchor_9;
pos = (466,-98);
},
{
name = Anchor_10;
pos = (466,204);
},
{
name = Anchor_11;
pos = (461,211);
}
);
layerId = m000;
shapes = (
{
closed = 1;
nodes = (
(466,329,l),
(466,509,l),
(347,632,l),
(282,701,o),
(226,701,qs),
(202,701,o),
(181,687,q),
(159,671,o),
(133,620,o),
(133,597,qs),
(133,585,o),
(138,576,q),
(144,562,o),
(165,562,qs),
(177,562,o),
(194,567,qs),
(233,579,o),
(263,579,qs),
(311,579,o),
(338,550,qs),
(365,522,o),
(365,487,qs),
(365,475,o),
(362,463,qs),
(348,407,o),
(219,319,o),
(160,312,q),
(136,379,l),
(196,388,o),
(286,452,o),
(292,480,q),
(294,484,o),
(294,487,qs),
(294,494,o),
(286,501,q),
(281,507,o),
(263,507,qs),
(243,507,o),
(214,498,q),
(188,491,o),
(165,491,qs),
(126,491,o),
(82,526,o),
(73,545,qs),
(62,569,o),
(62,598,qs),
(62,639,o),
(105,721,o),
(140,745,qs),
(180,772,o),
(227,772,qs),
(312,772,o),
(398,681,qs),
(466,611,l),
(466,763,l),
(625,763,l),
(625,691,l),
(537,691,l),
(537,-98,l),
(466,-98,l),
(466,-37,l),
(151,176,l),
(161,240,l)
);
},
{
closed = 1;
nodes = (
(254,193,l),
(466,49,l),
(466,255,l)
);
}
);
width = 616;
}
);
},
{
glyphname = "ga_signviramacomb_ma-bng2.akhn";
layers = (
{
anchors = (
{
name = Anchor_5;
pos = (537,690);
},
{
name = Anchor_3;
pos = (705,690);
},
{
name = Anchor_6;
pos = (697,129);
},
{
name = Anchor_17;
pos = (699,233);
},
{
name = Anchor_18;
pos = (699,232);
},
{
name = Anchor_9;
pos = (699,-80);
},
{
name = Anchor_10;
pos = (698,118);
},
{
name = Anchor_11;
pos = (693,67);
}
);
layerId = m000;
shapes = (
{
closed = 1;
nodes = (
(466,613,l),
(466,763,l),
(857,763,l),
(857,691,l),
(769,691,l),
(769,-81,l),
(698,-81,l),
(698,25,l),
(579,104,l),
(489,163,o),
(426,163,qs),
(387,163,o),
(363,139,qs),
(335,111,o),
(335,67,qs),
(335,40,o),
(347,23,qs),
(371,-13,o),
(421,-13,qs),
(462,-13,o),
(498,9,q),
(534,-53,l),
(481,-84,o),
(420,-84,qs),
(333,-84,o),
(287,-17,qs),
(264,18,o),
(264,66,qs),
(264,101,o),
(289,167,o),
(313,190,qs),
(357,234,o),
(427,234,qs),
(446,234,o),
(466,231,q),
(466,509,l),
(346,633,l),
(287,697,o),
(235,697,qs),
(211,697,o),
(191,682,q),
(165,664,o),
(133,598,o),
(133,567,qs),
(133,550,o),
(139,538,q),
(148,522,o),
(168,522,qs),
(179,522,o),
(194,526,q),
(229,537,o),
(258,537,qs),
(298,537,o),
(341,504,o),
(349,484,qs),
(356,467,o),
(356,445,qs),
(356,386,o),
(259,249,o),
(186,210,q),
(152,272,l),
(212,305,o),
(285,409,o),
(285,443,qs),
(285,451,o),
(283,456,q),
(279,465,o),
(259,465,qs),
(241,465,o),
(214,458,q),
(190,451,o),
(168,451,qs),
(104,451,o),
(74,508,q),
(62,534,o),
(62,568,qs),
(62,617,o),
(110,714,o),
(150,741,qs),
(189,768,o),
(235,768,qs),
(317,768,o),
(398,682,qs)
);
},
{
closed = 1;
nodes = (
(698,110,l),
(698,691,l),
(537,691,l),
(537,208,l),
(576,191,o),
(618,163,qs)
);
}
);
width = 848;
}
);
},
{
glyphname = "ga_signviramacomb_ramiddlediagonal-bng2.blwf";
layers = (
{
anchors = (
{
name = Anchor_5;
pos = (469,690);
},
{
name = Anchor_3;
pos = (469,690);
},
{
name = Anchor_6;
pos = (465,262);
},
{
name = Anchor_17;
pos = (467,314);
},
{
name = Anchor_18;
pos = (467,315);
},
{
name = Anchor_9;
pos = (465,2);
},
{
name = Anchor_10;
pos = (466,263);
},
{
name = Anchor_11;
pos = (462,243);
}
);
layerId = m000;
shapes = (
{
closed = 1;
nodes = (
(466,613,l),
(466,763,l),
(625,763,l),
(625,691,l),
(537,691,l),
(537,1,l),
(466,1,l),
(466,49,l),
(444,78,o),
(400,101,o),
(374,101,qs),
(357,101,o),
(319,94,q),
(273,87,o),
(249,87,qs),
(213,87,o),
(182,98,qs),
(75,135,o),
(64,269,q),
(135,275,l),
(143,186,o),
(205,166,q),
(224,159,o),
(248,159,qs),
(269,159,o),
(308,166,q),
(351,172,o),
(373,172,qs),
(425,172,o),
(466,146,q),
(466,509,l),
(346,633,l),
(288,697,o),
(236,697,qs),
(212,697,o),
(191,682,q),
(165,665,o),
(134,599,o),
(134,569,qs),
(134,551,o),
(140,539,q),
(146,522,o),
(168,522,qs),
(179,522,o),
(194,526,q),
(237,539,o),
(271,539,qs),
(341,539,o),
(363,487,qs),
(370,470,o),
(370,451,qs),
(370,404,o),
(295,300,o),
(234,264,q),
(199,327,l),
(245,354,o),
(299,427,o),
(299,451,qs),
(299,456,o),
(298,459,q),
(294,468,o),
(270,468,qs),
(247,468,o),
(214,459,q),
(189,451,o),
(167,451,qs),
(104,451,o),
(74,508,q),
(62,534,o),
(62,568,qs),
(62,617,o),
(110,714,o),
(150,741,qs),
(189,768,o),
(236,768,qs),
(317,768,o),
(398,682,qs)
);
}
);
width = 616;
}
);
},
{
glyphname = "ga_signviramacomb_la-bng2.akhn";
layers = (
{
anchors = (
{
name = Anchor_5;
pos = (465,690);
},
{
name = Anchor_3;
pos = (465,690);
},
{
name = Anchor_6;
pos = (465,108);
},
{
name = Anchor_17;
pos = (467,216);
},
{
name = Anchor_18;
pos = (467,217);
},
{
name = Anchor_9;
pos = (464,-99);
},
{
name = Anchor_10;
pos = (466,74);
},
{
name = Anchor_11;
pos = (462,44);
}
);
layerId = m000;
shapes = (
{
closed = 1;
nodes = (
(466,-98,l),
(466,60,l),
(463,67,o),
(460,73,q),
(442,100,o),
(420,102,q),
(416,102,l),
(396,102,o),
(380,86,q),
(370,75,o),
(370,48,qs),
(370,43,l),
(369,42,l),
(370,42,l),
(299,34,l),
(296,68,o),
(269,120,o),
(247,132,qs),
(232,140,o),
(216,140,qs),
(199,140,o),
(170,124,o),
(161,111,q),
(148,94,o),
(148,61,qs),
(148,28,o),
(160,6,qs),
(179,-27,o),
(224,-27,qs),
(238,-27,o),
(252,-24,q),
(267,-94,l),
(242,-98,o),
(223,-98,qs),
(197,-98,o),
(175,-91,qs),
(125,-75,o),
(98,-29,q),
(77,10,o),
(77,61,qs),
(77,116,o),
(102,152,q),
(120,180,o),
(183,211,o),
(217,211,qs),
(252,211,o),
(281,195,qs),
(314,177,o),
(337,143,q),
(368,169,o),
(407,169,qs),
(420,169,o),
(433,166,qs),
(450,162,o),
(466,152,q),
(466,520,l),
(348,635,l),
(286,696,o),
(235,696,qs),
(209,696,o),
(187,680,q),
(162,663,o),
(133,604,o),
(133,577,qs),
(133,562,o),
(138,551,q),
(146,535,o),
(168,535,qs),
(179,535,o),
(195,540,q),
(229,549,o),
(258,549,qs),
(304,549,o),
(348,509,o),
(355,487,q),
(359,473,o),
(359,458,qs),
(359,403,o),
(257,280,o),
(177,256,q),
(154,324,l),
(194,335,o),
(256,383,o),
(288,437,o),
(288,456,qs),
(288,462,o),
(287,466,q),
(283,478,o),
(258,478,qs),
(239,478,o),
(213,471,qs),
(189,464,o),
(168,464,qs),
(103,464,o),
(74,520,q),
(62,546,o),
(62,578,qs),
(62,622,o),
(107,711,o),
(145,738,qs),
(187,767,o),
(236,767,qs),
(316,767,o),
(398,687,qs),
(466,620,l),
(466,763,l),
(625,763,l),
(625,691,l),
(537,691,l),
(537,-98,l)
);
}
);
width = 616;
}
);
},
{
glyphname = "gha_signviramacomb_na-bng2.akhn";
layers = (
{
anchors = (
{
name = Anchor_5;
pos = (381,690);
},
{
name = Anchor_3;
pos = (453,690);
},
{
name = Anchor_6;
pos = (455,78);
},
{
name = Anchor_17;
pos = (456,216);
},
{
name = Anchor_18;
pos = (455,212);
},
{
name = Anchor_9;
pos = (455,-97);
},
{
name = Anchor_10;
pos = (455,69);
},
{
name = Anchor_11;
pos = (451,37);
}
);
layerId = m000;
shapes = (
{
closed = 1;
nodes = (
(455,-99,l),
(455,-44,l),
(342,68,l),
(290,115,o),
(249,115,qs),
(238,115,o),
(229,112,q),
(181,93,o),
(167,24,qs),
(165,13,o),
(165,3,qs),
(165,-25,o),
(178,-33,q),
(186,-39,o),
(200,-39,qs),
(228,-39,o),
(255,-21,q),
(293,-82,l),
(248,-110,o),
(200,-110,qs),
(164,-110,o),
(138,-92,qs),
(94,-62,o),
(94,2,qs),
(94,18,o),
(97,35,qs),
(118,146,o),
(207,180,q),
(227,187,o),
(249,187,qs),
(320,187,o),
(391,120,qs),
(455,56,l),
(455,194,l),
(110,368,l),
(103,427,l),
(203,492,l),
(135,503,o),
(97,545,q),
(61,582,o),
(61,631,qs),
(61,661,o),
(76,691,q),
(-9,691,l),
(-9,763,l),
(615,763,l),
(615,691,l),
(527,691,l),
(527,-99,l)
);
},
{
closed = 1;
nodes = (
(455,274,l),
(455,691,l),
(161,691,l),
(133,658,o),
(133,630,qs),
(133,610,o),
(148,594,qs),
(163,579,o),
(212,561,o),
(239,561,qs),
(285,561,o),
(316,585,q),
(319,589,l),
(366,534,l),
(363,532,o),
(361,530,q),
(191,407,l)
);
}
);
width = 606;
}
);
},
{
glyphname = "gha_signviramacomb_ralowerdiagonal-bng2.blwf";
layers = (
{
anchors = (
{
name = Anchor_5;
pos = (369,690);
},
{
name = Anchor_3;
pos = (457,690);
},
{
name = Anchor_6;
pos = (455,205);
},
{
name = Anchor_17;
pos = (457,217);
},
{
name = Anchor_18;
pos = (456,215);
},
{
name = Anchor_9;
pos = (456,-97);
},
{
name = Anchor_10;
pos = (456,202);
},
{
name = Anchor_11;
pos = (451,213);
}
);
layerId = m000;
shapes = (
{
closed = 1;
nodes = (
(62,644,qs),
(62,668,o),
(72,691,q),
(-9,691,l),
(-9,763,l),
(615,763,l),
(615,691,l),
(527,691,l),
(527,-98,l),
(456,-98,l),
(456,-36,l),
(141,177,l),
(151,241,l),
(276,278,l),
(106,385,l),
(104,444,l),
(200,518,l),
(127,531,o),
(88,574,q),
(62,606,o)
);
},
{
closed = 1;
nodes = (
(456,330,l),
(456,691,l),
(158,691,l),
(133,664,o),
(133,643,qs),
(133,631,o),
(141,621,qs),
(155,604,o),
(208,586,o),
(239,586,qs),
(288,586,o),
(321,610,q),
(364,554,l),
(187,418,l),
(368,304,l)
);
},
{
closed = 1;
nodes = (
(244,194,l),
(456,50,l),
(456,256,l)
);
}
);
width = 606;
}
);
},
{
glyphname = "gha_signviramacomb_ramiddlediagonal-bng2.blwf";
layers = (
{
anchors = (
{
name = Anchor_5;
pos = (373,690);
},
{
name = Anchor_3;
pos = (457,690);
},
{
name = Anchor_6;
pos = (455,181);
},
{
name = Anchor_17;
pos = (457,185);
},
{
name = Anchor_18;
pos = (456,215);
},
{
name = Anchor_9;
pos = (458,-97);
},
{
name = Anchor_10;
pos = (455,159);
},
{
name = Anchor_11;
pos = (451,131);
}
);
layerId = m000;
shapes = (
{
closed = 1;
nodes = (
(61,632,qs),
(61,661,o),
(75,691,q),
(-9,691,l),
(-9,763,l),
(615,763,l),
(615,691,l),
(527,691,l),
(527,-98,l),
(455,-98,l),
(455,-43,l),
(432,-15,o),
(393,8,o),
(371,8,qs),
(354,8,o),
(317,-2,qs),
(268,-14,o),
(240,-14,qs),
(210,-14,o),
(183,-4,qs),
(74,34,o),
(63,163,q),
(134,168,l),
(141,85,o),
(206,63,qs),
(222,58,o),
(239,58,qs),
(257,58,o),
(299,68,qs),
(345,79,o),
(371,79,qs),
(416,79,o),
(455,54,q),
(455,117,l),
(105,345,l),
(101,401,l),
(207,492,l),
(136,504,o),
(97,546,qs),
(61,583,o)
);
},
{
closed = 1;
nodes = (
(455,201,l),
(455,691,l),
(160,691,l),
(133,658,o),
(133,631,qs),
(133,611,o),
(148,595,qs),
(163,580,o),
(211,562,o),
(238,562,qs),
(287,562,o),
(319,590,q),
(366,535,l),
(365,535,l),
(183,377,l)
);
}
);
width = 606;
}
);
},
{
glyphname = "nga_signviramacomb_ka-bng2.half";
layers = (
{
anchors = (
{
name = Anchor_5;
pos = (445,690);
},
{
name = Anchor_3;
pos = (405,690);
},
{
name = Anchor_6;
pos = (389,187);
},
{
name = Anchor_17;
pos = (391,254);
},
{
name = Anchor_18;
pos = (391,252);
},
{
name = Anchor_9;
pos = (389,-58);
},
{
name = Anchor_10;
pos = (390,205);
},
{
name = Anchor_11;
pos = (385,199);
}
);
layerId = m000;
shapes = (
{
closed = 1;
nodes = (
(637,170,qs),
(635,208,o),
(544,289,o),
(461,291,q),
(461,-59,l),
(390,-59,l),
(390,-39,l),
(75,178,l),
(84,241,l),
(390,352,l),
(390,449,l),
(291,529,l),
(227,580,o),
(178,562,q),
(140,546,o),
(132,501,q),
(127,466,o),
(154,446,q),
(190,422,o),
(238,444,q),
(269,380,l),
(183,341,o),
(112,389,q),
(53,434,o),
(61,511,q),
(76,596,o),
(152,629,q),
(186,642,o),
(280,630,o),
(336,584,qs),
(448,495,l),
(461,467,l),
(461,362,l),
(570,360,o),
(703,247,o),
(708,175,qs),
(713,118,o),
(636,26,o),
(558,20,q),
(553,91,l),
(639,101,o)
);
},
{
closed = 1;
nodes = (
(508,552,qs),
(449,607,o),
(458,691,q),
(-10,691,l),
(-10,763,l),
(807,763,l),
(807,691,l),
(744,691,l),
(742,619,o),
(689,543,o),
(659,528,qs),
(633,515,o),
(603,515,qs),
(550,515,o)
);
},
{
closed = 1;
nodes = (
(173,197,l),
(390,48,l),
(390,276,l)
);
},
{
closed = 1;
nodes = (
(628,592,q),
(670,613,o),
(672,691,q),
(530,691,l),
(524,660,o),
(542,617,o),
(556,606,qs),
(591,577,o)
);
}
);
width = 797;
}
);
},
{
glyphname = "nga_signviramacomb_ka_signviramacomb_ramiddlediagonal-bng2.half";
layers = (
{
anchors = (
{
name = Anchor_5;
pos = (461,690);
},
{
name = Anchor_3;
pos = (417,690);
},
{
name = Anchor_6;
pos = (399,31);
},
{
name = Anchor_17;
pos = (401,118);
},
{
name = Anchor_18;
pos = (401,114);
},
{
name = Anchor_9;
pos = (401,-194);
},
{
name = Anchor_10;
pos = (400,-16);
},
{
name = Anchor_11;
pos = (396,4);
}
);
layerId = m000;
shapes = (
{
closed = 1;
nodes = (
(94,261,l),
(400,372,l),
(400,449,l),
(301,529,l),
(237,580,o),
(188,562,q),
(150,546,o),
(142,501,q),
(137,466,o),
(164,446,q),
(200,422,o),
(248,444,q),
(279,380,l),
(193,341,o),
(122,389,q),
(63,434,o),
(71,511,q),
(86,596,o),
(162,629,q),
(196,642,o),
(290,630,o),
(346,584,qs),
(458,495,l),
(471,467,l),
(471,382,l),
(580,380,o),
(713,267,o),
(718,195,qs),
(723,138,o),
(646,46,o),
(568,40,q),
(563,111,l),
(649,121,o),
(647,190,qs),
(645,228,o),
(554,309,o),
(471,311,q),
(471,-196,l),
(400,-196,l),
(400,-166,l),
(371,-140,o),
(339,-140,qs),
(322,-140,o),
(285,-150,qs),
(236,-162,o),
(208,-162,qs),
(178,-162,o),
(151,-152,qs),
(42,-114,o),
(31,15,q),
(102,20,l),
(109,-63,o),
(174,-85,qs),
(190,-90,o),
(207,-90,qs),
(225,-90,o),
(267,-80,qs),
(313,-69,o),
(339,-69,qs),
(371,-69,o),
(400,-82,q),
(400,-19,l),
(85,198,l)
);
},
{
closed = 1;
nodes = (
(817,691,l),
(754,691,l),
(752,619,o),
(699,543,o),
(669,528,qs),
(643,515,o),
(613,515,qs),
(560,515,o),
(518,552,qs),
(459,607,o),
(468,691,q),
(-10,691,l),
(-10,763,l),
(817,763,l)
);
},
{
closed = 1;
nodes = (
(682,691,q),
(540,691,l),
(534,660,o),
(552,617,o),
(566,606,qs),
(601,577,o),
(638,592,q),
(680,613,o)
);
},
{
closed = 1;
nodes = (
(400,68,l),
(400,296,l),
(183,217,l)
);
}
);
width = 807;
}
);
},
{
glyphname = "nga_signviramacomb_ga-bng2.half";
layers = (
{
anchors = (
{
name = Anchor_5;
pos = (425,690);
},
{
name = Anchor_3;
pos = (445,690);
},
{
name = Anchor_6;
pos = (515,287);
},
{
name = Anchor_17;
pos = (518,314);
},
{
name = Anchor_18;
pos = (517,315);
},
{
name = Anchor_9;
pos = (362,2);
},
{
name = Anchor_10;
pos = (440,253);
},
{
name = Anchor_11;
pos = (505,95);
},
{
name = Anchor_12;
pos = (285,86);
},
{
name = Anchor_13;
pos = (377,-9);
},
{
name = Anchor_14;
pos = (322,-91);
}
);
layerId = m000;
shapes = (
{
closed = 1;
nodes = (
(374,461,qs),
(387,400,o),
(370,340,q),
(600,464,l),
(644,410,l),
(605,363,o),
(500,172,o),
(511,82,qs),
(520,14,o),
(580,-28,q),
(538,-86,l),
(453,-26,o),
(441,73,qs),
(426,186,o),
(507,333,q),
(96,110,l),
(62,173,l),
(236,268,l),
(283,301,o),
(314,400,o),
(304,447,qs),
(296,486,o),
(252,542,o),
(224,548,q),
(160,560,o),
(136,501,qs),
(128,481,o),
(140,454,q),
(152,431,o),
(183,424,q),
(168,354,l),
(105,368,o),
(77,419,q),
(51,472,o),
(69,526,q),
(89,579,o),
(183,630,o),
(239,618,qs),
(289,607,o),
(362,522,o)
);
},
{
closed = 1;
nodes = (
(418,552,qs),
(358,607,o),
(367,691,q),
(-9,691,l),
(-9,763,l),
(715,763,l),
(715,691,l),
(653,691,l),
(651,619,o),
(599,542,o),
(569,528,qs),
(542,515,o),
(512,515,qs),
(459,515,o)
);
},
{
closed = 1;
nodes = (
(537,592,qs),
(579,612,o),
(582,691,q),
(439,691,l),
(433,660,o),
(452,617,o),
(465,605,q),
(501,576,o)
);
}
);
width = 706;
}
);
},
{
glyphname = "nga_signviramacomb_ma-bng2.half";
layers = (
{
anchors = (
{
name = Anchor_5;
pos = (433,690);
},
{
name = Anchor_3;
pos = (661,690);
},
{
name = Anchor_6;
pos = (661,155);
},
{
name = Anchor_17;
pos = (663,215);
},
{
name = Anchor_18;
pos = (663,192);
},
{
name = Anchor_9;
pos = (661,-97);
},
{
name = Anchor_10;
pos = (662,134);
},
{
name = Anchor_11;
pos = (658,47);
}
);
layerId = m000;
shapes = (
{
closed = 1;
nodes = (
(318,599,q),
(350,590,o),
(380,590,qs),
(439,590,o),
(466,618,qs),
(477,629,o),
(477,642,qs),
(477,651,o),
(472,660,q),
(459,691,o),
(422,691,qs),
(417,691,o),
(411,690,qs),
(383,686,o),
(332,640,o)
);
},
{
closed = 1;
nodes = (
(277,241,qs),
(346,241,o),
(431,194,q),
(480,214,o),
(497,276,qs),
(504,301,o),
(504,328,qs),
(504,360,o),
(494,388,q),
(443,329,o),
(387,320,qs),
(376,318,o),
(366,318,qs),
(325,318,o),
(289,345,q),
(233,390,o),
(233,500,qs),
(233,525,o),
(237,552,q),
(192,572,o),
(141,637,o),
(134,691,q),
(-9,691,l),
(-9,763,l),
(152,763,l),
(169,762,l),
(204,727,l),
(204,685,o),
(226,639,o),
(252,624,q),
(273,685,o),
(356,754,o),
(400,760,qs),
(418,762,o),
(441,763,q),
(822,763,l),
(822,691,l),
(733,691,l),
(733,-98,l),
(662,-98,l),
(662,-48,l),
(428,111,l),
(340,171,o),
(276,171,qs),
(237,171,o),
(214,147,qs),
(186,118,o),
(186,73,qs),
(186,47,o),
(197,30,qs),
(221,-5,o),
(271,-5,qs),
(312,-5,o),
(348,16,q),
(384,-46,l),
(332,-77,o),
(271,-77,qs),
(230,-77,o),
(161,-44,o),
(138,-10,qs),
(114,26,o),
(114,74,qs),
(114,108,o),
(139,174,o),
(163,197,qs),
(169,203,o),
(176,208,q),
(69,327,o),
(61,536,q),
(133,537,l),
(140,336,o),
(246,239,q),
(261,241,o)
);
},
{
closed = 1;
nodes = (
(662,38,l),
(662,691,l),
(537,691,l),
(537,690,o),
(538,688,q),
(548,665,o),
(548,642,qs),
(548,600,o),
(517,568,qs),
(494,544,o),
(423,519,o),
(380,519,qs),
(344,519,o),
(306,528,q),
(305,513,o),
(305,499,qs),
(305,424,o),
(333,401,q),
(350,389,o),
(365,389,qs),
(369,389,o),
(374,390,qs),
(401,395,o),
(454,448,o),
(468,471,q),
(523,478,l),
(548,453,o),
(576,373,o),
(576,328,qs),
(576,291,o),
(567,257,qs),
(548,189,o),
(498,150,q)
);
}
);
width = 812;
}
);
},
{
glyphname = "nga_signviramacomb_ramiddlediagonal-bng2.blwf";
layers = (
{
anchors = (
{
name = Anchor_5;
pos = (505,690);
},
{
name = Anchor_3;
pos = (485,690);
},
{
name = Anchor_6;
pos = (554,170);
},
{
name = Anchor_17;
pos = (556,216);
},
{
name = Anchor_18;
pos = (556,214);
},
{
name = Anchor_9;
pos = (555,-89);
},
{
name = Anchor_10;
pos = (555,170);
},
{
name = Anchor_11;
pos = (551,113);
}
);
layerId = m000;
shapes = (
{
closed = 1;
nodes = (
(368,605,q),
(409,596,o),
(448,596,qs),
(518,596,o),
(554,621,qs),
(571,633,o),
(571,646,qs),
(571,652,o),
(566,661,q),
(560,673,o),
(523,689,o),
(499,689,qs),
(487,689,o),
(475,687,qs),
(449,682,o),
(387,645,o)
);
},
{
closed = 1;
nodes = (
(555,-98,l),
(555,-46,l),
(525,-19,o),
(470,3,o),
(439,3,qs),
(418,3,o),
(369,-4,qs),
(310,-13,o),
(281,-13,qs),
(242,-13,o),
(208,-3,qs),
(76,35,o),
(62,164,q),
(133,171,l),
(141,89,o),
(227,65,qs),
(253,58,o),
(282,58,qs),
(308,58,o),
(358,66,qs),
(410,75,o),
(439,75,qs),
(502,75,o),
(555,43,q),
(555,148,l),
(508,128,o),
(449,128,qs),
(356,128,o),
(186,224,o),
(77,412,o),
(73,541,q),
(144,544,l),
(148,432,o),
(238,276,o),
(375,199,o),
(449,199,qs),
(504,199,o),
(579,245,o),
(594,287,qs),
(603,311,o),
(603,339,qs),
(603,376,o),
(588,405,q),
(555,372,o),
(473,328,o),
(429,328,qs),
(385,328,o),
(346,353,qs),
(279,396,o),
(279,505,qs),
(279,529,o),
(282,555,q),
(158,603,o),
(68,705,q),
(122,753,l),
(198,666,o),
(300,626,q),
(323,682,o),
(412,748,o),
(462,757,qs),
(480,760,o),
(498,760,qs),
(542,760,o),
(613,725,o),
(630,694,q),
(642,670,o),
(642,646,qs),
(642,595,o),
(594,562,qs),
(539,524,o),
(446,524,qs),
(400,524,o),
(352,534,q),
(350,519,o),
(350,506,qs),
(350,474,o),
(366,425,o),
(385,413,qs),
(406,399,o),
(430,399,qs),
(473,399,o),
(559,476,o),
(561,482,q),
(612,489,l),
(642,464,o),
(675,383,o),
(675,338,qs),
(675,298,o),
(662,262,qs),
(649,228,o),
(626,201,q),
(626,-98,l)
);
}
);
width = 737;
}
);
},
{
glyphname = "ca_signviramacomb_nya-bng2.akhn";
layers = (
{
anchors = (
{
name = Anchor_5;
pos = (497,690);
},
{
name = Anchor_3;
pos = (489,690);
},
{
name = Anchor_6;
pos = (644,182);
},
{
name = Anchor_17;
pos = (646,216);
},
{
name = Anchor_18;
pos = (646,214);
},
{
name = Anchor_9;
pos = (644,-99);
},
{
name = Anchor_10;
pos = (645,190);
},
{
name = Anchor_11;
pos = (640,120);
}
);
layerId = m000;
shapes = (
{
closed = 1;
nodes = (
(895,55,qs),
(916,62,o),
(937,96,o),
(937,117,qs),
(937,124,o),
(936,132,qs),
(931,168,o),
(862,222,o),
(800,222,qs),
(798,222,l),
(798,293,l),
(856,294,o),
(931,335,o),
(939,373,q),
(940,380,o),
(940,387,qs),
(940,408,o),
(921,441,o),
(904,449,q),
(890,454,o),
(876,454,qs),
(837,454,o),
(752,380,o),
(716,304,q),
(716,196,l),
(744,129,o),
(838,53,o),
(878,53,qs),
(889,53,o)
);
},
{
closed = 1;
nodes = (
(194,281,qs),
(227,281,o),
(309,325,o),
(374,409,o),
(381,466,q),
(323,475,o),
(197,512,o),
(151,542,q),
(151,319,l),
(151,300,o),
(161,290,q),
(173,281,o)
);
},
{
closed = 1;
nodes = (
(1067,691,l),
(151,691,l),
(151,652,l),
(155,606,o),
(335,541,o),
(423,532,q),
(442,512,l),
(476,539,o),
(564,580,o),
(605,580,qs),
(631,580,o),
(652,571,qs),
(714,543,o),
(715,451,qs),
(715,437,l),
(753,482,o),
(836,526,o),
(876,526,qs),
(906,526,o),
(933,514,qs),
(969,498,o),
(1012,429,o),
(1012,388,qs),
(1012,376,o),
(1008,357,qs),
(994,292,o),
(934,256,q),
(965,235,o),
(1002,175,o),
(1007,143,q),
(1009,126,o),
(1009,119,qs),
(1009,72,o),
(959,0,o),
(916,-13,qs),
(898,-18,o),
(879,-18,qs),
(839,-18,o),
(753,25,o),
(716,64,q),
(716,-98,l),
(645,-98,l),
(645,-55,l),
(621,-18,o),
(558,10,o),
(511,10,qs),
(482,10,o),
(442,6,qs),
(397,2,o),
(361,2,qs),
(332,2,o),
(315,4,q),
(196,22,o),
(165,132,q),
(234,151,l),
(250,85,o),
(326,75,qs),
(339,73,o),
(359,73,qs),
(386,73,o),
(436,78,qs),
(489,82,o),
(510,82,qs),
(592,82,o),
(645,46,q),
(645,330,o),
(644,451,q),
(642,497,o),
(623,505,q),
(615,509,o),
(604,509,qs),
(578,509,o),
(505,474,o),
(479,451,qs),
(433,408,o),
(433,357,qs),
(433,336,o),
(441,321,qs),
(458,288,o),
(502,288,qs),
(516,288,o),
(533,293,q),
(550,223,l),
(526,217,o),
(502,217,qs),
(461,217,o),
(395,254,o),
(377,288,q),
(382,279,o),
(375,296,q),
(374,295,l),
(335,255,o),
(238,209,o),
(194,209,qs),
(145,209,o),
(115,236,qs),
(80,266,o),
(80,319,qs),
(80,454,o),
(79,691,q),
(-9,691,l),
(-9,763,l),
(1067,763,l)
);
}
);
width = 1058;
}
);
},
{
glyphname = "ca_signviramacomb_ramiddlediagonal-bng2.blwf";
layers = (
{
anchors = (
{
name = Anchor_5;
pos = (405,690);
},
{
name = Anchor_3;
pos = (361,690);
},
{
name = Anchor_6;
pos = (467,184);
},
{
name = Anchor_17;
pos = (469,214);
},
{
name = Anchor_18;
pos = (469,212);
},
{
name = Anchor_9;
pos = (468,-99);
},
{
name = Anchor_10;
pos = (468,149);
},
{
name = Anchor_11;
pos = (463,150);
}
);
layerId = m000;
shapes = (
{
closed = 1;
nodes = (
(221,545,q),
(222,257,l),
(222,228,o),
(237,215,q),
(251,202,o),
(281,202,qs),
(322,202,o),
(427,260,o),
(507,370,o),
(514,443,q),
(440,455,o),
(278,503,o)
);
},
{
closed = 1;
nodes = (
(150,662,l),
(149,691,l),
(-9,691,l),
(-9,763,l),
(657,763,l),
(657,691,l),
(221,691,l),
(221,665,l),
(225,624,o),
(339,558,o),
(492,517,o),
(555,510,q),
(587,475,l),
(587,377,o),
(539,296,q),
(539,-99,l),
(468,-99,l),
(468,-47,l),
(439,-17,o),
(387,7,o),
(359,7,qs),
(338,7,o),
(293,-3,q),
(255,-10,o),
(218,-10,qs),
(187,-10,o),
(167,-4,qs),
(42,34,o),
(28,163,q),
(99,169,l),
(107,86,o),
(187,64,qs),
(198,61,o),
(217,61,qs),
(245,61,o),
(279,68,qs),
(331,78,o),
(359,78,qs),
(417,78,o),
(468,46,q),
(468,210,l),
(425,172,o),
(326,131,o),
(281,131,qs),
(225,131,o),
(189,162,qs),
(150,196,o),
(150,257,qs)
);
}
);
width = 648;
}
);
},
{
glyphname = "cha_signviramacomb_ralowerdiagonal-bng2.blwf";
layers = (
{
anchors = (
{
name = Anchor_5;
pos = (317,690);
},
{
name = Anchor_3;
pos = (357,690);
},
{
name = Anchor_6;
pos = (345,106);
},
{
name = Anchor_17;
pos = (347,112);
},
{
name = Anchor_18;
pos = (346,112);
},
{
name = Anchor_9;
pos = (346,-200);
},
{
name = Anchor_10;
pos = (346,106);
},
{
name = Anchor_11;
pos = (342,109);
}
);
layerId = m000;
shapes = (
{
closed = 1;
nodes = (
(59,486,qs),
(59,691,l),
(-9,691,l),
(-9,763,l),
(583,763,l),
(583,691,l),
(131,691,l),
(139,670,o),
(248,628,o),
(313,619,q),
(318,620,o),
(324,620,qs),
(389,620,o),
(441,582,q),
(510,527,o),
(510,444,qs),
(510,378,o),
(454,326,qs),
(395,270,o),
(289,247,q),
(368,215,o),
(510,136,o),
(541,112,q),
(497,56,l),
(471,76,o),
(417,106,q),
(417,-200,l),
(346,-201,l),
(346,-138,l),
(41,68,l),
(51,132,l),
(242,188,l),
(158,221,o),
(79,234,q),
(87,305,l),
(117,303,o),
(146,303,qs),
(251,303,o),
(376,350,o),
(405,378,q),
(439,408,o),
(439,445,qs),
(439,494,o),
(398,525,qs),
(379,539,o),
(355,545,q),
(342,466,o),
(223,354,o),
(163,354,qs),
(115,354,o),
(87,390,qs),
(59,425,o)
);
},
{
closed = 1;
nodes = (
(345,-52,l),
(345,144,l),
(144,85,l)
);
},
{
closed = 1;
nodes = (
(163,425,qs),
(192,425,o),
(272,497,o),
(283,549,q),
(282,552,l),
(188,567,o),
(130,599,q),
(130,486,l),
(130,450,o),
(143,434,qs),
(150,425,o)
);
}
);
width = 574;
}
);
},
{
glyphname = "cha_signviramacomb_ramiddlediagonal-bng2.blwf";
layers = (
{
anchors = (
{
name = Anchor_5;
pos = (373,690);
},
{
name = Anchor_3;
pos = (357,690);
},
{
name = Anchor_6;
pos = (432,174);
},
{
name = Anchor_17;
pos = (434,215);
},
{
name = Anchor_18;
pos = (433,213);
},
{
name = Anchor_9;
pos = (435,-98);
},
{
name = Anchor_10;
pos = (433,146);
},
{
name = Anchor_11;
pos = (428,135);
}
);
layerId = m000;
shapes = (
{
closed = 1;
nodes = (
(95,486,qs),
(95,691,l),
(-9,691,l),
(-9,763,l),
(617,763,l),
(617,691,l),
(167,691,l),
(175,670,o),
(283,628,o),
(348,619,q),
(354,620,o),
(360,620,qs),
(426,620,o),
(477,582,q),
(546,527,o),
(546,444,qs),
(546,377,o),
(490,325,qs),
(431,271,o),
(325,247,q),
(404,214,o),
(546,136,o),
(577,112,q),
(533,56,l),
(522,64,o),
(504,76,q),
(504,-98,l),
(433,-98,l),
(433,-44,l),
(407,-18,o),
(362,3,o),
(337,3,qs),
(319,3,o),
(279,-5,qs),
(228,-15,o),
(200,-15,qs),
(164,-15,o),
(129,-3,qs),
(12,36,o),
(0,164,q),
(71,169,l),
(78,88,o),
(152,64,q),
(176,57,o),
(201,57,qs),
(225,57,o),
(266,65,qs),
(313,74,o),
(337,74,qs),
(388,74,o),
(433,47,q),
(432,117,l),
(356,158,o),
(194,221,o),
(115,234,q),
(123,305,l),
(153,303,o),
(182,303,qs),
(287,303,o),
(412,350,o),
(442,378,qs),
(475,408,o),
(475,444,qs),
(475,494,o),
(434,525,qs),
(415,539,o),
(391,545,q),
(378,465,o),
(259,354,o),
(199,354,qs),
(151,354,o),
(123,390,qs),
(95,425,o)
);
},
{
closed = 1;
nodes = (
(199,425,qs),
(228,425,o),
(308,497,o),
(319,549,q),
(318,552,l),
(224,567,o),
(166,599,q),
(166,486,l),
(166,450,o),
(179,434,qs),
(186,425,o)
);
}
);
width = 608;
}
);
},
{
glyphname = "ja_signviramacomb_ja-bng2.akhn";
layers = (
{
anchors = (
{
name = Anchor_5;
pos = (693,690);
},
{
name = Anchor_3;
pos = (673,690);
},
{
name = Anchor_6;
pos = (1001,144);
},
{
name = Anchor_17;
pos = (1007,143);
},
{
name = Anchor_18;
pos = (1006,169);
},
{
name = Anchor_9;
pos = (720,2);
},
{
name = Anchor_10;
pos = (1004,131);
},
{
name = Anchor_11;
pos = (1001,98);
},
{
name = Anchor_12;
pos = (818,36);
},
{
name = Anchor_13;
pos = (889,-2);
},
{
name = Anchor_14;
pos = (817,-93);
}
);
layerId = m000;
shapes = (
{
closed = 1;
nodes = (
(279,476,l),
(404,691,l),
(-10,691,l),
(-10,763,l),
(1186,763,l),
(1186,691,l),
(515,691,l),
(534,650,o),
(567,627,qs),
(630,584,o),
(740,608,q),
(808,592,l),
(812,561,o),
(919,470,o),
(1087,464,q),
(1116,408,l),
(1098,382,o),
(1040,254,o),
(1023,60,o),
(1077,-30,q),
(1015,-67,l),
(945,52,o),
(976,298,o),
(1026,397,q),
(841,416,o),
(770,508,q),
(710,389,l),
(807,373,o),
(855,289,q),
(901,200,o),
(850,116,q),
(801,42,o),
(708,40,qs),
(704,40,l),
(637,40,o),
(519,103,o),
(475,162,q),
(439,142,o),
(394,142,qs),
(390,142,l),
(311,142,o),
(166,238,o),
(66,450,o),
(60,615,q),
(131,617,l),
(137,476,o),
(213,295,o),
(326,213,o),
(390,213,qs),
(392,213,l),
(448,214,o),
(476,257,q),
(505,305,o),
(478,357,q),
(441,420,o),
(365,422,qs),
(310,423,l)
);
},
{
closed = 1;
nodes = (
(536,218,q),
(533,214,o),
(529,209,q),
(600,112,o),
(707,111,q),
(762,112,o),
(790,155,q),
(819,203,o),
(792,255,q),
(755,318,o),
(679,320,q),
(653,320,l),
(621,372,l),
(700,530,l),
(597,520,o),
(526,569,qs),
(485,597,o),
(459,643,q),
(372,494,l),
(485,487,o),
(541,391,q),
(586,302,o)
);
}
);
width = 1176;
}
);
},
{
glyphname = "ja_signviramacomb_ja_signviramacomb_ralowerdiagonal-bng2.akhn";
layers = (
{
anchors = (
{
name = Anchor_5;
pos = (685,690);
},
{
name = Anchor_3;
pos = (673,690);
},
{
name = Anchor_6;
pos = (1067,164);
},
{
name = Anchor_17;
pos = (1069,219);
},
{
name = Anchor_18;
pos = (1068,216);
},
{
name = Anchor_9;
pos = (1066,-94);
},
{
name = Anchor_10;
pos = (1068,183);
},
{
name = Anchor_11;
pos = (1063,173);
}
);
layerId = m000;
shapes = (
{
closed = 1;
nodes = (
(279,476,l),
(404,691,l),
(-10,691,l),
(-10,763,l),
(1219,763,l),
(1219,691,l),
(505,691,l),
(513,648,o),
(541,625,qs),
(565,605,o),
(644,596,o),
(698,608,q),
(761,608,l),
(774,584,o),
(845,500,o),
(996,418,o),
(1103,418,q),
(1139,382,l),
(1139,-95,l),
(1068,-95,l),
(1068,-60,l),
(847,113,l),
(851,172,l),
(1068,299,l),
(1068,347,l),
(950,354,o),
(785,457,o),
(734,521,q),
(682,416,l),
(773,397,o),
(814,326,q),
(854,248,o),
(805,168,q),
(756,96,o),
(658,93,q),
(540,93,o),
(452,183,q),
(414,161,o),
(366,160,qs),
(361,160,l),
(241,160,o),
(70,361,o),
(60,615,q),
(131,617,l),
(134,527,o),
(178,344,o),
(278,232,o),
(361,232,qs),
(365,232,l),
(420,233,o),
(448,275,q),
(482,330,o),
(459,376,q),
(432,421,o),
(365,422,qs),
(310,423,l)
);
},
{
closed = 1;
nodes = (
(508,237,q),
(506,234,o),
(505,232,q),
(568,165,o),
(657,164,q),
(717,166,o),
(745,207,q),
(773,252,o),
(752,291,q),
(718,346,o),
(637,348,qs),
(626,348,l),
(594,400,l),
(659,530,l),
(554,519,o),
(494,571,qs),
(467,595,o),
(451,629,q),
(372,494,l),
(476,488,o),
(521,410,q),
(563,327,o)
);
},
{
closed = 1;
nodes = (
(933,137,l),
(1068,31,l),
(1068,216,l)
);
}
);
width = 1209;
}
);
},
{
glyphname = "ja_signviramacomb_jha-bng2.akhn";
layers = (
{
anchors = (
{
name = Anchor_5;
pos = (513,690);
},
{
name = Anchor_3;
pos = (1017,690);
},
{
name = Anchor_6;
pos = (807,243);
},
{
name = Anchor_17;
pos = (809,302);
},
{
name = Anchor_18;
pos = (808,298);
},
{
name = Anchor_9;
pos = (809,2);
},
{
name = Anchor_10;
pos = (808,248);
},
{
name = Anchor_11;
pos = (803,226);
}
);
layerId = m000;
shapes = (
{
closed = 1;
nodes = (
(247,462,l),
(400,691,l),
(-10,691,l),
(-10,763,l),
(1187,763,l),
(1187,691,l),
(1088,691,l),
(1088,-13,l),
(1016,-13,l),
(1016,27,l),
(879,141,l),
(879,-13,l),
(808,-13,l),
(808,7,l),
(584,231,l),
(591,287,l),
(808,414,l),
(808,471,l),
(663,460,o),
(496,569,o),
(457,648,q),
(343,477,l),
(450,469,o),
(506,375,q),
(557,280,o),
(505,189,q),
(456,111,o),
(362,108,q),
(358,108,l),
(248,108,o),
(70,320,o),
(60,608,q),
(131,610,l),
(139,402,o),
(256,179,o),
(358,179,qs),
(361,179,l),
(416,180,o),
(444,226,qs),
(476,281,o),
(444,340,q),
(406,403,o),
(333,406,q),
(276,406,l)
);
},
{
closed = 1;
nodes = (
(667,249,l),
(808,108,l),
(808,331,l)
);
},
{
closed = 1;
nodes = (
(1016,120,l),
(1016,691,l),
(515,691,l),
(545,622,o),
(696,525,o),
(838,547,q),
(879,512,l),
(879,234,l)
);
}
);
width = 1178;
}
);
},
{
glyphname = "ja_signviramacomb_nya-bng2.akhn";
layers = (
{
anchors = (
{
name = Anchor_5;
pos = (453,690);
},
{
name = Anchor_3;
pos = (425,690);
},
{
name = Anchor_6;
pos = (397,287);
},
{
name = Anchor_17;
pos = (390,314);
},
{
name = Anchor_18;
pos = (403,315);
},
{
name = Anchor_9;
pos = (399,70);
},
{
name = Anchor_10;
pos = (476,324);
},
{
name = Anchor_11;
pos = (480,262);
},
{
name = Anchor_12;
pos = (242,32);
},
{
name = Anchor_13;
pos = (268,32);
},
{
name = Anchor_14;
pos = (211,71);
}
);
layerId = m000;
shapes = (
{
closed = 1;
nodes = (
(407,659,q),
(326,553,o),
(314,441,q),
(388,459,o),
(444,459,qs),
(471,459,o),
(494,455,q),
(465,527,o)
);
},
{
closed = 1;
nodes = (
(715,172,qs),
(654,172,o),
(607,223,q),
(596,194,o),
(578,166,qs),
(526,90,o),
(434,82,q),
(427,81,o),
(413,81,qs),
(351,81,o),
(232,130,o),
(186,174,qs),
(132,226,o),
(60,421,o),
(60,566,qs),
(60,586,o),
(61,606,q),
(132,604,l),
(131,587,o),
(131,570,qs),
(131,456,o),
(186,275,o),
(236,225,qs),
(280,183,o),
(375,153,o),
(414,153,qs),
(429,153,l),
(487,158,o),
(518,206,qs),
(548,250,o),
(548,297,qs),
(548,315,o),
(544,332,q),
(543,333,o),
(542,335,q),
(542,336,l),
(524,388,o),
(442,388,qs),
(381,388,o),
(288,359,q),
(242,392,l),
(242,409,l),
(242,552,o),
(342,691,q),
(-10,691,l),
(-10,763,l),
(916,763,l),
(916,691,l),
(471,691,l),
(515,590,o),
(545,517,q),
(581,570,o),
(667,618,o),
(712,618,qs),
(747,618,o),
(779,604,qs),
(810,590,o),
(847,533,o),
(847,499,qs),
(847,487,o),
(844,474,q),
(835,427,o),
(791,395,q),
(834,361,o),
(843,308,q),
(845,299,o),
(845,289,qs),
(845,250,o),
(801,190,o),
(765,180,q),
(740,172,o)
);
},
{
closed = 1;
nodes = (
(712,546,qs),
(679,546,o),
(609,496,o),
(579,433,q),
(590,406,o),
(598,385,q),
(605,374,o),
(609,361,q),
(634,296,o),
(688,244,o),
(716,244,qs),
(729,244,o),
(745,248,q),
(772,256,o),
(772,289,qs),
(772,298,l),
(768,323,o),
(718,362,o),
(671,362,qs),
(670,362,l),
(669,433,l),
(717,433,o),
(770,466,o),
(774,489,q),
(775,493,o),
(775,498,qs),
(775,524,o),
(751,538,q),
(733,546,o)
);
}
);
width = 907;
}
);
},
{
glyphname = "ja_signviramacomb_ralowerdiagonal-bng2.blwf";
layers = (
{
anchors = (
{
name = Anchor_5;
pos = (520,690);
},
{
name = Anchor_3;
pos = (512,690);
},
{
name = Anchor_6;
pos = (807,237);
},
{
name = Anchor_17;
pos = (809,301);
},
{
name = Anchor_18;
pos = (808,298);
},
{
name = Anchor_9;
pos = (805,2);
},
{
name = Anchor_10;
pos = (808,250);
},
{
name = Anchor_11;
pos = (803,238);
}
);
layerId = m000;
shapes = (
{
closed = 1;
nodes = (
(247,463,l),
(399,691,l),
(-10,691,l),
(-10,763,l),
(969,763,l),
(969,691,l),
(515,691,l),
(545,622,o),
(696,526,o),
(838,548,q),
(879,513,l),
(879,-12,l),
(808,-12,l),
(808,8,l),
(584,232,l),
(591,288,l),
(808,415,l),
(808,472,l),
(663,461,o),
(496,570,o),
(457,649,q),
(343,478,l),
(450,470,o),
(506,376,q),
(557,281,o),
(505,190,q),
(456,112,o),
(362,109,q),
(358,109,l),
(248,109,o),
(70,321,o),
(60,609,q),
(131,611,l),
(139,403,o),
(256,180,o),
(358,180,qs),
(361,180,l),
(416,181,o),
(444,227,qs),
(476,282,o),
(444,341,q),
(406,404,o),
(333,407,q),
(276,407,l)
);
},
{
closed = 1;
nodes = (
(667,250,l),
(808,109,l),
(808,332,l)
);
}
);
width = 959;
}
);
},
{
glyphname = "ja_signviramacomb_ramiddlediagonal-bng2.blwf";
layers = (
{
anchors = (
{
name = Anchor_5;
pos = (501,690);
},
{
name = Anchor_3;
pos = (477,690);
},
{
name = Anchor_6;
pos = (647,145);
},
{
name = Anchor_17;
pos = (649,146);
},
{
name = Anchor_18;
pos = (597,232);
},
{
name = Anchor_9;
pos = (455,2);
},
{
name = Anchor_10;
pos = (651,131);
},
{
name = Anchor_11;
pos = (644,102);
},
{
name = Anchor_12;
pos = (532,11);
},
{
name = Anchor_13;
pos = (533,4);
},
{
name = Anchor_14;
pos = (461,-85);
}
);
layerId = m000;
shapes = (
{
closed = 1;
nodes = (
(249,478,l),
(403,692,l),
(-9,691,l),
(-9,763,l),
(881,764,l),
(881,692,l),
(519,692,l),
(536,641,o),
(656,560,o),
(784,555,q),
(811,499,l),
(798,481,o),
(738,377,o),
(681,216,o),
(681,134,qs),
(681,51,o),
(716,-17,qs),
(717,-19,o),
(718,-21,q),
(719,-22,l),
(719,-23,o),
(720,-24,q),
(680,-44,l),
(656,-57,l),
(656,-56,l),
(655,-56,l),
(636,-18,o),
(586,13,o),
(548,13,qs),
(518,13,o),
(449,1,qs),
(363,-15,o),
(313,-15,qs),
(270,-15,o),
(231,-6,qs),
(87,28,o),
(64,159,q),
(134,172,l),
(147,85,o),
(248,63,qs),
(278,56,o),
(313,56,qs),
(355,56,o),
(436,71,qs),
(480,79,o),
(525,85,o),
(550,85,qs),
(586,85,o),
(614,76,q),
(610,105,o),
(610,136,qs),
(610,233,o),
(676,416,o),
(720,489,q),
(608,503,o),
(485,592,o),
(460,648,q),
(347,493,l),
(366,493,l),
(423,493,o),
(518,438,o),
(544,390,qs),
(564,352,o),
(564,311,qs),
(564,262,o),
(537,221,qs),
(488,149,o),
(395,146,q),
(384,146,l),
(307,146,o),
(164,243,o),
(68,451,o),
(61,611,q),
(133,613,l),
(138,475,o),
(214,298,o),
(327,217,o),
(391,217,qs),
(394,217,l),
(450,219,o),
(478,261,qs),
(493,284,o),
(493,310,qs),
(493,334,o),
(480,356,q),
(464,386,o),
(402,422,o),
(366,422,qs),
(278,422,l)
);
}
);
width = 872;
}
);
},
{
glyphname = "ja_signviramacomb_ramiddlediagonal-bng2.blwf.alt";
layers = (
{
anchors = (
{
name = Anchor_5;
pos = (500,692);
},
{
name = Anchor_3;
pos = (460,692);
},
{
name = Anchor_6;
pos = (640,137);
},
{
name = Anchor_17;
pos = (639,143);
},
{
name = Anchor_18;
pos = (635,165);
},
{
name = Anchor_9;
pos = (409,2);
},
{
name = Anchor_10;
pos = (622,156);
},
{
name = Anchor_11;
pos = (633,98);
},
{
name = Anchor_12;
pos = (517,5);
},
{
name = Anchor_13;
pos = (521,-3);
},
{
name = Anchor_14;
pos = (452,-93);
}
);
layerId = m000;
shapes = (
{
closed = 1;
nodes = (
(240,511,qs),
(240,609,o),
(337,691,q),
(-9,691,l),
(-9,763,l),
(872,763,l),
(872,691,l),
(510,691,l),
(526,640,o),
(647,560,o),
(774,555,q),
(802,499,l),
(789,481,o),
(730,377,o),
(673,214,o),
(673,130,qs),
(673,41,o),
(710,-31,q),
(709,-31,l),
(710,-32,o),
(710,-32,q),
(674,-51,l),
(647,-66,l),
(647,-65,l),
(627,-27,o),
(577,4,o),
(541,4,qs),
(512,4,o),
(444,-8,qs),
(359,-24,o),
(310,-24,qs),
(267,-24,o),
(229,-15,qs),
(87,20,o),
(64,151,q),
(134,163,l),
(147,76,o),
(246,55,qs),
(276,48,o),
(310,48,qs),
(351,48,o),
(431,63,qs),
(504,76,o),
(539,76,qs),
(576,76,o),
(605,66,q),
(601,99,o),
(601,133,qs),
(601,232,o),
(667,416,o),
(711,489,q),
(583,505,o),
(460,613,o),
(441,675,q),
(380,643,o),
(311,556,o),
(311,511,qs),
(311,467,o),
(347,445,q),
(363,437,o),
(380,437,qs),
(408,437,o),
(458,478,o),
(460,482,q),
(514,485,l),
(540,457,o),
(569,379,o),
(569,337,qs),
(569,292,o),
(552,252,qs),
(508,150,o),
(395,146,q),
(391,146,l),
(313,146,o),
(167,241,o),
(68,452,o),
(61,615,q),
(133,619,l),
(138,478,o),
(214,299,o),
(328,217,o),
(391,217,qs),
(394,217,l),
(461,219,o),
(486,279,qs),
(498,306,o),
(498,337,qs),
(498,374,o),
(483,405,q),
(433,366,o),
(379,366,qs),
(347,366,o),
(316,381,qs),
(280,399,o),
(240,468,o)
);
}
);
width = 863;
}
);
},
{
glyphname = "jha_signviramacomb_ramiddlediagonal-bng2.blwf";
layers = (
{
anchors = (
{
name = Anchor_5;
pos = (417,690);
},
{
name = Anchor_3;
pos = (417,690);
},
{
name = Anchor_6;
pos = (416,168);
},
{
name = Anchor_17;
pos = (418,215);
},
{
name = Anchor_18;
pos = (417,213);
},
{
name = Anchor_9;
pos = (415,-95);
},
{
name = Anchor_10;
pos = (417,152);
},
{
name = Anchor_11;
pos = (412,137);
}
);
layerId = m000;
shapes = (
{
closed = 1;
nodes = (
(643,256,l),
(643,763,l),
(804,763,l),
(804,691,l),
(714,691,l),
(714,185,l),
(716,183,l),
(714,182,l),
(714,72,l),
(643,72,l),
(643,155,l),
(488,310,l),
(488,-98,l),
(417,-98,l),
(417,-42,l),
(394,-15,o),
(355,8,o),
(334,8,qs),
(317,8,o),
(281,-2,q),
(233,-14,o),
(204,-14,qs),
(175,-14,o),
(148,-4,qs),
(42,34,o),
(30,163,q),
(101,168,l),
(108,86,o),
(171,63,q),
(187,58,o),
(204,58,qs),
(221,58,o),
(263,68,qs),
(308,79,o),
(334,79,qs),
(378,79,o),
(417,54,q),
(417,116,l),
(61,443,l),
(74,503,l),
(417,621,l),
(417,691,l),
(-9,691,l),
(-9,763,l),
(488,763,l),
(488,411,l)
);
},
{
closed = 1;
nodes = (
(153,454,l),
(417,213,l),
(417,546,l)
);
}
);
width = 795;
}
);
},
{
glyphname = "nya_signviramacomb_ca-bng2.akhn";
layers = (
{
anchors = (
{
name = Anchor_5;
pos = (505,690);
},
{
name = Anchor_3;
pos = (449,690);
},
{
name = Anchor_6;
pos = (429,287);
},
{
name = Anchor_17;
pos = (431,314);
},
{
name = Anchor_18;
pos = (430,315);
},
{
name = Anchor_9;
pos = (430,2);
},
{
name = Anchor_10;
pos = (430,289);
},
{
name = Anchor_11;
pos = (426,302);
}
);
layerId = m000;
shapes = (
{
closed = 1;
nodes = (
(501,422,q),
(501,514,l),
(537,587,o),
(652,694,o),
(707,678,q),
(730,672,o),
(757,615,o),
(752,582,qs),
(748,551,o),
(697,496,o),
(634,496,qs),
(633,496,l),
(633,425,l),
(690,425,o),
(750,372,o),
(753,334,qs),
(755,307,o),
(728,260,o),
(700,255,qs),
(643,246,o),
(525,367,o)
);
},
{
closed = 1;
nodes = (
(430,383,l),
(430,135,l),
(180,290,l)
);
},
{
closed = 1;
nodes = (
(430,625,l),
(385,682,l),
(333,744,o),
(228,769,o),
(185,756,qs),
(134,740,o),
(59,654,o),
(54,605,qs),
(46,521,o),
(114,477,qs),
(149,455,o),
(193,455,qs),
(238,455,o),
(273,478,q),
(235,538,l),
(194,515,o),
(151,538,q),
(121,557,o),
(125,597,qs),
(128,623,o),
(174,678,o),
(206,688,qs),
(270,707,o),
(329,637,qs),
(430,510,l),
(430,459,l),
(87,331,l),
(80,267,l),
(430,51,l),
(430,0,l),
(501,0,l),
(501,288,l),
(540,241,o),
(634,183,o),
(685,183,qs),
(699,183,o),
(712,185,qs),
(766,194,o),
(829,282,o),
(824,340,qs),
(821,375,o),
(787,438,o),
(757,460,q),
(785,480,o),
(818,539,o),
(823,572,qs),
(831,632,o),
(775,734,o),
(726,747,qs),
(667,763,o),
(551,706,o),
(501,646,q),
(501,764,l),
(430,764,l)
);
}
);
width = 885;
}
);
},
